<svg width="24" height="25" viewBox="0 0 24 25" fill="none" xmlns="http://www.w3.org/2000/svg">
<path fill-rule="evenodd" clip-rule="evenodd" d="M11.5528 1.60557C11.8343 1.46481 12.1657 1.46481 12.4472 1.60557L22.4472 6.60557C22.786 6.77496 23 7.12123 23 7.5C23 7.87877 22.786 8.22504 22.4472 8.39443L12.4472 13.3944C12.1657 13.5352 11.8343 13.5352 11.5528 13.3944L1.55276 8.39443C1.21398 8.22504 0.999975 7.87877 0.999975 7.5C0.999975 7.12123 1.21398 6.77496 1.55276 6.60557L11.5528 1.60557ZM4.23604 7.5L12 11.382L19.7639 7.5L12 3.61803L4.23604 7.5Z" fill="#1A202C"/>
<path d="M1.10555 17.0528C1.35254 16.5588 1.95321 16.3586 2.44719 16.6056L12 21.382L21.5528 16.6056C22.0467 16.3586 22.6474 16.5588 22.8944 17.0528C23.1414 17.5468 22.9412 18.1474 22.4472 18.3944L12.4472 23.3944C12.1657 23.5352 11.8343 23.5352 11.5528 23.3944L1.55276 18.3944C1.05878 18.1474 0.858558 17.5468 1.10555 17.0528Z" fill="#1A202C"/>
<path d="M2.44719 11.6056C1.95321 11.3586 1.35254 11.5588 1.10555 12.0528C0.858558 12.5468 1.05878 13.1474 1.55276 13.3944L11.5528 18.3944C11.8343 18.5352 12.1657 18.5352 12.4472 18.3944L22.4472 13.3944C22.9412 13.1474 23.1414 12.5468 22.8944 12.0528C22.6474 11.5588 22.0467 11.3586 21.5528 11.6056L12 16.382L2.44719 11.6056Z" fill="#1A202C"/>
</svg>
