<svg width="124" height="21" viewBox="0 0 124 21" fill="none" xmlns="http://www.w3.org/2000/svg">
<path d="M1.136 14.216L3.872 13.808L6.488 13.04L7.112 12.032L6.848 11L6.224 10.232C6.048 10.12 5.864 10.016 5.672 9.92C5.496 9.808 5.312 9.728 5.12 9.68C4.944 9.616 4.76 9.592 4.568 9.608C4.392 9.608 4.216 9.664 4.04 9.776L3.44 10.208L1.448 9.272L0.728 7.424L1.352 4.328L2.456 2.864C2.504 2.976 2.6 3.016 2.744 2.984C2.888 2.952 3.032 2.888 3.176 2.792C3.32 2.696 3.44 2.584 3.536 2.456C3.632 2.312 3.656 2.184 3.608 2.072C3.88 1.992 4.192 1.912 4.544 1.832C4.896 1.736 5.2 1.6 5.456 1.424L8.552 0.775999L9.056 0.727999L9.488 1.232L9.104 2.264L8.216 2.504L7.064 2.624L5.312 3.512L4.496 4.568C4.24 4.808 4.112 5.072 4.112 5.36C4.128 5.632 4.2 5.928 4.328 6.248C4.504 6.616 4.632 6.856 4.712 6.968C4.808 7.064 4.928 7.152 5.072 7.232L6.488 7.712C6.648 7.84 6.792 7.944 6.92 8.024C7.064 8.088 7.224 8.128 7.4 8.144C7.576 8.16 7.824 8.176 8.144 8.192C8.48 8.208 8.904 8.232 9.416 8.264C9.56 8.536 9.728 8.776 9.92 8.984C10.112 9.176 10.296 9.432 10.472 9.752L10.952 10.832L10.232 13.232L9.656 13.856L8.48 15.56H7.88C7.672 15.56 7.416 15.568 7.112 15.584C6.824 15.584 6.48 15.584 6.08 15.584C5.68 15.584 5.328 15.624 5.024 15.704C4.72 15.784 4.448 15.872 4.208 15.968C3.968 16.048 3.76 16.12 3.584 16.184C3.408 16.248 3.248 16.272 3.104 16.256L2.24 15.992L0.8 16.232L0.296 15.2L0.44 14.6L1.136 14.216ZM13.2558 20.072V18.776L13.4958 14.912V12.632L13.9038 12.2C13.9518 11.928 13.9518 11.48 13.9038 10.856C13.8718 10.2 13.7358 9.872 13.4958 9.872C13.4958 9.536 13.4238 9.264 13.2798 9.056C13.1358 8.832 13.0638 8.632 13.0638 8.456C13.1758 8.344 13.2638 8.216 13.3278 8.072C13.4078 7.944 13.4718 7.784 13.5198 7.592C13.5838 7.384 13.6158 7.144 13.6158 6.872C13.6158 6.84 13.5678 6.856 13.4718 6.92C13.4398 6.936 13.3998 6.968 13.3518 7.016L13.1598 6.536C13.2398 6.328 13.3198 6.08 13.3998 5.792C13.4798 5.504 13.5438 5.232 13.5918 4.976L14.5038 4.736C14.7918 4.816 15.1278 4.912 15.5118 5.024C15.9918 5.152 16.3838 5.256 16.6878 5.336C17.0078 5.4 17.2478 5.416 17.4078 5.384V6.416L19.0878 5.552L19.7598 5.624C19.9998 5.816 20.2478 5.968 20.5038 6.08C20.7758 6.176 20.9838 6.232 21.1278 6.248C21.2718 6.264 21.4078 6.28 21.5358 6.296C21.6798 6.312 21.7998 6.328 21.8958 6.344C22.0558 6.344 22.2558 6.368 22.4958 6.416C22.7358 6.464 22.9438 6.504 23.1198 6.536L23.4078 6.968C23.5038 7.208 23.5838 7.424 23.6478 7.616C23.7278 7.808 23.7998 7.984 23.8638 8.144C23.9278 8.304 23.9918 8.456 24.0558 8.6C24.1358 8.744 24.2318 8.888 24.3438 9.032C24.3278 9.128 24.3118 9.256 24.2958 9.416C24.2798 9.56 24.2878 9.744 24.3198 9.968C24.3358 10.336 24.4558 10.552 24.6798 10.616L24.6078 11.096C24.3838 11.416 24.1998 11.712 24.0558 11.984C23.9278 12.24 23.8238 12.464 23.7438 12.656C23.6958 12.768 23.6478 12.88 23.5998 12.992C23.5678 13.088 23.5358 13.184 23.5038 13.28C23.3118 13.344 23.0158 13.448 22.6158 13.592C22.2158 13.72 21.7758 13.88 21.2958 14.072C20.3678 14.424 19.8238 14.648 19.6638 14.744C19.5358 14.84 19.4158 14.968 19.3038 15.128L19.0878 15.416C19.0398 15.432 18.9678 15.44 18.8718 15.44C18.7918 15.456 18.7118 15.464 18.6318 15.464C18.5518 15.464 18.4478 15.472 18.3198 15.488C18.0638 15.504 17.8638 15.52 17.7198 15.536C17.5758 15.552 17.4078 15.552 17.2158 15.536L16.8318 16.568V17.288L16.8558 18.272L16.9758 18.512C17.0078 18.592 17.0398 18.68 17.0718 18.776C17.1198 18.872 17.1678 18.96 17.2158 19.04L16.7358 19.952C16.6878 19.968 16.5998 19.992 16.4718 20.024C16.3918 20.04 16.2878 20.04 16.1598 20.024C16.0478 20.024 15.9198 20 15.7758 19.952C15.6158 19.92 15.4718 19.92 15.3438 19.952C15.2158 20 15.0958 20.056 14.9838 20.12C14.8878 20.2 14.7918 20.272 14.6958 20.336C14.6158 20.4 14.5438 20.432 14.4798 20.432C14.3998 20.432 14.3118 20.44 14.2158 20.456C14.1198 20.472 14.0078 20.488 13.8798 20.504L13.2558 20.072ZM20.6958 12.272L21.1278 10.88C21.1278 10.368 21.1358 9.952 21.1518 9.632C21.1678 9.312 21.1598 8.96 21.1278 8.576C21.0638 8.512 20.9838 8.432 20.8878 8.336C20.8078 8.224 20.7198 8.12 20.6238 8.024C20.5438 7.928 20.4638 7.848 20.3838 7.784C20.3198 7.72 20.2798 7.688 20.2638 7.688C20.2318 7.688 20.1598 7.672 20.0478 7.64C19.9518 7.608 19.8398 7.576 19.7118 7.544C19.5838 7.512 19.4558 7.488 19.3278 7.472C19.1998 7.44 19.1038 7.432 19.0398 7.448C19.0238 7.448 18.9918 7.48 18.9438 7.544C18.9118 7.592 18.8638 7.64 18.7998 7.688C18.7518 7.736 18.6798 7.76 18.5838 7.76C18.4878 7.744 18.3758 7.672 18.2478 7.544C18.0718 7.384 17.9358 7.32 17.8398 7.352C17.7438 7.384 17.6638 7.472 17.5998 7.616C17.5358 7.744 17.4798 7.912 17.4318 8.12C17.3838 8.312 17.3278 8.488 17.2638 8.648C17.1998 8.728 17.1518 8.776 17.1198 8.792C17.0878 8.792 17.0718 8.872 17.0718 9.032C17.0718 9.048 17.1118 9.12 17.1918 9.248C17.2718 9.376 17.3518 9.528 17.4318 9.704L17.0718 10.016L16.9758 13.544L17.5518 13.736H18.9678L20.6958 12.272ZM36.9491 8C36.9971 8.272 37.0211 8.512 37.0211 8.72C37.0211 8.912 37.0131 9.104 36.9971 9.296C36.9971 9.472 37.0051 9.648 37.0211 9.824C37.0531 9.984 37.1171 10.16 37.2131 10.352C37.1811 10.416 37.1011 10.544 36.9731 10.736C36.8611 10.912 36.7811 11.096 36.7331 11.288C36.7011 11.464 36.6771 11.6 36.6611 11.696C36.6451 11.792 36.6291 11.856 36.6131 11.888C36.6611 11.92 36.7011 11.984 36.7331 12.08C36.7491 12.16 36.7331 12.264 36.6851 12.392C36.6371 12.504 36.5411 12.664 36.3971 12.872C36.1091 13.256 35.9491 13.584 35.9171 13.856C35.8851 14.112 35.8211 14.312 35.7251 14.456C35.6931 14.488 35.5891 14.536 35.4131 14.6C35.2531 14.664 35.0611 14.744 34.8371 14.84C34.6131 14.92 34.3891 15.016 34.1651 15.128C33.9411 15.24 33.7651 15.352 33.6371 15.464C33.3651 15.512 33.1251 15.576 32.9171 15.656C32.7091 15.736 32.4531 15.792 32.1491 15.824C31.8611 15.888 31.5651 15.968 31.2611 16.064C30.9571 16.144 30.7891 16.184 30.7571 16.184C30.0051 16.184 29.5571 16.208 29.4131 16.256C29.2851 16.304 29.1331 16.328 28.9571 16.328L26.7731 15.536L25.7651 14.072C25.7651 13.688 25.7491 13.368 25.7171 13.112C25.7011 12.84 25.6771 12.608 25.6451 12.416C25.6131 12.208 25.5891 12.016 25.5731 11.84C25.5571 11.664 25.5571 11.464 25.5731 11.24C25.6211 11.192 25.6931 11.08 25.7891 10.904C25.8851 10.712 25.9811 10.496 26.0771 10.256C26.1891 10.016 26.2931 9.768 26.3891 9.512C26.5011 9.256 26.5811 9.04 26.6291 8.864C26.7571 8.496 26.8531 8.176 26.9171 7.904C26.9811 7.616 27.0291 7.36 27.0611 7.136C27.1891 7.056 27.2931 6.968 27.3731 6.872C27.4531 6.776 27.5331 6.696 27.6131 6.632C28.2691 6.248 28.8371 5.936 29.3171 5.696C29.7971 5.44 30.2451 5.28 30.6611 5.216L31.3811 5.168C31.4611 5.184 31.5331 5.2 31.5971 5.216C31.6611 5.232 31.7251 5.248 31.7891 5.264C31.8851 5.296 31.9731 5.32 32.0531 5.336C32.1331 5.336 32.1811 5.336 32.1971 5.336L32.6771 6.08C32.6771 6.224 32.6451 6.344 32.5811 6.44C32.5171 6.52 32.5811 6.576 32.7731 6.608C32.9811 6.656 33.0931 6.688 33.1091 6.704V6.728C33.3651 6.728 33.6291 6.672 33.9011 6.56C34.1731 6.432 34.4451 6.368 34.7171 6.368C34.7811 6.368 34.8931 6.4 35.0531 6.464C35.2131 6.512 35.3811 6.576 35.5571 6.656C35.7331 6.736 35.8931 6.816 36.0371 6.896C36.1971 6.96 36.3091 7.008 36.3731 7.04C36.3411 7.28 36.3491 7.448 36.3971 7.544C36.4451 7.64 36.5091 7.712 36.5891 7.76C36.6691 7.792 36.7411 7.824 36.8051 7.856C36.8851 7.872 36.9331 7.92 36.9491 8ZM32.6531 14C32.8931 13.84 33.1251 13.328 33.3491 12.464C33.4771 12 33.5811 11.656 33.6611 11.432C33.7571 11.192 33.8051 10.968 33.8051 10.76C33.8051 10.408 33.6851 9.992 33.4451 9.512C33.3171 9.256 33.2211 9.04 33.1571 8.864C33.0931 8.688 33.0451 8.512 33.0131 8.336C32.8851 8.272 32.8131 8.176 32.7971 8.048C32.7971 7.904 32.7331 7.76 32.6051 7.616C32.4451 7.488 32.3491 7.44 32.3171 7.472C32.2851 7.504 32.2531 7.52 32.2211 7.52H32.0051C31.8771 7.52 31.7011 7.544 31.4771 7.592C31.2691 7.64 31.1011 7.752 30.9731 7.928C30.7811 8.136 30.6131 8.304 30.4691 8.432C30.3411 8.544 30.2691 8.616 30.2531 8.648C30.0931 8.952 29.9491 9.216 29.8211 9.44C29.6931 9.648 29.5891 9.816 29.5091 9.944L29.2931 10.448C29.1971 10.688 29.1571 11.008 29.1731 11.408C29.2051 11.472 29.2371 11.616 29.2691 11.84C29.3011 12.048 29.2051 12.272 28.9811 12.512C28.9331 12.56 28.8851 12.656 28.8371 12.8C28.7891 12.928 28.7571 13.08 28.7411 13.256C28.7251 13.432 28.7411 13.608 28.7891 13.784C28.8531 13.96 28.9731 14.112 29.1491 14.24C29.3731 14.4 29.6051 14.56 29.8451 14.72C30.0851 14.864 30.2371 14.936 30.3011 14.936H30.5651C30.6611 14.936 30.7491 14.96 30.8291 15.008L32.6531 14ZM48.0161 5.72V6.824H47.3921L46.4801 7.544C45.6961 7.656 45.0561 7.816 44.5601 8.024C44.0641 8.216 43.8321 8.488 43.8641 8.84C43.8321 8.92 43.8161 9.016 43.8161 9.128C43.8161 9.224 43.8721 9.272 43.9841 9.272L43.5041 11.672L43.2881 11.936V14.6L43.1441 15.944L42.6641 16.424L39.9281 16.232L39.3281 15.416L39.4961 14.984L39.4001 13.664L39.6881 11.24L39.9281 9.464C39.9281 9.416 39.9361 9.376 39.9521 9.344C39.9521 9.312 39.9521 9.272 39.9521 9.224C39.9681 9.176 39.9761 9.136 39.9761 9.104C40.0561 9.04 40.1041 8.896 40.1201 8.672C40.1521 8.448 40.1601 8.304 40.1441 8.24C40.1441 8.128 40.1361 8.024 40.1201 7.928C40.1201 7.832 40.0881 7.624 40.0241 7.304C40.0081 7.208 39.9521 7.096 39.8561 6.968C39.7761 6.824 39.6881 6.696 39.5921 6.584L39.9041 5.84H40.3601L42.8321 5.384L43.4321 5.672C43.3841 5.944 43.3761 6.176 43.4081 6.368C43.4561 6.544 43.5201 6.68 43.6001 6.776C43.6961 6.872 43.8001 6.936 43.9121 6.968C44.0241 6.984 44.1201 6.968 44.2001 6.92L44.6321 6.68C44.7121 6.648 44.7361 6.56 44.7041 6.416C44.6881 6.272 44.6961 6.088 44.7281 5.864L47.7041 5.336L48.0161 5.72ZM58.7041 10.76C58.3521 10.712 58.0401 10.776 57.7681 10.952C57.6721 11 57.5761 11.048 57.4801 11.096C57.3841 11.128 57.2881 11.16 57.1921 11.192C57.1441 11.208 57.0961 11.224 57.0481 11.24C57.0001 11.256 56.9601 11.272 56.9281 11.288L53.5921 12.296C52.6641 12.088 52.3361 12.24 52.6081 12.752C52.6561 12.864 52.7201 13.032 52.8001 13.256C52.8801 13.48 52.9441 13.64 52.9921 13.736C53.2001 13.816 53.4161 13.944 53.6401 14.12C53.8641 14.28 54.0721 14.376 54.2641 14.408L54.6961 14.36C54.8081 14.36 54.9601 14.352 55.1521 14.336C55.3601 14.32 55.5601 14.296 55.7521 14.264C55.9601 14.216 56.1441 14.16 56.3041 14.096C56.4801 14.032 56.6001 13.952 56.6641 13.856C56.7121 13.776 56.7841 13.72 56.8801 13.688C56.9761 13.64 57.0721 13.6 57.1681 13.568C57.2321 13.552 57.2881 13.544 57.3361 13.544C57.4001 13.528 57.4721 13.512 57.5521 13.496L57.8161 14.432L57.5281 14.984C57.5121 15.016 57.4561 15.056 57.3601 15.104C57.2801 15.136 57.1841 15.184 57.0721 15.248C56.9601 15.312 56.8481 15.376 56.7361 15.44C56.6401 15.488 56.5681 15.536 56.5201 15.584C56.4881 15.616 56.4001 15.632 56.2561 15.632C56.1281 15.632 55.9761 15.632 55.8001 15.632C55.6401 15.632 55.4721 15.64 55.2961 15.656C55.1201 15.672 54.9841 15.704 54.8881 15.752C54.6641 15.864 54.4881 15.936 54.3601 15.968C54.2481 16 54.1521 16.024 54.0721 16.04C53.9921 16.072 53.9361 16.064 53.9041 16.016C53.8721 16 53.8161 15.992 53.7361 15.992C53.6881 15.992 53.6241 15.992 53.5441 15.992C53.4641 15.992 53.3841 15.984 53.3041 15.968C53.0961 15.952 52.9281 15.944 52.8001 15.944C52.6721 15.928 52.5921 15.92 52.5601 15.92L50.2561 14.792C50.2081 14.312 49.9841 14.072 49.5841 14.072C49.5041 14.072 49.4081 14.008 49.2961 13.88C49.1841 13.736 49.0881 13.584 49.0081 13.424C48.9441 13.344 48.8881 13.256 48.8401 13.16C48.7921 13.048 48.7441 12.928 48.6961 12.8L48.4801 10.064L48.6961 8.456C48.7121 8.392 48.7601 8.312 48.8401 8.216C48.9361 8.056 49.0561 7.816 49.2001 7.496C49.2641 7.352 49.3921 7.216 49.5841 7.088C49.7761 6.96 49.9761 6.848 50.1841 6.752C50.4081 6.64 50.6161 6.544 50.8081 6.464C51.0161 6.368 51.1681 6.288 51.2641 6.224C51.4561 6.256 51.7361 6.048 52.1041 5.6C52.2001 5.488 52.3201 5.4 52.4641 5.336C52.6081 5.256 52.7521 5.192 52.8961 5.144C52.9761 5.112 53.0641 5.088 53.1601 5.072C53.2561 5.056 53.3441 5.04 53.4241 5.024L56.2321 5.384C56.3921 5.416 56.5601 5.464 56.7361 5.528C56.8641 5.592 56.9921 5.672 57.1201 5.768C57.2481 5.864 57.3521 5.976 57.4321 6.104C57.5441 6.376 57.7041 6.6 57.9121 6.776C58.1201 6.936 58.2881 7.048 58.4161 7.112L59.3041 8.696L59.1121 10.256L58.7041 10.76ZM55.1521 9.944L55.3441 9.8C55.3921 9.768 55.4401 9.736 55.4881 9.704C55.5361 9.656 55.5761 9.624 55.6081 9.608C55.7201 9.576 55.8481 9.512 55.9921 9.416C56.1361 9.32 56.1921 9.2 56.1601 9.056C56.1601 8.784 56.0161 8.48 55.7281 8.144C55.4401 7.808 55.0641 7.568 54.6001 7.424C54.3761 7.344 54.1601 7.304 53.9521 7.304C53.7441 7.304 53.5441 7.32 53.3521 7.352C53.1761 7.368 53.0081 7.392 52.8481 7.424C52.7041 7.456 52.5841 7.472 52.4881 7.472C52.1201 7.392 51.9121 7.56 51.8641 7.976C51.6241 8.344 51.5041 8.752 51.5041 9.2C51.5201 9.632 51.5681 10.048 51.6481 10.448C51.6481 10.672 51.6881 10.856 51.7681 11C51.8641 11.144 51.9761 11.232 52.1041 11.264C52.2321 11.296 52.3601 11.272 52.4881 11.192C52.6321 11.096 52.7521 10.928 52.8481 10.688L55.1521 9.944ZM66.6748 15.536V14.96C66.6748 14.784 66.6588 14.616 66.6268 14.456C66.7068 14.312 66.7148 13.88 66.6508 13.16C66.6188 12.776 66.5868 12.464 66.5548 12.224C66.5388 11.984 66.5308 11.816 66.5308 11.72V11.528C66.5308 11.464 66.5308 11.4 66.5308 11.336C66.5468 11.256 66.5628 11.176 66.5788 11.096C66.5948 10.728 66.6188 10.48 66.6508 10.352C66.6668 10.304 66.7068 10.24 66.7708 10.16C66.8348 10.064 66.8668 9.968 66.8668 9.872C66.8668 9.152 66.8988 8.384 66.9628 7.568C67.0428 6.736 67.0908 5.96 67.1068 5.24C67.1228 4.68 67.1308 4.232 67.1308 3.896C67.1308 3.56 67.1388 3.352 67.1548 3.272C67.1708 3.064 67.1708 2.84 67.1548 2.6C67.1548 2.344 67.1548 2.104 67.1548 1.88C67.1548 1.832 67.1468 1.8 67.1308 1.784L67.7548 1.28H69.8428C70.0668 1.248 70.2268 1.24 70.3228 1.256C70.4188 1.272 70.4828 1.296 70.5148 1.328L71.0428 1.712C71.1868 1.888 71.3068 1.992 71.4028 2.024C71.5148 2.04 71.6028 2.016 71.6668 1.952C71.7468 1.872 71.8188 1.776 71.8828 1.664C71.9468 1.536 72.0108 1.416 72.0748 1.304L73.3468 1.376L75.2428 2.168C75.3068 2.232 75.3628 2.296 75.4108 2.36C75.4588 2.408 75.5068 2.448 75.5548 2.48C75.6348 2.56 75.7068 2.632 75.7708 2.696C75.8508 2.76 75.9068 2.792 75.9388 2.792C75.9708 2.792 76.1228 2.832 76.3948 2.912C76.6828 2.992 76.9388 3.216 77.1628 3.584C77.3388 3.584 77.5148 3.64 77.6908 3.752C77.8828 3.864 78.0428 3.992 78.1708 4.136C78.2988 4.264 78.3948 4.392 78.4588 4.52C78.5388 4.632 78.5628 4.696 78.5308 4.712C78.2588 4.968 78.1708 5.192 78.2668 5.384C78.3788 5.576 78.5388 5.712 78.7468 5.792C78.8108 6.064 78.9388 6.256 79.1308 6.368C79.3228 6.464 79.4668 6.536 79.5628 6.584C79.5628 6.632 79.5788 6.88 79.6108 7.328C79.6428 7.76 79.6908 8.392 79.7548 9.224C79.7868 9.64 79.8188 10.008 79.8508 10.328C79.8828 10.632 79.9148 10.888 79.9468 11.096C79.9788 11.224 80.0028 11.344 80.0188 11.456C80.0348 11.552 80.0508 11.64 80.0668 11.72C80.0828 11.8 79.8108 12.256 79.2508 13.088C78.6748 13.888 78.3868 14.424 78.3868 14.696H77.1148C77.0508 14.696 76.9708 14.728 76.8748 14.792C76.7788 14.84 76.6828 14.896 76.5868 14.96L76.2028 15.2C76.1548 15.216 76.1068 15.224 76.0588 15.224C76.0108 15.224 75.9548 15.232 75.8908 15.248C75.7948 15.264 75.6668 15.28 75.5068 15.296C75.3628 15.312 75.1948 15.336 75.0028 15.368C74.6028 15.448 74.2668 15.496 73.9948 15.512C73.7228 15.528 73.4988 15.52 73.3228 15.488C73.3068 15.28 72.7628 15.344 71.6908 15.68C71.4188 15.76 71.1388 15.832 70.8508 15.896C70.5628 15.944 70.2988 15.984 70.0588 16.016C69.9148 16.048 69.7708 16.072 69.6268 16.088C69.4988 16.104 69.3708 16.12 69.2428 16.136L68.7148 16.016C68.6188 16.032 68.5228 16.056 68.4268 16.088C68.3308 16.104 68.2668 16.112 68.2348 16.112C68.1868 16.112 68.1148 16.096 68.0188 16.064C67.9388 16.032 67.8668 16.016 67.8028 16.016C67.7708 16.016 67.6988 16.024 67.5868 16.04C67.4908 16.04 67.4268 16.056 67.3948 16.088L66.6748 15.536ZM71.3308 14.624C71.4908 14.56 71.6588 14.472 71.8348 14.36C72.0268 14.232 72.1868 14.192 72.3148 14.24H72.9868C73.0188 14.24 73.0908 14.2 73.2028 14.12C73.3148 14.024 73.3948 13.976 73.4428 13.976C73.5068 13.976 73.5388 14.008 73.5388 14.072C73.5388 14.12 73.6268 14.144 73.8028 14.144C73.8668 14.144 74.0188 14.112 74.2588 14.048C74.4988 13.968 74.7548 13.864 75.0268 13.736C75.3148 13.608 75.5388 13.512 75.6988 13.448C75.8748 13.384 75.9788 13.344 76.0108 13.328C76.0268 13.296 76.0348 13.256 76.0348 13.208C76.0508 13.16 76.0748 13.104 76.1068 13.04C76.1388 12.944 76.1708 12.832 76.2028 12.704C76.2508 12.576 76.3148 12.424 76.3948 12.248C76.5068 11.864 76.5948 11.568 76.6588 11.36C76.7228 11.152 76.7548 11.008 76.7548 10.928L75.9868 8.096C75.9868 7.984 75.9948 7.896 76.0108 7.832C76.0108 7.752 76.0108 7.656 76.0108 7.544C76.0268 7.416 76.0428 7.264 76.0588 7.088C76.1228 6.4 76.1628 6.056 76.1788 6.056C76.1628 6.04 76.1068 5.952 76.0108 5.792C75.9308 5.632 75.8108 5.416 75.6508 5.144C75.4908 4.856 75.3548 4.56 75.2428 4.256C75.1468 3.936 75.0668 3.776 75.0028 3.776L73.1068 2.552H71.3068C71.3068 2.744 71.2668 2.856 71.1868 2.888C71.1068 2.904 71.0668 2.928 71.0668 2.96V3.392C71.0668 3.52 71.0668 3.672 71.0668 3.848C71.0668 4.024 71.0588 4.224 71.0428 4.448V6.032C70.7708 6.176 70.6188 6.344 70.5868 6.536C70.5868 6.68 70.5148 6.904 70.3708 7.208C70.3388 7.24 70.3228 7.296 70.3228 7.376C70.3228 7.6 70.3228 7.76 70.3228 7.856C70.3388 7.936 70.3228 8.08 70.2748 8.288C70.2428 8.32 70.2748 8.6 70.3708 9.128C70.4668 9.688 70.5228 9.976 70.5388 9.992C70.5228 10.072 70.4988 10.184 70.4668 10.328C70.4508 10.472 70.4188 10.64 70.3708 10.832C70.3228 11.024 70.2908 11.168 70.2748 11.264C70.2588 11.36 70.2508 11.424 70.2508 11.456C70.2508 11.648 70.2748 11.992 70.3228 12.488C70.3388 12.744 70.3468 12.968 70.3468 13.16C70.3628 13.336 70.3708 13.464 70.3708 13.544C70.4028 13.672 70.4268 13.8 70.4428 13.928C70.4748 14.056 70.5068 14.192 70.5388 14.336L71.3308 14.624ZM91.2785 10.76C90.9265 10.712 90.6145 10.776 90.3425 10.952C90.2465 11 90.1505 11.048 90.0545 11.096C89.9585 11.128 89.8625 11.16 89.7665 11.192C89.7185 11.208 89.6705 11.224 89.6225 11.24C89.5745 11.256 89.5345 11.272 89.5025 11.288L86.1665 12.296C85.2385 12.088 84.9105 12.24 85.1825 12.752C85.2305 12.864 85.2945 13.032 85.3745 13.256C85.4545 13.48 85.5185 13.64 85.5665 13.736C85.7745 13.816 85.9905 13.944 86.2145 14.12C86.4385 14.28 86.6465 14.376 86.8385 14.408L87.2705 14.36C87.3825 14.36 87.5345 14.352 87.7265 14.336C87.9345 14.32 88.1345 14.296 88.3265 14.264C88.5345 14.216 88.7185 14.16 88.8785 14.096C89.0545 14.032 89.1745 13.952 89.2385 13.856C89.2865 13.776 89.3585 13.72 89.4545 13.688C89.5505 13.64 89.6465 13.6 89.7425 13.568C89.8065 13.552 89.8625 13.544 89.9105 13.544C89.9745 13.528 90.0465 13.512 90.1265 13.496L90.3905 14.432L90.1025 14.984C90.0865 15.016 90.0305 15.056 89.9345 15.104C89.8545 15.136 89.7585 15.184 89.6465 15.248C89.5345 15.312 89.4225 15.376 89.3105 15.44C89.2145 15.488 89.1425 15.536 89.0945 15.584C89.0625 15.616 88.9745 15.632 88.8305 15.632C88.7025 15.632 88.5505 15.632 88.3745 15.632C88.2145 15.632 88.0465 15.64 87.8705 15.656C87.6945 15.672 87.5585 15.704 87.4625 15.752C87.2385 15.864 87.0625 15.936 86.9345 15.968C86.8225 16 86.7265 16.024 86.6465 16.04C86.5665 16.072 86.5105 16.064 86.4785 16.016C86.4465 16 86.3905 15.992 86.3105 15.992C86.2625 15.992 86.1985 15.992 86.1185 15.992C86.0385 15.992 85.9585 15.984 85.8785 15.968C85.6705 15.952 85.5025 15.944 85.3745 15.944C85.2465 15.928 85.1665 15.92 85.1345 15.92L82.8305 14.792C82.7825 14.312 82.5585 14.072 82.1585 14.072C82.0785 14.072 81.9825 14.008 81.8705 13.88C81.7585 13.736 81.6625 13.584 81.5825 13.424C81.5185 13.344 81.4625 13.256 81.4145 13.16C81.3665 13.048 81.3185 12.928 81.2705 12.8L81.0545 10.064L81.2705 8.456C81.2865 8.392 81.3345 8.312 81.4145 8.216C81.5105 8.056 81.6305 7.816 81.7745 7.496C81.8385 7.352 81.9665 7.216 82.1585 7.088C82.3505 6.96 82.5505 6.848 82.7585 6.752C82.9825 6.64 83.1905 6.544 83.3825 6.464C83.5905 6.368 83.7425 6.288 83.8385 6.224C84.0305 6.256 84.3105 6.048 84.6785 5.6C84.7745 5.488 84.8945 5.4 85.0385 5.336C85.1825 5.256 85.3265 5.192 85.4705 5.144C85.5505 5.112 85.6385 5.088 85.7345 5.072C85.8305 5.056 85.9185 5.04 85.9985 5.024L88.8065 5.384C88.9665 5.416 89.1345 5.464 89.3105 5.528C89.4385 5.592 89.5665 5.672 89.6945 5.768C89.8225 5.864 89.9265 5.976 90.0065 6.104C90.1185 6.376 90.2785 6.6 90.4865 6.776C90.6945 6.936 90.8625 7.048 90.9905 7.112L91.8785 8.696L91.6865 10.256L91.2785 10.76ZM87.7265 9.944L87.9185 9.8C87.9665 9.768 88.0145 9.736 88.0625 9.704C88.1105 9.656 88.1505 9.624 88.1825 9.608C88.2945 9.576 88.4225 9.512 88.5665 9.416C88.7105 9.32 88.7665 9.2 88.7345 9.056C88.7345 8.784 88.5905 8.48 88.3025 8.144C88.0145 7.808 87.6385 7.568 87.1745 7.424C86.9505 7.344 86.7345 7.304 86.5265 7.304C86.3185 7.304 86.1185 7.32 85.9265 7.352C85.7505 7.368 85.5825 7.392 85.4225 7.424C85.2785 7.456 85.1585 7.472 85.0625 7.472C84.6945 7.392 84.4865 7.56 84.4385 7.976C84.1985 8.344 84.0785 8.752 84.0785 9.2C84.0945 9.632 84.1425 10.048 84.2225 10.448C84.2225 10.672 84.2625 10.856 84.3425 11C84.4385 11.144 84.5505 11.232 84.6785 11.264C84.8065 11.296 84.9345 11.272 85.0625 11.192C85.2065 11.096 85.3265 10.928 85.4225 10.688L87.7265 9.944ZM109.419 15.608L108.075 16.016L106.323 16.232L106.155 15.824L106.515 14.432L106.947 13.16L107.067 8.624L106.491 7.544H105.795L104.691 8.36H104.427C104.251 8.36 104.139 8.464 104.091 8.672C104.059 8.864 104.059 9.088 104.091 9.344C103.947 9.392 103.843 9.632 103.779 10.064L103.683 10.736L103.659 12.2L103.227 14.12L103.395 15.08L103.179 15.944L102.963 16.16L100.299 16.352L99.7466 15.848L99.9146 14.912L100.251 12.44C100.315 12.152 100.371 11.824 100.419 11.456C100.483 11.088 100.531 10.72 100.563 10.352C100.595 9.968 100.611 9.608 100.611 9.272C100.627 8.92 100.627 8.632 100.611 8.408C100.579 8.232 100.579 8.088 100.611 7.976C100.643 7.848 100.651 7.752 100.635 7.688L100.179 7.256L98.6906 7.496L98.2106 7.088C97.8266 6.864 97.6266 7 97.6106 7.496C97.5146 7.64 97.4266 7.76 97.3466 7.856C97.2826 7.936 97.2426 8.064 97.2266 8.24C97.1466 8.272 97.0826 8.312 97.0346 8.36C96.9706 8.424 96.9066 8.52 96.8426 8.648C96.7786 8.776 96.7306 8.96 96.6986 9.2C96.6346 9.664 96.6026 10.056 96.6026 10.376C96.6026 10.696 96.6426 10.92 96.7226 11.048V11.48L96.3146 12.44L96.1946 14.144L95.9786 15.8L95.7866 16.016L92.8826 16.256L92.4026 15.824L92.5466 14.912L92.6906 13.664L92.7866 11.84C92.7866 11.536 92.8266 11.248 92.9066 10.976C92.9866 10.704 93.0586 10.4 93.1226 10.064L93.3626 8.168C93.4746 8.056 93.5946 7.856 93.7226 7.568C93.8666 7.28 93.9386 7 93.9386 6.728C93.9386 6.648 93.9226 6.592 93.8906 6.56C93.8746 6.512 93.8506 6.456 93.8186 6.392L94.1786 5.912C94.2106 5.912 94.2826 5.92 94.3946 5.936C94.5066 5.936 94.6346 5.936 94.7786 5.936C94.9386 5.92 95.0986 5.912 95.2586 5.912C95.4186 5.896 95.5706 5.872 95.7146 5.84C96.2906 5.76 96.6506 5.64 96.7946 5.48L97.7066 5.432L97.6106 6.344C97.7546 6.488 97.9066 6.576 98.0666 6.608C98.2426 6.624 98.4186 6.6 98.5946 6.536C98.7706 6.456 98.9386 6.344 99.0986 6.2C99.2586 6.04 99.3946 5.856 99.5066 5.648L100.875 5.672C101.051 5.656 101.219 5.648 101.379 5.648C101.555 5.632 101.723 5.624 101.883 5.624C102.139 5.624 102.379 5.648 102.603 5.696C102.827 5.728 102.955 5.784 102.987 5.864C103.051 6.152 103.187 6.264 103.395 6.2C103.427 6.184 103.483 6.24 103.563 6.368C103.659 6.48 103.803 6.552 103.995 6.584C104.091 6.616 104.155 6.672 104.187 6.752C104.235 6.816 104.267 6.888 104.283 6.968C104.299 7.048 104.315 7.12 104.331 7.184C104.347 7.232 104.379 7.256 104.427 7.256L105.819 6.152L108.051 5.792L110.091 7.424L110.139 7.76C110.139 7.856 110.131 7.952 110.115 8.048C110.115 8.128 110.091 8.192 110.043 8.24V10.4L110.067 12.704L109.635 15.368L109.419 15.608ZM123.245 8C123.293 8.272 123.317 8.512 123.317 8.72C123.317 8.912 123.309 9.104 123.293 9.296C123.293 9.472 123.301 9.648 123.317 9.824C123.349 9.984 123.413 10.16 123.509 10.352C123.477 10.416 123.397 10.544 123.269 10.736C123.157 10.912 123.077 11.096 123.029 11.288C122.997 11.464 122.973 11.6 122.957 11.696C122.941 11.792 122.925 11.856 122.909 11.888C122.957 11.92 122.997 11.984 123.029 12.08C123.045 12.16 123.029 12.264 122.981 12.392C122.933 12.504 122.837 12.664 122.693 12.872C122.405 13.256 122.245 13.584 122.213 13.856C122.181 14.112 122.117 14.312 122.021 14.456C121.989 14.488 121.885 14.536 121.709 14.6C121.549 14.664 121.357 14.744 121.133 14.84C120.909 14.92 120.685 15.016 120.461 15.128C120.237 15.24 120.061 15.352 119.933 15.464C119.661 15.512 119.421 15.576 119.213 15.656C119.005 15.736 118.749 15.792 118.445 15.824C118.157 15.888 117.861 15.968 117.557 16.064C117.253 16.144 117.085 16.184 117.053 16.184C116.301 16.184 115.853 16.208 115.709 16.256C115.581 16.304 115.429 16.328 115.253 16.328L113.069 15.536L112.061 14.072C112.061 13.688 112.045 13.368 112.013 13.112C111.997 12.84 111.973 12.608 111.941 12.416C111.909 12.208 111.885 12.016 111.869 11.84C111.853 11.664 111.853 11.464 111.869 11.24C111.917 11.192 111.989 11.08 112.085 10.904C112.181 10.712 112.277 10.496 112.373 10.256C112.485 10.016 112.589 9.768 112.685 9.512C112.797 9.256 112.877 9.04 112.925 8.864C113.053 8.496 113.149 8.176 113.213 7.904C113.277 7.616 113.325 7.36 113.357 7.136C113.485 7.056 113.589 6.968 113.669 6.872C113.749 6.776 113.829 6.696 113.909 6.632C114.565 6.248 115.133 5.936 115.613 5.696C116.093 5.44 116.541 5.28 116.957 5.216L117.677 5.168C117.757 5.184 117.829 5.2 117.893 5.216C117.957 5.232 118.021 5.248 118.085 5.264C118.181 5.296 118.269 5.32 118.349 5.336C118.429 5.336 118.477 5.336 118.493 5.336L118.973 6.08C118.973 6.224 118.941 6.344 118.877 6.44C118.813 6.52 118.877 6.576 119.069 6.608C119.277 6.656 119.389 6.688 119.405 6.704V6.728C119.661 6.728 119.925 6.672 120.197 6.56C120.469 6.432 120.741 6.368 121.013 6.368C121.077 6.368 121.189 6.4 121.349 6.464C121.509 6.512 121.677 6.576 121.853 6.656C122.029 6.736 122.189 6.816 122.333 6.896C122.493 6.96 122.605 7.008 122.669 7.04C122.637 7.28 122.645 7.448 122.693 7.544C122.741 7.64 122.805 7.712 122.885 7.76C122.965 7.792 123.037 7.824 123.101 7.856C123.181 7.872 123.229 7.92 123.245 8ZM118.949 14C119.189 13.84 119.421 13.328 119.645 12.464C119.773 12 119.877 11.656 119.957 11.432C120.053 11.192 120.101 10.968 120.101 10.76C120.101 10.408 119.981 9.992 119.741 9.512C119.613 9.256 119.517 9.04 119.453 8.864C119.389 8.688 119.341 8.512 119.309 8.336C119.181 8.272 119.109 8.176 119.093 8.048C119.093 7.904 119.029 7.76 118.901 7.616C118.741 7.488 118.645 7.44 118.613 7.472C118.581 7.504 118.549 7.52 118.517 7.52H118.301C118.173 7.52 117.997 7.544 117.773 7.592C117.565 7.64 117.397 7.752 117.269 7.928C117.077 8.136 116.909 8.304 116.765 8.432C116.637 8.544 116.565 8.616 116.549 8.648C116.389 8.952 116.245 9.216 116.117 9.44C115.989 9.648 115.885 9.816 115.805 9.944L115.589 10.448C115.493 10.688 115.453 11.008 115.469 11.408C115.501 11.472 115.533 11.616 115.565 11.84C115.597 12.048 115.501 12.272 115.277 12.512C115.229 12.56 115.181 12.656 115.133 12.8C115.085 12.928 115.053 13.08 115.037 13.256C115.021 13.432 115.037 13.608 115.085 13.784C115.149 13.96 115.269 14.112 115.445 14.24C115.669 14.4 115.901 14.56 116.141 14.72C116.381 14.864 116.533 14.936 116.597 14.936H116.861C116.957 14.936 117.045 14.96 117.125 15.008L118.949 14Z" fill="#1A202C"/>
</svg>
