<svg width="24" height="24" viewBox="0 0 24 24" fill="none" xmlns="http://www.w3.org/2000/svg">
<g id="arrow-return-left">
<path id="Vector" fill-rule="evenodd" clip-rule="evenodd" d="M21.7494 2.25C21.9483 2.25 22.1391 2.32902 22.2797 2.46967C22.4204 2.61032 22.4994 2.80109 22.4994 3V10.2C22.4994 10.6925 22.4024 11.1801 22.2139 11.6351C22.0255 12.09 21.7493 12.5034 21.401 12.8517C21.0528 13.1999 20.6394 13.4761 20.1845 13.6645C19.7295 13.853 19.2418 13.95 18.7494 13.95H4.05989L9.08039 18.969C9.22122 19.1098 9.30033 19.3008 9.30033 19.5C9.30033 19.6992 9.22122 19.8902 9.08039 20.031C8.93956 20.1718 8.74855 20.2509 8.54939 20.2509C8.35022 20.2509 8.15922 20.1718 8.01839 20.031L1.71839 13.731C1.64854 13.6613 1.59313 13.5786 1.55532 13.4874C1.51751 13.3963 1.49805 13.2987 1.49805 13.2C1.49805 13.1013 1.51751 13.0037 1.55532 12.9125C1.59313 12.8214 1.64854 12.7387 1.71839 12.669L7.71839 6.669C7.85922 6.52817 8.05022 6.44905 8.24939 6.44905C8.44855 6.44905 8.63956 6.52817 8.78039 6.669C8.92122 6.80983 9.00033 7.00084 9.00033 7.2C9.00033 7.39916 8.92122 7.59017 8.78039 7.731L4.05989 12.45H18.7494C19.3461 12.45 19.9184 12.2129 20.3404 11.791C20.7623 11.369 20.9994 10.7967 20.9994 10.2V3C20.9994 2.80109 21.0784 2.61032 21.2191 2.46967C21.3597 2.32902 21.5505 2.25 21.7494 2.25Z" fill="#6D57CB"/>
</g>
</svg>
