<svg width="22" height="23" viewBox="0 0 22 23" fill="none" xmlns="http://www.w3.org/2000/svg">
<path fill-rule="evenodd" clip-rule="evenodd" d="M10.5528 0.605573C10.8343 0.464809 11.1657 0.464809 11.4472 0.605573L21.4472 5.60557C21.786 5.77496 22 6.12123 22 6.5C22 6.87877 21.786 7.22504 21.4472 7.39443L11.4472 12.3944C11.1657 12.5352 10.8343 12.5352 10.5528 12.3944L0.552761 7.39443C0.213977 7.22504 -2.50925e-05 6.87877 -2.50925e-05 6.5C-2.50925e-05 6.12123 0.213977 5.77496 0.552761 5.60557L10.5528 0.605573ZM3.23604 6.5L11 10.382L18.7639 6.5L11 2.61803L3.23604 6.5Z" fill="#5D626B"/>
<path d="M0.105548 16.0528C0.352537 15.5588 0.95321 15.3586 1.44719 15.6056L11 20.382L20.5528 15.6056C21.0467 15.3586 21.6474 15.5588 21.8944 16.0528C22.1414 16.5468 21.9412 17.1474 21.4472 17.3944L11.4472 22.3944C11.1657 22.5352 10.8343 22.5352 10.5528 22.3944L0.552761 17.3944C0.0587828 17.1474 -0.141442 16.5468 0.105548 16.0528Z" fill="#5D626B"/>
<path d="M1.44719 10.6056C0.95321 10.3586 0.352537 10.5588 0.105548 11.0528C-0.141442 11.5468 0.0587828 12.1474 0.552761 12.3944L10.5528 17.3944C10.8343 17.5352 11.1657 17.5352 11.4472 17.3944L21.4472 12.3944C21.9412 12.1474 22.1414 11.5468 21.8944 11.0528C21.6474 10.5588 21.0467 10.3586 20.5528 10.6056L11 15.382L1.44719 10.6056Z" fill="#5D626B"/>
</svg>
