<svg width="24" height="25" viewBox="0 0 24 25" fill="none" xmlns="http://www.w3.org/2000/svg">
<g id="icon-trash-2">
<g id="Shape">
<path d="M10 10.5C10.5523 10.5 11 10.9477 11 11.5V17.5C11 18.0523 10.5523 18.5 10 18.5C9.44772 18.5 9 18.0523 9 17.5V11.5C9 10.9477 9.44772 10.5 10 10.5Z" fill="#BB4747"/>
<path d="M15 17.5V11.5C15 10.9477 14.5523 10.5 14 10.5C13.4477 10.5 13 10.9477 13 11.5V17.5C13 18.0523 13.4477 18.5 14 18.5C14.5523 18.5 15 18.0523 15 17.5Z" fill="#BB4747"/>
<path fill-rule="evenodd" clip-rule="evenodd" d="M7 5.5V4.5C7 3.70435 7.31607 2.94129 7.87868 2.37868C8.44129 1.81607 9.20435 1.5 10 1.5H14C14.7956 1.5 15.5587 1.81607 16.1213 2.37868C16.6839 2.94129 17 3.70435 17 4.5V5.5H21C21.5523 5.5 22 5.94772 22 6.5C22 7.05228 21.5523 7.5 21 7.5H20V20.5C20 21.2957 19.6839 22.0587 19.1213 22.6213C18.5587 23.1839 17.7957 23.5 17 23.5H7C6.20435 23.5 5.44129 23.1839 4.87868 22.6213C4.31607 22.0587 4 21.2957 4 20.5V7.5H3C2.44772 7.5 2 7.05228 2 6.5C2 5.94772 2.44772 5.5 3 5.5H7ZM9.29289 3.79289C9.48043 3.60536 9.73478 3.5 10 3.5H14C14.2652 3.5 14.5196 3.60536 14.7071 3.79289C14.8946 3.98043 15 4.23478 15 4.5V5.5H9V4.5C9 4.23478 9.10536 3.98043 9.29289 3.79289ZM6 7.5V20.5C6 20.7652 6.10536 21.0196 6.29289 21.2071C6.48043 21.3946 6.73478 21.5 7 21.5H17C17.2652 21.5 17.5196 21.3946 17.7071 21.2071C17.8946 21.0196 18 20.7652 18 20.5V7.5H6Z" fill="#BB4747"/>
</g>
</g>
</svg>
