<svg width="18" height="18" viewBox="0 0 18 18" fill="none" xmlns="http://www.w3.org/2000/svg">
<g id="icon-repeat">
<g id="Shape">
<path d="M12.4714 1.19526C12.2111 0.934913 11.7889 0.934913 11.5286 1.19526C11.2682 1.45561 11.2682 1.87772 11.5286 2.13807L13.0572 3.66667H5.33333C4.44928 3.66667 3.60143 4.01786 2.97631 4.64298C2.35119 5.2681 2 6.11595 2 7V8.33333C2 8.70152 2.29848 9 2.66667 9C3.03486 9 3.33333 8.70152 3.33333 8.33333V7C3.33333 6.46957 3.54405 5.96086 3.91912 5.58579C4.29419 5.21071 4.8029 5 5.33333 5H13.0572L11.5286 6.5286C11.2682 6.78895 11.2682 7.21106 11.5286 7.4714C11.7889 7.73175 12.2111 7.73175 12.4714 7.4714L15.1381 4.80474C15.3984 4.54439 15.3984 4.12228 15.1381 3.86193L12.4714 1.19526Z" fill="#1A202C"/>
<path d="M5.80474 10.5286C6.06509 10.7889 6.06509 11.2111 5.80474 11.4714L4.27614 13H12C12.5304 13 13.0391 12.7893 13.4142 12.4142C13.7893 12.0391 14 11.5304 14 11V9.66667C14 9.29848 14.2985 9 14.6667 9C15.0349 9 15.3333 9.29848 15.3333 9.66667V11C15.3333 11.8841 14.9821 12.7319 14.357 13.357C13.7319 13.9821 12.8841 14.3333 12 14.3333H4.27614L5.80474 15.8619C6.06509 16.1223 6.06509 16.5444 5.80474 16.8047C5.54439 17.0651 5.12228 17.0651 4.86193 16.8047L2.19526 14.1381C1.93491 13.8777 1.93491 13.4556 2.19526 13.1953L4.86193 10.5286C5.12228 10.2682 5.54439 10.2682 5.80474 10.5286Z" fill="#1A202C"/>
</g>
</g>
</svg>
