<svg width="24" height="25" viewBox="0 0 24 25" fill="none" xmlns="http://www.w3.org/2000/svg">
<g id="Global">
<path id="Vector" d="M19.6429 18.9487C19.6473 18.942 19.654 18.9353 19.6585 18.9286C21.1205 17.1897 22 14.9487 22 12.5C22 10.0513 21.1205 7.81027 19.6607 6.07143C19.6562 6.06473 19.6496 6.06027 19.6451 6.05357C19.6205 6.02455 19.5982 5.99777 19.5737 5.97098C19.5647 5.95982 19.5558 5.95089 19.5469 5.93973L19.4554 5.83482L19.4531 5.83259C19.4196 5.79464 19.3839 5.7567 19.3504 5.71875L19.3482 5.71652C19.2768 5.64063 19.2054 5.56473 19.1317 5.49107L19.1295 5.48884L19.0223 5.3817L19.0156 5.375C18.9821 5.34152 18.9487 5.31027 18.9152 5.27902C18.904 5.26786 18.8929 5.2567 18.8795 5.24554C18.8571 5.22321 18.8348 5.20312 18.8125 5.18304C18.8058 5.17634 18.7969 5.16964 18.7902 5.16071C17.0089 3.50893 14.6228 2.5 12 2.5C9.37723 2.5 6.99107 3.50893 5.20759 5.16071C5.20089 5.16741 5.19196 5.17411 5.18527 5.18304C5.16295 5.20312 5.14062 5.22545 5.1183 5.24777C5.10714 5.25893 5.09598 5.27009 5.08259 5.28125C5.04911 5.3125 5.01563 5.34598 4.98214 5.37723L4.97545 5.38393L4.8683 5.49107L4.86607 5.4933C4.79241 5.56696 4.72098 5.64286 4.64955 5.71875L4.64732 5.72098C4.61161 5.75893 4.57812 5.79688 4.54464 5.83482L4.54241 5.83705C4.51116 5.87054 4.47991 5.90625 4.45089 5.94196C4.44196 5.95312 4.43304 5.96205 4.42411 5.97321C4.39955 6 4.37723 6.02902 4.35268 6.0558C4.34821 6.0625 4.34152 6.06696 4.33705 6.07366C2.87946 7.81027 2 10.0513 2 12.5C2 14.9487 2.87946 17.1897 4.33929 18.9286C4.34375 18.9353 4.35045 18.942 4.35491 18.9487L4.42411 19.0312C4.43304 19.0424 4.44196 19.0513 4.45089 19.0625L4.54241 19.1674C4.54241 19.1696 4.54464 19.1696 4.54464 19.1719C4.57812 19.2098 4.61161 19.2478 4.64732 19.2835L4.64955 19.2857C4.72098 19.3616 4.79241 19.4375 4.86384 19.5112L4.86607 19.5134C4.90179 19.5491 4.93527 19.5848 4.97098 19.6183L4.97768 19.625C5.05134 19.6987 5.12723 19.7701 5.20312 19.8393C6.99107 21.4911 9.37723 22.5 12 22.5C14.6228 22.5 17.0089 21.4911 18.7924 19.8393C18.8685 19.7696 18.9429 19.6981 19.0156 19.625L19.0223 19.6183C19.058 19.5826 19.0938 19.5491 19.1272 19.5134L19.1295 19.5112C19.2031 19.4375 19.2746 19.3616 19.3438 19.2857L19.346 19.2835C19.3795 19.2455 19.4152 19.2098 19.4487 19.1719C19.4487 19.1696 19.4509 19.1696 19.4509 19.1674C19.4821 19.1339 19.5134 19.0982 19.5424 19.0625C19.5513 19.0513 19.5603 19.0424 19.5692 19.0312C19.5944 19.0043 19.619 18.9768 19.6429 18.9487ZM19.7344 15.7656C19.4263 16.4933 19.0201 17.1674 18.5246 17.779C17.9665 17.2967 17.3563 16.8782 16.7054 16.5312C16.9643 15.4844 17.125 14.3348 17.1674 13.125H20.3705C20.3036 14.0379 20.0893 14.9241 19.7344 15.7656ZM20.3705 11.875H17.1674C17.125 10.6652 16.9643 9.51562 16.7054 8.46875C17.3594 8.12054 17.9688 7.70089 18.5246 7.22098C19.6017 8.54682 20.2461 10.1713 20.3705 11.875ZM15.2656 4.76562C16.1518 5.14062 16.9576 5.65848 17.6674 6.31027C17.2551 6.66137 16.8112 6.9737 16.3415 7.2433C15.9911 6.23884 15.5424 5.36607 15.0201 4.66741C15.1027 4.69866 15.1853 4.73214 15.2656 4.76562ZM13.2433 20.404C13.0379 20.5647 12.8326 20.6875 12.625 20.7701V16.6295C13.5107 16.6913 14.3817 16.8885 15.2076 17.2143C15.0223 17.7634 14.808 18.2701 14.5603 18.7277C14.1719 19.4509 13.7165 20.029 13.2433 20.404ZM14.5603 6.27232C14.8058 6.73214 15.0223 7.23884 15.2076 7.78571C14.3817 8.11151 13.5107 8.30874 12.625 8.37054V4.23214C12.8304 4.31473 13.0379 4.43527 13.2433 4.59821C13.7165 4.97098 14.1719 5.54911 14.5603 6.27232ZM12.625 15.3772V13.125H15.9174C15.8817 14.1116 15.7589 15.0692 15.5536 15.9777L15.5469 16.0045C14.6101 15.6492 13.625 15.4378 12.625 15.3772ZM12.625 11.875V9.62277C13.6473 9.56027 14.6295 9.34375 15.5469 8.99554L15.5536 9.02232C15.7589 9.9308 15.8817 10.8862 15.9174 11.875H12.625ZM11.375 13.125V15.3772C10.3527 15.4397 9.37054 15.6562 8.45313 16.0045L8.44643 15.9777C8.24107 15.0692 8.1183 14.1138 8.08259 13.125H11.375ZM8.08259 11.875C8.1183 10.8884 8.24107 9.9308 8.44643 9.02232L8.45313 8.99554C9.37054 9.34375 10.3504 9.56027 11.375 9.62277V11.875H8.08259ZM11.375 16.6295V20.7679C11.1696 20.6853 10.9621 20.5647 10.7567 20.4018C10.2835 20.029 9.82589 19.4487 9.4375 18.7254C9.19196 18.2656 8.97545 17.7589 8.79018 17.2121C9.62054 16.8862 10.4844 16.692 11.375 16.6295ZM11.375 8.37054C10.4893 8.30874 9.61832 8.11151 8.79241 7.78571C8.97768 7.23661 9.19196 6.72991 9.43973 6.27232C9.82812 5.54911 10.2835 4.96875 10.7589 4.59598C10.9643 4.43527 11.1696 4.3125 11.3772 4.22991V8.37054H11.375ZM8.73438 4.76562C8.81696 4.73214 8.89732 4.69866 8.97991 4.66741C8.45759 5.36607 8.00893 6.23884 7.65848 7.2433C7.18973 6.97545 6.74554 6.66295 6.33259 6.31027C7.04241 5.65848 7.84821 5.14062 8.73438 4.76562ZM4.26562 9.23438C4.57366 8.5067 4.97991 7.83259 5.47545 7.22098C6.03125 7.70089 6.64063 8.12054 7.29464 8.46875C7.03571 9.51562 6.875 10.6652 6.83259 11.875H3.62946C3.69643 10.9621 3.91071 10.0759 4.26562 9.23438ZM3.62946 13.125H6.83259C6.875 14.3348 7.03571 15.4844 7.29464 16.5312C6.64371 16.8782 6.03353 17.2967 5.47545 17.779C4.39828 16.4532 3.75395 14.8287 3.62946 13.125ZM8.73438 20.2344C7.84821 19.8594 7.04241 19.3415 6.33259 18.6897C6.74554 18.3371 7.18973 18.0268 7.65848 17.7567C8.00893 18.7612 8.45759 19.6339 8.97991 20.3326C8.89732 20.3013 8.81473 20.2679 8.73438 20.2344ZM15.2656 20.2344C15.183 20.2679 15.1027 20.3013 15.0201 20.3326C15.5424 19.6339 15.9911 18.7612 16.3415 17.7567C16.8103 18.0246 17.2545 18.3371 17.6674 18.6897C16.9615 19.3388 16.149 19.8613 15.2656 20.2344Z" fill="#1A202C"/>
</g>
</svg>
