<svg width="24" height="24" viewBox="0 0 24 24" fill="none" xmlns="http://www.w3.org/2000/svg">
<g id="Wallet">
<path id="Vector" d="M19.2 7.6V5.8C19.2 4.8073 18.3927 4 17.4 4H5.7C4.2114 4 3 5.2114 3 6.7V17.5C3 19.4809 4.6146 20.2 5.7 20.2H19.2C20.1927 20.2 21 19.3927 21 18.4V9.4C21 8.4073 20.1927 7.6 19.2 7.6ZM5.7 5.8H17.4V7.6H5.7C5.46827 7.58963 5.24946 7.49028 5.08915 7.32264C4.92883 7.15499 4.83936 6.93196 4.83936 6.7C4.83936 6.46804 4.92883 6.24501 5.08915 6.07736C5.24946 5.90972 5.46827 5.81037 5.7 5.8ZM19.2 18.4H5.7108C5.295 18.3892 4.8 18.2245 4.8 17.5V9.2335C5.0826 9.3352 5.3823 9.4 5.7 9.4H19.2V18.4Z" fill="white"/>
</g>
</svg>
