<svg width="22" height="21" viewBox="0 0 22 21" fill="none" xmlns="http://www.w3.org/2000/svg">
<path fill-rule="evenodd" clip-rule="evenodd" d="M9.77778 0C4.37766 0 0 4.37766 0 9.77778C0 15.1779 4.37766 19.5556 9.77778 19.5556C10.9094 19.5556 11.9961 19.3633 13.007 19.0097C12.6476 18.5338 12.3714 17.9915 12.2 17.4045C11.4359 17.647 10.6221 17.7778 9.77778 17.7778C5.3595 17.7778 1.77778 14.1961 1.77778 9.77778C1.77778 5.3595 5.3595 1.77778 9.77778 1.77778C14.1961 1.77778 17.7778 5.3595 17.7778 9.77778C17.7778 10.2092 17.7436 10.6326 17.6779 11.0456C18.289 11.1284 18.865 11.3216 19.3852 11.6045C19.497 11.0127 19.5556 10.4021 19.5556 9.77778C19.5556 4.37766 15.1779 0 9.77778 0ZM10.6667 6.22222C10.6667 5.7313 10.2687 5.33333 9.77778 5.33333C9.28686 5.33333 8.88889 5.7313 8.88889 6.22222V8.88889H6.22222C5.7313 8.88889 5.33333 9.28686 5.33333 9.77778C5.33333 10.2687 5.7313 10.6667 6.22222 10.6667H8.88889V13.3333C8.88889 13.8243 9.28686 14.2222 9.77778 14.2222C10.2687 14.2222 10.6667 13.8243 10.6667 13.3333V10.6667H13.3333C13.8243 10.6667 14.2222 10.2687 14.2222 9.77778C14.2222 9.28686 13.8243 8.88889 13.3333 8.88889H10.6667V6.22222Z" fill="#1F1A2C"/>
<circle cx="17" cy="16" r="4.5" stroke="#1F1A2C"/>
<path fill-rule="evenodd" clip-rule="evenodd" d="M15.0151 13.25L17.0052 15.4499H15.9771L15.9768 18.7496H15.0146L15.0151 13.25Z" fill="#1F1A2C"/>
<path fill-rule="evenodd" clip-rule="evenodd" d="M19.4858 18.75L17.4954 16.5501H18.5235L18.5233 13.2504H19.4856L19.4858 18.75Z" fill="#1F1A2C"/>
</svg>
