<svg width="24" height="25" viewBox="0 0 24 25" fill="none" xmlns="http://www.w3.org/2000/svg">
<g id="icon-check-circle">
<g id="Shape">
<path d="M10.0166 3.71542C11.9096 3.28771 13.8902 3.4834 15.663 4.27329C16.1675 4.49807 16.7587 4.27134 16.9834 3.76687C17.2082 3.26239 16.9815 2.67122 16.477 2.44644C14.3103 1.48101 11.8896 1.24184 9.57581 1.7646C7.26206 2.28736 5.17929 3.54404 3.63811 5.34722C2.09693 7.1504 1.17992 9.40346 1.02384 11.7704C0.86777 14.1373 1.48099 16.4913 2.77206 18.4812C4.06312 20.4711 5.96285 21.9904 8.18792 22.8125C10.413 23.6345 12.8442 23.7153 15.1189 23.0427C17.3936 22.3702 19.39 20.9803 20.8103 19.0804C22.2306 17.1806 22.9986 14.8725 23 12.5004V11.5799C23 11.0276 22.5523 10.5799 22 10.5799C21.4477 10.5799 21 11.0276 21 11.5799V12.4993C20.9989 14.4401 20.3705 16.3285 19.2084 17.8829C18.0464 19.4374 16.413 20.5745 14.5518 21.1248C12.6907 21.6751 10.7015 21.609 8.88103 20.9364C7.06051 20.2638 5.50619 19.0208 4.44987 17.3927C3.39354 15.7645 2.89181 13.8386 3.01951 11.902C3.14721 9.9654 3.89749 8.12199 5.15845 6.64666C6.41942 5.17133 8.12351 4.14314 10.0166 3.71542Z" fill="#20A555"/>
<path d="M22.7075 5.20663C23.0978 4.81591 23.0975 4.18275 22.7068 3.79242C22.316 3.40209 21.6829 3.40241 21.2925 3.79313L11.9996 13.0953L9.70711 10.8028C9.31658 10.4122 8.68342 10.4122 8.29289 10.8028C7.90237 11.1933 7.90237 11.8265 8.29289 12.217L11.2929 15.217C11.4805 15.4046 11.7349 15.5099 12.0003 15.5099C12.2656 15.5098 12.52 15.4043 12.7075 15.2166L22.7075 5.20663Z" fill="#20A555"/>
</g>
</g>
</svg>
