<svg width="24" height="25" viewBox="0 0 24 25" fill="none" xmlns="http://www.w3.org/2000/svg">
<g id="icon-x-circle">
<g id="Shape">
<path d="M15.7071 8.79289C16.0976 9.18342 16.0976 9.81658 15.7071 10.2071L13.4142 12.5L15.7071 14.7929C16.0976 15.1834 16.0976 15.8166 15.7071 16.2071C15.3166 16.5976 14.6834 16.5976 14.2929 16.2071L12 13.9142L9.70711 16.2071C9.31658 16.5976 8.68342 16.5976 8.29289 16.2071C7.90237 15.8166 7.90237 15.1834 8.29289 14.7929L10.5858 12.5L8.29289 10.2071C7.90237 9.81658 7.90237 9.18342 8.29289 8.79289C8.68342 8.40237 9.31658 8.40237 9.70711 8.79289L12 11.0858L14.2929 8.79289C14.6834 8.40237 15.3166 8.40237 15.7071 8.79289Z" fill="#BB4747"/>
<path fill-rule="evenodd" clip-rule="evenodd" d="M1 12.5C1 6.42487 5.92487 1.5 12 1.5C18.0751 1.5 23 6.42487 23 12.5C23 18.5751 18.0751 23.5 12 23.5C5.92487 23.5 1 18.5751 1 12.5ZM12 3.5C7.02944 3.5 3 7.52944 3 12.5C3 17.4706 7.02944 21.5 12 21.5C16.9706 21.5 21 17.4706 21 12.5C21 7.52944 16.9706 3.5 12 3.5Z" fill="#BB4747"/>
</g>
</g>
</svg>
