<svg xmlns="http://www.w3.org/2000/svg" width="272" height="272" fill="none" xmlns:v="https://vecta.io/nano"><path d="M249.675 251.787c-.632.544-1.397.271-2.196.383-.767.37-1.572 1.181-2.599.27l-1.371.737c-1.12-.016-2.234.181-3.28.581-.722.243-1.475.378-2.236.4-1.228.086-2.45.235-3.663.446a8.61 8.61 0 0 0-2.342.955c-1.049-.22-2.297.608-3.661.385-.883.512-1.875.205-2.792.376a5.7 5.7 0 0 0-3.058 1.023 5.37 5.37 0 0 0-3.353.608c-1.774.017-3.4 1.022-5.22.769-1.759-.245-3.455.584-5.218.318l-.603.64-4.317.513a25.2 25.2 0 0 0-4.618.899 7.82 7.82 0 0 1-2.75.043 8.93 8.93 0 0 0-3.561.598c-.381.1-.777.133-1.169.099l-11.244.003c-.903-.19-1.334-1.129-2.285-1.493a9.59 9.59 0 0 1-.702-2.988c.25-1.058.664-2.071 1.225-3.002 1.544-.517 3.158-.794 4.786-.821l.549-.77.422.366c.235.132.298-.303.587-.323 1.566.17 3.148.077 4.683-.277.755.843 1.238-.179 1.886-.155-.081-.815-.889-.981-1.067-1.591-.034-.405.008-.785.417-.947l-.583-1.18c-.849.131-1.766-.238-2.598.348-.154.108-.451 0-.681.018-.676.051-1.208-.498-1.938-.381a1.88 1.88 0 0 1-.923.077 1.87 1.87 0 0 1-.847-.375c-.119-.115-.449.01-.675-.023a1.44 1.44 0 0 0-1.047.3c-.272-.438-.71-.298-1.089-.286a2.33 2.33 0 0 1-1.965-.697h-1.394l-1.006-1.038h-1.548c-.804-1.419-.633-3.249-2.167-4.509-.509 0-1.31-.034-2.106.01-.767.043-1.595-.27-2.333.384-.875-.772-1.704-.349-2.495.204-.402.283-.662.708-1.199.876a1.61 1.61 0 0 1-1.583-.038c.435.721.78 1.492 1.028 2.297l-.455.422c-.716.043-1.573-.17-2.202.625 1.046.311 1.951-.512 2.947-.303.379-.539.947-.324 1.424-.304 1.244.053 2.4-.522 3.667-.396.658.001 1.304.169 1.879.489a2.81 2.81 0 0 0 1.097.525c.4.092.815.095 1.216.009.46.487-.112 1.233.568 1.6l-1.341 1.246a2.69 2.69 0 0 1-.136.898 7.04 7.04 0 0 1-1.814 2.229 7.05 7.05 0 0 1-2.554 1.32 4.67 4.67 0 0 1-1.93.411c-.565-.089-1.986.898-2.774 1.679l-.444-.376c-.533.368-1.191.51-1.829.397-1.09.067-2.168.268-3.209.598-.844.189-1.775.048-2.515.807-1.497-.342-2.797.629-4.254.847a4.35 4.35 0 0 1-.954.162c-1.349.089-2.704-.005-4.028-.279a2.22 2.22 0 0 0-1.212-.157 2.23 2.23 0 0 0-1.111.507c-.821-.974-1.736-.155-2.579.003-.429.151-.891.179-1.335.082-.925-.263-1.938-.229-2.954-.431 1.202.499 1.501 1.771 2.353 2.539.024.23.019.462-.015.691-.038.144-.218.251-.378.421.423.747.55 1.626.354 2.462-1.398.692-2.717 1.534-3.933 2.511-1.609.261-3.236.388-4.865.38a11.65 11.65 0 0 1-4.173.216 22.29 22.29 0 0 0-3.853-.261c-.427-.024-.924-.191-1.266.286a.34.34 0 0 1-.153.061c-.055.007-.111 0-.163-.02-1.155-.603-2.436-.151-3.623-.448-.148-.037-.186-.316-.426-.233-.405.254-.892.342-1.36.246-.93-.252-1.87-1.087-2.919-.289-.944-.536-1.869.416-3.042-.137.058.043-.034-.219-.406-.156l-.548.394c-.628-.557-1.612-.433-2.285-1.102-1.238 0-2.51-.07-3.77.024-.924.068-1.703-.535-2.628-.381-.905.151-1.699-.474-2.516-.541-1.032-.084-1.776-.882-2.822-.845a6.71 6.71 0 0 1-.967-2.414c-.33-.028-.662-.024-.992.009a6.72 6.72 0 0 1-3.126-.425 7.28 7.28 0 0 0-1.953-.269c-1.672-.024-3.345.009-5.016-.019-.482-.008-1.01.197-1.448-.286a.63.63 0 0 0-.401-.112c-.142.01-.277.068-.383.164a1.06 1.06 0 0 1-.598.309c-.227.036-.46-.003-.664-.112-.363-.203-.537.013-.776.004-.781.09-1.573.031-2.332-.176-.421-.169-.871-.249-1.324-.236s-.898.118-1.308.309a1.03 1.03 0 0 1-.386.145c-.137.022-.277.016-.412-.017a7.29 7.29 0 0 0-2.806-.338c-.208-.008-.268-.385-.549-.334-1.824.329-3.465-.718-5.249-.71-.182.001-.366-.215-.557-.336-.425.047-.815.671-1.212.329-.703-.605-1.691.004-2.328-.67-1.245-.138-2.48-.361-3.695-.666-1.257-.122-2.535-.014-3.803-.033-.601-.009-1.242.177-1.771-.328a.5.5 0 0 0-.248-.065.51.51 0 0 0-.248.065c-.175.138-.377.239-.592.297s-.44.072-.661.041l-5.882-.004a7.16 7.16 0 0 0-3.663-.326c-1.67-.256-3.357-.378-5.046-.367-1.308-.323-2.505-.995-3.462-1.944a1.76 1.76 0 0 0-.002-.763c-.056-.251-.167-.487-.324-.691-.075-.72.423-1.031.545-1.499.099-.402.339-.755.677-.996s.751-.35 1.163-.311c.538-.006.865-.484 1.416-.395.506.08 1.053-.068 1.55.038.672.143 1.091-.528 1.769-.392a4.69 4.69 0 0 0 1.857-.108 5.44 5.44 0 0 0-3.241-.907c-.555.616-1.284.262-1.933.338-.398.046-.808-.014-1.21.013a6.08 6.08 0 0 0-2.976.334c-.475.281-.918-.297-1.479-.096-.555.115-1.124.15-1.689.104-.895.039-1.689-.485-2.628-.38a3.15 3.15 0 0 1-1.256.093 3.14 3.14 0 0 1-1.192-.406 7.27 7.27 0 0 1-4.18-1.194l.229-.264c-.112-1.074-.981-1.822-1.326-2.867-.348-.277-1.022-.304-1-1.056.018-.616-.421-.853-.9-.886-.36-.444.261-1.121-.475-1.354-.056-.621.489-1.11.355-1.763-.139-.674.248-1.296.296-1.934.042-.554-.528-1.092-.241-1.744a3.68 3.68 0 0 0 1.206-1.562 2.35 2.35 0 0 1 1.128-1.413 14.96 14.96 0 0 0 2.395-2.086c.145-.324-.141-.792.261-.949.774-.301.912-1.237 1.575-1.558.681-.33.937-1.115 1.666-1.272v-1.12a17.3 17.3 0 0 0 1.376-1.66c.357-.662.879-1.221 1.516-1.621.673-.332.697-1.196 1.113-1.759.427.076.577-.3.832-.503.025-2.079.428-3.221 1.339-3.758.218-.681-.199-1.339-.13-2.007.079-.763.54-1.528-.131-2.243.394-.337.442-.855.719-1.327-.224-.608-.68-1.237-.072-1.935.068-.127.103-.27.102-.415a.88.88 0 0 0-.107-.414 1.46 1.46 0 0 1-.332-.913c.004-.376.108-.758-.212-1.128-.194-.223.364-.461.236-.838-.123-.361.029-.741-.148-1.152a3.19 3.19 0 0 1-.268-1.344c.009-.462.119-.917.321-1.332-.444-.569-.666-1.279-.623-1.999.066-.861.015-1.73.015-2.595.446-.228.824-.57 1.094-.992-.263-.628.247-1.07.32-1.561l-.276-.312c.907-1.811 1.46-3.778 1.63-5.796v-.852a14.06 14.06 0 0 0 2.339-2.68c.115-.192.27-.357.453-.485s.392-.216.612-.257c.479-.122.191-.808.788-.965.279-.059.531-.211.715-.429s.29-.492.301-.778a9.73 9.73 0 0 1 2.517-2.543c.545-.01.861-.442 1.32-.589.944-.302 1.635-1.256 2.517-1.39a10.82 10.82 0 0 0 2.564-1.152 10 10 0 0 0 3.45-.649 4.13 4.13 0 0 1 1.574-.426c.581.046 1.264.293 1.764-.298.602.785 1.187-.033 1.781-.018a18.62 18.62 0 0 0 2.683-.585c1.261-.146 2.349-.993 3.661-.801.492-.434 1.254-.13 1.689-.494 1.388-1.162 3.16-1.7 4.526-2.836.51-.424 1.158-.311 1.598-.801a7.3 7.3 0 0 0 .972-1.682c.323-.632 1.113-.723 1.558-1.23a.36.36 0 0 0 .061-.147c.294-1.168 1.266-1.813 2.057-2.667l.032-.726.855-.715c.376-1.346 1.161-2.542 2.247-3.423-.031-.175-.028-.355.009-.529.412-.881 1.346-1.426 1.575-2.435a.38.38 0 0 1 .092-.147.39.39 0 0 1 .147-.092c.951-.241.817-1.13 1.077-1.782.276-.047.535-.166.751-.345a1.59 1.59 0 0 0 .477-.674c.195-.464.542-.848.985-1.087a17.8 17.8 0 0 1 3.298-1.628c1.597-.48 3.265-.733 4.895-1.123 2.718-.222 5.453-.107 8.143.342a4.99 4.99 0 0 1 1.88.565c.583.31 1.1.733 1.519 1.244.065.087.138.168.216.243h1.222l4.473 2.187c1.578.41 3.128.92 4.641 1.527 1.313.414 2.456-.331 3.712-.281l7.557.029.524-.693c.663.092 1.336.081 1.996-.032a13.77 13.77 0 0 1 5.086-.662c.288.007.697.124.843-.021.571-.561 1.352-.348 2.008-.609a7.04 7.04 0 0 1 2.396-.064c.432-.032.856-.132 1.256-.297 1.417-.528 2.896-.872 4.401-1.024a14.34 14.34 0 0 0 3.459-.488 23.64 23.64 0 0 0 3.256-.9 3.65 3.65 0 0 1 1.732-.44 9.12 9.12 0 0 0 3.33-.261c.904-.201 1.84-.211 2.747-.028.989.125 1.838-.391 2.8-.4 1.228.22 2.493.114 3.667-.307.131-.073.427-.077.497.008.607.745 1.306.127 1.926.092.556-.031 1.071-.268 1.516.204.219-.051.267-.328.557-.323l3.805.014c.221-.022.444.016.645.11 1.577.844 3.439.817 5.04 1.611.092.046.227.006.361.006l1.35 1.39c.883-.37 1.19 1.013 2.073.688.558.367.901.888 1.645 1.113a5.34 5.34 0 0 1 2.522 1.738c.223.326.528.587.885.756a2.22 2.22 0 0 0 1.146.205l.848-.001.938 1.048h1.404c.22.321.256.748.71 1.024a4.4 4.4 0 0 1 1.995.335c1.195.65 2.524 1.014 3.883 1.062.277-.016.555.023.816.115a10.53 10.53 0 0 0 2.345.63c1.032.309 2.081.559 3.141.75.136.012.198.289.418.233.686.867 1.998.783 2.58 1.743h1.262l6.387 4.131c1.532.934 1.604.856 1.873 1.426.343.658.816 1.239 1.392 1.707.353-.016.422.351.685.491l-.325.372.735.776c-.219.306-.345.669-.363 1.045a1.95 1.95 0 0 0 .264 1.073 4.32 4.32 0 0 1 .399 2.428 15.81 15.81 0 0 0-.007 1.728 2.03 2.03 0 0 0 .101.397l.889.816c-.04 1.185.391 2.339 1.201 3.206.442.412.915.79 1.415 1.129a13.77 13.77 0 0 0 1.934 1.16c.708.293 1.71.59 1.869 1.65 1.002-.13 1.54.957 2.339.99.941.038 1.544.894 2.543.743.59.873 1.724 1.166 2.368 2.047 1.108-.256 1.137.85 1.657 1.321a5.36 5.36 0 0 1 2.874 1.837h.631c.888.929 1.453 2.113 2.624 2.612.109.312.085.576.172.856.23.742.986 1.053 1.253 1.731a4.87 4.87 0 0 1 .337 2.363l.701.549c-.043.654-.036 1.309.02 1.961.112.701-.543 1.219-.306 2.032.693-.293.733.657 1.324.716-.038 1.586.187 3.168.667 4.68l-.334.41c.267.678.727 1.331.027 2.007a6.18 6.18 0 0 1 1.444 2.154c.216.891.658 1.712 1.283 2.383-.147.163-.37.283-.285.723a4.31 4.31 0 0 1 1.324 1.738c-.47.189-.397.648-.266.998a6.08 6.08 0 0 0 .71 1.091c.399.444.714.955.932 1.511.37 1.454.821 2.888 1.349 4.293.209.675.76 1.405.298 2.208-.986.776-1.875 1.666-2.65 2.652l-.014 2.077c-.061.693.481 1.231.386 1.94-.042.314.308.56.654.668.433-.191.831-.613 1.369-.21l.061 1.137a2.46 2.46 0 0 0 .563.442c.455.197.854.503 1.161.892s.513.847.599 1.335a4.68 4.68 0 0 0 1.06 2.105c.323 1.474-.542 2.793-.316 4.017l-.806 1.634c-.186.031-.363.101-.52.206a1.33 1.33 0 0 0-.391.4c-.427.582-1.036 1.004-1.73 1.2zm-47.506-36.653c-.506-.237-.876-.012-1.295-.215-1.503-.594-3.076-.997-4.679-1.197a27.16 27.16 0 0 0-3.447-.06c-1.16-.079-2.37.368-3.477-.303-1.231.713-2.566.158-3.845.309-.572.073-1.152.07-1.724-.009-.495-.076-.964.564-1.444.02a8.39 8.39 0 0 1-4.006.306c-.557.001-.901.393-1.412.399-.502-.095-1.02-.055-1.502.114-.035.019-.037.097-.053.148-.049.353.276.466.431.682.525.243 1.133-.112 1.639.226v1.74c.313.39.796.651.847 1.213.794.143 1.554.433 2.241.856-.154.299-.22.636-.191.971s.152.655.354.924c.532-.01.743.454 1.177.816.954-.504 1.853.347 2.87.271 1.178-.089 2.288.587 3.486.341.787.645 1.807.052 2.583.434.953.47 1.899.114 2.834.258.537.083 1.092-.149 1.623.288.177.096.374.148.575.154a1.27 1.27 0 0 0 .582-.122c.959-.325 1.977-.434 2.983-.319.488-.046 1.045.192 1.412-.347.801.158 1.521-.308 2.277-.323 1.425-.041 2.806-.506 3.967-1.335a2.36 2.36 0 0 0 .939-.986 2.37 2.37 0 0 0 .24-1.34l-1.2-1.203c-.354-.36-.957-.461-1.092-1.048-.636.049-.835-.634-1.39-.83-.474-.167-1.066-.009-1.361-.521l-.331.3-.611-.612zm-89.319-42.046a5.65 5.65 0 0 0-3.843.038c-.168-.139-.277-.377-.556-.326-.853.623-2.109.11-2.898 1.069-.941-.298-1.785.459-2.67.328-1.16.528-.872 1.874-1.618 2.605.663.61.121 1.425.336 2.025.633 1.071 1.515 1.972 2.572 2.626s2.258 1.043 3.498 1.133l.308-.314.324.921 7.761.008a8.92 8.92 0 0 0 2.887-.535 18.75 18.75 0 0 1 4.907-1.26c.836-.544 1.707-1.035 2.606-1.469.958-.279 1.358-1.509 2.566-1.331.285-1.031 1.164-1.73.902-2.872-.173-.279-.411-.512-.695-.678a2 2 0 0 0-.932-.273 3.71 3.71 0 0 0-1.424-.822 3.7 3.7 0 0 0-1.64-.124c-.225.031-.454.017-.673-.041-.819-.44-1.738-.659-2.667-.637a20.52 20.52 0 0 1-2.796-.339c-1.782-.072-3.569.001-5.354-.036a1.96 1.96 0 0 0-.901.304h0zm-6.94-4.786c-.276.252-.623.411-.994.456a1.8 1.8 0 0 1-1.074-.207 5.29 5.29 0 0 0-1.623-.249c-.651-.064-1.284.313-1.968.01-.554-.245-.951.5-1.583.349-.948-.225-1.865.303-2.791.295a8.85 8.85 0 0 0-2.82.744 7.63 7.63 0 0 0-4.867 3.191c-.206.257-.506.195-.801.398a2.2 2.2 0 0 1-.128.943 2.21 2.21 0 0 1-.514.801 7.18 7.18 0 0 0-1.305 2.046c-.259.602-.43 1.238-.51 1.888-.023.662-.582 1.228.005 1.995.436.57-.363 1.23-.305 1.904.005.056-.013.137.017.164.689.604.116 1.424.38 2.117.455.389.438 1.071.777 1.437h1.492c.182-1.304.091-2.632-.269-3.898-.124-1.321.476-2.538.382-3.831.212-.325.597-.469.704-.929.093-.698.346-1.364.74-1.947.439-.552.548-1.244 1.27-1.731a20.89 20.89 0 0 1 2.764-2.128c1.358-.536 2.782-.889 4.233-1.05a7.84 7.84 0 0 0 3.155-.322c.186-.073.386-.105.585-.097s.396.06.575.149c.293.155.424.003.63-.002 1.352-.106 2.711-.084 4.059.065.759.125 1.607.568 2.502-.019a1.94 1.94 0 0 1 .975-.228c.339.011.67.111.958.291.245.131.525.185.802.156l5.013.021c.311.006.402-.34.66-.301.293.218.43.584.897.642.324-.248.713-.398 1.12-.431s.814.051 1.175.243a2.36 2.36 0 0 0 1.114.177c.381-.031.748-.154 1.071-.357.277.091.395.405.741.364 1.988-.236 3.916.517 5.909.356.477-.02.952.064 1.392.248s.835.462 1.157.814c.777-.121 1.57-.103 2.342.053.953.428 1.991.635 3.036.605.165-.018.332.01.481.083a5.42 5.42 0 0 0 3.209.611c.097-.004.197.074.296.115l.133.512c.734.066 1.43.351 2 .818 1.012-.427 1.953.414 3.072.328a17.79 17.79 0 0 0 1.64 3.484 8.7 8.7 0 0 0 2.645 2.865l.673-.825v-2.957a3.35 3.35 0 0 0 1.196 1.546c.264-.052.577.124.809-.182-1.367-.311-1.314-1.893-2.257-2.567l-.399.316c-.227-.874-.628-1.693-1.179-2.407a6.68 6.68 0 0 0-2.03-1.751l-4.097-1.378c-.105-.029-.211-.051-.318-.068l-.223.223-1.387-1.544c-.217-.002-.314.328-.638.368a8.71 8.71 0 0 1-3.956-.502 39.37 39.37 0 0 0-5.889-1.184c-1.683-.333-3.473.002-5.211-.381-.876-.193-1.981.237-2.704-.145-1.049-.555-1.817.132-2.708.115-.23-.005-.552.097-.676-.018-.593-.551-1.297-.303-1.947-.317-1.67-.037-3.343.013-5.013-.026-.612.075-1.232-.017-1.796-.264-.311-.143-.653-.202-.993-.173s-.667.148-.948.343c-.295.21-.359-.407-.647-.242-.32.011-.398.465-.757.344l-.479-.306a.56.56 0 0 1-.631.301l-.353-.33zm117.426 63.959c-.759-1.131-1.106-2.489-.981-3.846a3.21 3.21 0 0 1-.839-1.917 16.57 16.57 0 0 0-.945-2.043 7.72 7.72 0 0 0-2.267-3.906l-.475-.371v-1.17a4.48 4.48 0 0 1-1.48-2.15c-1.185-.251-1.326-1.664-2.224-2.093-1.043-.5-1.566-1.444-2.36-2.139h-1.032c-1.06-1.129-2.464-1.876-3.992-2.125-.468-.102-.924-.249-1.363-.439a11.32 11.32 0 0 0-5.281-1.24 7.84 7.84 0 0 0-2.031-.755c-.737-.148-1.462-.345-2.171-.592-.629-.287-1.481.304-2.096-.37l-.457.417c-.487-.588-1.19-.459-1.845-.412a6.8 6.8 0 0 1-3.153-.717c-.947.445-.947.445-1.812.013-.539.693-1.077.233-1.602-.011-.346.192-.81.587-1.048.325-.474-.52-.757.095-1.131.042-.385-.055-.813.076-1.065-.363a.67.67 0 0 1-.88.327c-.596-.318-1.281-.43-1.948-.316-1.644.094-3.273.363-4.861.802a7.44 7.44 0 0 0-2.91.909c-.531.361-1.103.659-1.703.888a10.99 10.99 0 0 0-3.27 2.177c-.633.59-1.039 1.454-1.798 1.815a3.31 3.31 0 0 0-1.6 1.761c-.227.545-.809.545-.985 1.127-.163.536-.858.895-1.257 1.382-.21.258-.544.126-.71.327a3.39 3.39 0 0 1-.527 1.228l.367 1.02 1.738-1.715c.572-.482 1.409-.686 1.56-1.582 1.519-1.192 2.952-2.489 4.287-3.884.53-.405.843-1.217 1.748-1.144.256.02.573-.268.805-.477a4.55 4.55 0 0 1 2.094-1.196c.788-.169 1.565-.381 2.33-.635.776-.3 1.605-.437 2.436-.404l8.303.013c.432-.002.934.187 1.252-.313.389.451 1.04.121 1.371.362a1.66 1.66 0 0 0 .606.276c.218.051.444.057.665.018 1.478-.16 2.877.573 4.355.359.083-.009.166 0 .246.025s.152.067.214.123c.543.406 1.336-.004 1.848.543a7.52 7.52 0 0 1 3.759.948c.196.089.415.116.627.077s.406-.144.557-.298a2.81 2.81 0 0 0 1.047.579l.223-.159c.441-.18.506.051.651.11l4.589 1.869c.76.26 1.476.633 2.125 1.105.792.569 1.64 1.053 2.533 1.444.548.84 1.193 1.612 1.922 2.301.449.401 1.08.733.888 1.523.574.232.187.844.432 1.162l1.219.519c.505 1.403 1.212 2.726 2.1 3.925l-.304.379c.433 1.131 1.326 2.087 1.04 3.313a12.39 12.39 0 0 1 1.399 3.17l-.334.37c.789.865-.106 2.037.724 2.99l-.833.489c.584.836.334 1.821.921 2.561.765.157 1.562.008 2.217-.417l.767-2.083a1.29 1.29 0 0 1-.371-.901c.022-.371.194-.806-.2-1.121-.28-.224.43-.428-.018-.768-.271-.206-.223-.735.194-1.041h0zM55.414 220.569a2.76 2.76 0 0 1 .969-.55 2.77 2.77 0 0 1 1.108-.124c.889-.953 2.239-1.012 3.275-1.699a14.47 14.47 0 0 0 3.117-3.052c.431-.719.787-1.48 1.064-2.271-.689-.323-.206-1.08-.404-1.467-.212-.212-.279-.338-.377-.368a17.3 17.3 0 0 0-2.463-.718c-1.106-.23-2.24-.304-3.367-.22-.953.123-1.915.15-2.873.079-1.041-.077-1.951.581-2.969.376-1.148-.231-2.177.552-3.314.352-.753.656-2.021.2-2.567 1.215-.186.597.078.975.685 1.253.66-.307 1.545-.183 2.166-.464.819-.37 1.51-.121 2.374-.312-.45.849-1.595.756-1.545 1.974-.898-.632-1.585-.012-2.31.178-1.855.121-3.625.823-5.058 2.007-.194.179-.433.301-.691.354-.193.019-.377.093-.528.214a1 1 0 0 0-.326.467c.327 1.316.38 1.32 1.296 1.872a8.96 8.96 0 0 0 4.826 1.311c.814-.007 1.669-.265 2.47.294a1.26 1.26 0 0 0 .583.143c.203 0 .403-.049.583-.144.689-.511 1.536-.029 2.098-.363.733-.435 1.433-.171 2.18-.337zm141.034-34.858c.351-.439.922-.644 1.095-.41.362.494.918-.215 1.164.317 3.657.534 7.122 1.974 10.08 4.188 1.814-.531 1.814-.531 2.441-1.631-.821-1.133-1.935-2.02-3.223-2.567-1.526-.638-3.099-1.159-4.704-1.558a7.86 7.86 0 0 0-2.033-.524 2.88 2.88 0 0 1-2.209-.392l-.286.265c-.514.321-.609-.1-.888-.184-.274.565-.805.346-1.219.307a10.86 10.86 0 0 0-4.368.73 6.63 6.63 0 0 0-2.705 1.784c-.106.132-.163.296-.162.465s.059.332.165.463h1.25c-.192-.925.685-.817 1.06-.939.542-.203 1.069-.443 1.577-.72a.8.8 0 0 0 .56.342c.112.014.226.004.334-.029a.8.8 0 0 0 .292-.165c.575-.39 1.151-.227 1.779.258zM41.074 226.373c.239.138.335.418.67.485a13.12 13.12 0 0 1 2.804.723 2.66 2.66 0 0 0 1.429.288 6.79 6.79 0 0 1 2.579.468c.184.049.332.274.589.241 1.186-.154 2.287.57 3.482.344.249-.047.41.171.596.22a2.73 2.73 0 0 0 1.221.156c.414-.042.812-.177 1.165-.397.941.826 2.248-.096 3.246.848.124-.521.483-.537.823-.474 1.288.017 2.572-.125 3.825-.422.443.031.885-.079 1.261-.314s.669-.584.836-.995c.165-.736-.54-.934-.851-1.386h-1.734l-.777.742c-.733-.418-1.301.321-2.055.33-1.683-.232-3.396-.131-5.041.296-.078.03-.162.04-.245.031s-.163-.038-.232-.084c-.255-.341-.593-.282-.929-.283-.516-.047-1.035-.038-1.549.024-.452.098-.778-.504-1.299-.062-.459.39-.87-.348-1.385-.315-1.902.124-3.691-.661-5.582-.723a12.93 12.93 0 0 1-1.726-.408c-.249-.086-.49-.195-.719-.326-.222-.101.071-.568-.404-.549v1.542zm106.396-25.791c-.509-.615-1.157-1.1-1.891-1.413s-1.533-.445-2.329-.386c-.493.014-.847.427-1.41.374a7.06 7.06 0 0 0-2.797.277c-.647.29-1.347.444-2.057.454-.512.699-1.497-.156-1.99.606-1.298-.119-2.324.928-3.605.728a1.48 1.48 0 0 0 .077 1.024c.43-.044.863-.037 1.29.023.45.112.805-.584 1.244-.087.616-.593 1.403-.143 2.095-.349a20.93 20.93 0 0 1 6.522-1.293c.421.012.505-.486.734-.418 1.322.694 2.575.243 4.117.46zm79.741 9.757c1.654 1.118 3.393 2.104 5.202 2.949h-2.179c-.619.499-1.62.549-1.268 1.64 1.293.898 2.873 1.286 4.435 1.087a3.51 3.51 0 0 0-1.706-1.32c1.405.176 2.298-.611 3.417-.283v-1.277c-.48-.631-1.253-.696-1.832-1.11-.598-.428-1.385-.592-1.981-1.022-.63-.453-1.365-.321-2.009-.588a10.71 10.71 0 0 0-1.958-.902c-.144.25-.187.545-.121.826zM91.802 151.398c-2.023-.102-4.045.229-5.931.97a6.59 6.59 0 0 0-1.526.478c-.384.182-.863.271-1.086.725.035.262-.117.556.188.911 2.962-.144 5.897-.638 8.744-1.471.085-.654.191-1.227-.389-1.613zm63.875 17.244c-.139.28-.422.324-.399.578.481.45 1.088.744 1.739.843a29.41 29.41 0 0 1 4.017.693c1.06.382 2.204.469 3.31.253.831-.154 1.672-.25 2.517-.286.177-.343.117-.521-.059-.707-.23-.238-.509-.423-.818-.542s-.64-.167-.971-.144c-1.321.019-2.647.068-3.961-.033-.384-.03-.768-.335-1.238-.325a3.16 3.16 0 0 1-1.492-.127 6.35 6.35 0 0 0-1.015-.172c-.541-.071-1.087-.082-1.63-.031zM36.864 234c.712 1.463.995 1.972 1.895 2.131a15.95 15.95 0 0 0 5.541 1.085c.271.253.479.619.864.218.008-.11.066-.281.016-.324a18.21 18.21 0 0 0-3.487-1.92 12.34 12.34 0 0 1-2.42-1.237 1.86 1.86 0 0 0-.929-.509c-.352-.075-.719-.046-1.055.083l-.425.473zm117.126-66.397c.316 0 .718.119.98-.023.313-.226.689-.35 1.075-.353s.764.112 1.081.333a1.03 1.03 0 0 0 .572.131c.199-.013.39-.085.549-.206.41-.382.864-.141 1.408-.256l.454-.562c.429-.184.744.031.966-.251.016-.164.081-.333-.076-.469a15.84 15.84 0 0 0-3.772.231c-1.297-.009-2.481.464-3.653.444-.248.575.223.672.416.981zm-27.32 50.339c.746.305.799 1.078 1.484 1.442a7.81 7.81 0 0 1 1.595 1.534h1.524a2.47 2.47 0 0 0-.031-1.359c-1.392-.61-2.371-1.856-3.862-2.499l-.71.882zm101.814-14.569c.172-.85.043-1.301-.674-1.484-.616-.158-1.22-.45-1.814-.599-1.169-.453-2.404-.717-3.656-.783-.34.022-.338.222-.357.656 2.207.407 4.077 1.92 6.501 2.21h0zM52.453 188.916c-.589-.636-1.294-1.111-1.971-.831-1.087.281-2.124.733-3.07 1.337l.319.669h2.348l2.375-1.175zm-14.128 50.252c-.411-1.382-1.515-2.131-2.616-3.254-.063.77-.631.473-.894.798v.681c1.403 1.44 2.252 1.884 3.51 1.775zm189.741-33.894c-1.427-.708-2.961-.399-4.057-1.368-.297.294-.649.428-.636.832 2.176 1.679 2.614 1.694 4.693.536z" fill="#ee9ed5"/><g fill="#1a202c"><path d="M186.644 87.961c.425-.127.602-.421 1.012-.406l4.496.026c.27.002.544-.071.797.171.179.144.396.233.625.257s.46-.018.665-.122c1.077-.338 2.214-.44 3.334-.299l3.285.005c.602.031 1.249-.265 1.814.204.439.364 1.17-.173 1.532.473.481-.257.919.502 1.466.026.198-.172.593.018.903.261a4.42 4.42 0 0 0 2.825 1.128 5.07 5.07 0 0 1 1.517.483c-.326.73 1.086.363.754 1.259-.15.403.63.724.938 1.141.121.651.014 1.323-.302 1.905.128.581.677.984.719 1.742-.16.417-.388.805-.673 1.149-.47.428-.371.913-.395 1.49l-1.377 1.209c-1.325.143-2.608.55-3.772 1.199-.469.357-.953.071-1.44.306-.756.366-1.609.542-2.41.852-.567.363-1.247.507-1.913.404-.648-.214-1.159.295-1.73.434l-2.508.607c-.702.059-1.393.215-2.053.464a18.56 18.56 0 0 1-3.605.901c-3.226.875-6.539 1.389-9.754 2.338a9.2 9.2 0 0 1-2.604.037 11.46 11.46 0 0 1-4.398 1.434c-.865.153-1.739.052-2.638.298l-2.65.711a20.24 20.24 0 0 1-2.081.452c-1.522.13-3.03.391-4.507.779-.486.175-.986-.134-1.47.078-.585.256-1.178.495-1.77.736-.609.248-1.316-.114-1.926.396-.238.198-.785.072-1.183.025a9.95 9.95 0 0 0-4.68.822c-.195.073-.348.269-.598.225-1.481-.26-2.887.455-4.353.337-.544.043-1.076.186-1.569.421-.856.251-1.751.339-2.64.26-.979-.099-1.821.622-2.799.367-.56.586-1.332.139-1.918.38-.56.237-1.166.343-1.773.308-.621-.034-1.106.462-1.762.373a1.7 1.7 0 0 0-.838-.046c-.279.054-.539.178-.758.358-.086.087-.336-.005-.506.016a5.61 5.61 0 0 0-2.306.292c-.574.307-1.382-.01-2.1.354-.557.151-1.143.163-1.707.036-1.102-.036-2.199.17-3.214.602-.207.079-.429.109-.65.091-3.31-.243-6.583.581-9.888.34-.916-.066-1.69.52-2.628.386-.848-.121-1.728.009-2.59-.038-.541-.03-1.155.271-1.612-.274-.402.388-.911.249-1.388.293-.484.045-1.01-.194-1.445.3a.88.88 0 0 1-.409.112c-.143.004-.285-.027-.414-.091-.946-.376-1.978-.482-2.98-.304-.628.005-1.281-.446-1.727-.283-.694.253-1.188-.261-1.831-.133-.607.154-1.246.117-1.831-.104-.434-.186-.986.137-1.502.178-1.767.143-3.457-.571-5.222-.385a5.93 5.93 0 0 1-1.894-.02c-.573-.131-1.057.593-1.604.075-.501.453-.937-.201-1.469-.077a8.58 8.58 0 0 1-1.895.033h-1.73c-.57-.079-1.149-.065-1.714.042-.447.161-.571-.664-.997-.168-.254.295-.65.094-.98.121-1.947.159-3.845-.538-5.796-.342a5.36 5.36 0 0 0-2.797-.341c-.398-.013-.799.034-.997-.553-.164.265-.419.461-.717.552s-.619.069-.903-.06c-.21-.141-.447-.238-.696-.284s-.505-.04-.751.017c-.873.122-1.579-.515-2.457-.393-.783.209-1.609.195-2.384-.041-.898-.472-1.925.082-2.74-.587-.185.018-.223.364-.529.287-.757-.533-1.678-.782-2.6-.703a2.38 2.38 0 0 0-.917-.562 2.37 2.37 0 0 0-1.071-.099c-.7-.449-1.068-1.325-1.962-1.544v-1.044c.176-.328.647-.456.691-.916-.158-.516-.973-.717-.737-1.324l1.643-1.64c.287-1.363.558-1.702 1.733-1.823.646-.119 1.263-.363 1.816-.719a5.81 5.81 0 0 0 2.861-.543c.711-.268 1.461-.417 2.221-.442 1.263-.335 2.542-.604 3.833-.807.333-.486.84-.299 1.263-.269.484.035.739-.422 1.243-.388 1.67.112 3.211-.835 4.901-.671.821-.725 2.005.033 2.826-.692 1.018.126 1.939-.586 2.97-.347 1.482-.662 3.119-.902 4.729-.693.298-.762.909.478 1.377-.252.271-.423 1.134.1 1.728-.362.375-.292 1.1.044 1.54-.425 1.304.192 2.483-.629 3.799-.317-.232-2.256-1.648-4.098-1.333-6.279-.332-.658-.813-1.209-.719-1.999.023-.314-.029-.629-.154-.918s-.317-.544-.561-.743c.303-.885-.407-1.68-.314-2.583a4.78 4.78 0 0 0-.612-2.518 2.37 2.37 0 0 1-.079-.832c-.026-.602-.125-1.198-.295-1.777-.399-1.355-.413-2.822-.774-4.192-.339-1.284-.085-2.608-.365-3.836a32.54 32.54 0 0 1-.276-6.276c-.073-.483-.192-.957-.356-1.417-.249-1.147-.379-2.317-.389-3.49-.01-1.165.384-2.388-.288-3.504.859-1.3-.182-2.882.628-4.227.172-.287-.137-.864-.251-1.441l.724-.501c-.285-.289-.55-.455-.396-.847l.669-.236c-.125-.668.231-1.408-.284-2.1.205-.315.236-.772.633-1.076-.066-1.423.191-2.842.749-4.152.24-.875.537-1.733.891-2.569a8.75 8.75 0 0 0 .79-2.45 2.27 2.27 0 0 1 .598-1.124 7.66 7.66 0 0 0 1.2-2.957l1.242-1.189c-.084-.914.604-1.431 1.011-2.038.242-.361.628-.824.635-1.109.018-.744.589-1.091.947-1.479.291-.267.555-.562.787-.882a4.23 4.23 0 0 1 1.818-1.797c.599-.262.775-.84 1.19-1.228.421-.394.792-.844 1.231-1.216a34.24 34.24 0 0 1 4.479-3.37c1.43-.731 2.773-1.619 4.005-2.649 1.46-.295 2.478-1.515 3.937-1.577 1.08-.859 2.528-.867 3.913-1.601 1.147.349 2.228-.946 3.589-.708l.597-.616c1.934-.529 3.948-.415 5.847-.992.91.305 1.635-.351 2.454-.463.905-.124 1.853.062 2.759-.062.562-.077 1.004.432 1.646.08.474-.261 1.154-.043 1.757-.344a1.31 1.31 0 0 1 1.444.171.44.44 0 0 0 .291.121c1.964-.115 3.811.673 5.741.73l.62.621a2.68 2.68 0 0 1 1.217.171c.387.15.733.389 1.012.696.306.397.726.174 1.083.328 1.008.534 1.962 1.166 2.847 1.886 1.454.99 2.844 2.08 4.218 3.181a2.12 2.12 0 0 1 .931 1.166c.103.463.63.561 1.017.752v.695c1.522.75 1.866 2.539 3.116 3.45-.018.345.042.689.176 1.007a2.28 2.28 0 0 0 .6.828 4.99 4.99 0 0 1 1.294 2.407c.212.776.951 1.393.631 2.4.639.052.962.524 1.417.96v1.395c.968.881.475 2.32 1.411 3.135v1.756c.934.497.629 1.713 1.346 2.367-.648.431.057 1.352-.635 1.764.956 1.136.678 2.703 1.368 3.952-.108.471-.632.822-.162 1.5.546.788.415.868.172 2.294-.065.386-.075.807.314.927.071.425-.192.516-.373.768.364.412.145.998.27 1.456a11.51 11.51 0 0 1 .118 1.845c.062.525-.089 1.082.274 1.554-.626.394.124 1.298-.616 1.64.132.187.315.291.367.557.121.608-.413 1.146-.047 1.811.277.504-.258 1.254.337 1.761l-.648 1.589c-.075.299.284.328.297.566-.346.195-.31.548-.299.969l.779.864c-.488.764-.277 1.716-.782 2.467.571.691.259 1.507.359 2.232l-.653.654c-.227 1.433.29 2.939-.411 4.194.026.611.501.736.702 1.064v1.163l-.82.622c.646.642.364 1.413.505 2.107.111.544-.316.809-.4 1.242-.094.484.434.619.4 1.076-.039.511-.625.848-.383 1.409a1.67 1.67 0 0 0-.401 1.111c.007.407.162.797.437 1.098-.083.405-.604.558-.221 1.077.629-.335 1.491.011 2.093-.696.733 0 1.482.035 2.226-.012.537-.034 1.078.165 1.626-.287.103-.07.219-.119.341-.144a.92.92 0 0 1 .37.002c.122.026.238.076.339.148s.189.164.254.27c.509.163.658-.471 1.143-.346.357.092.829.17.947-.291.501-.144.601.387 1.011.326a22.42 22.42 0 0 0 4.027-.292c1.132-.237 2.298-.253 3.436-.048 1.882.17 3.693-.42 5.562-.425.468-.001 1.031-.268 1.586-.3.345-.02.487.234.779.397zm-35.546-19.45a6.19 6.19 0 0 1-2.667 2.823 21.64 21.64 0 0 1-6.697 2.526c.224.466-.434.695-.41 1.288.006.25-.058.496-.185.711a1.33 1.33 0 0 1-.534.504c-.848.301-.984 1.016-1.359 1.673-.358.839-.806 1.637-1.335 2.38-1.063 1.157-2.104 2.325-3.172 3.697.993.064 1.989.053 2.981-.032.958-.149 1.875-.644 2.825-.01a3.15 3.15 0 0 1 2.139-.675c1.768-.175 3.436.563 5.009.382.767.492 1.075 1.204 1.853 1.466.44.148 1.062.701 1.054 1.061-.021 1.06.81 1.222 1.372 1.621a6.22 6.22 0 0 0 .989 2.417l.339-.306c.949.697 1.779.24 2.604-.194.062-.408-.172-.859.143-1.172.129-.154.214-.34.245-.539s.008-.402-.068-.588a3.56 3.56 0 0 1-.017-.934c.272-1.262.408-2.549.406-3.84-.118-.737.458-1.3.614-2.029-.905-.532.155-1.123.069-1.725-.099-.692.213-1.438-.278-2.078l.612-.612-.393-.433a2.18 2.18 0 0 0 .358-.807c.063-.291.065-.591.008-.883l-.609-.61c.082-.886-.181-1.77-.734-2.467.273-.429.445-.915.504-1.42s.003-1.017-.163-1.497c-.048-.285.214-.376.427-.672-.436-1.254.424-2.729-.424-4.066-.026-.041-.004-.113-.004-.208.019-.299.361-.449.379-.857a10.59 10.59 0 0 1 .303-4.366.65.65 0 0 0-.055-.487 4.3 4.3 0 0 1-.306-3.939c.065-.159.091-.331.075-.502s-.071-.336-.162-.481c-.191-.311-.297-.667-.308-1.032s.074-.726.245-1.048c.125-.221.201-.465.223-.718s-.009-.507-.093-.746c-.328-.72-.42-1.526-.263-2.302.053-.534-.4-.795-.39-1.276 1.077-.914-.407-1.857.096-2.845l-.787-.617c.025-.421-.101-.797.293-1.01-.284-.32-.082-.609.066-.915-.052-.434-.518-.566-.723-.96.24-.819-.401-1.533-.415-2.386-.006-.404.074-.985-.267-1.306-.572-.539-.135-1.23-.379-1.755-.126-.273-.252-.829-.446-.815-.717.053-.61-.608-.804-.899a28.48 28.48 0 0 0-1.668-2.917c-.597-.714-1.101-1.503-1.497-2.345a3.58 3.58 0 0 0-1.741-1.67c.158-.908-.718-1.31-.991-2.014-.262-.675-1.166-.716-1.478-1.435-.298-.685-1.215-.861-1.551-1.651h-.794a6.93 6.93 0 0 0-2.453-2.092 14.58 14.58 0 0 0-3.812-2.058 12.55 12.55 0 0 1-2.822-.68c-.494-.255-1.05-.363-1.603-.313-2.668-.074-5.338.024-7.994.292-1.07.33-2.191.465-3.309.397-.843.646-2.099.141-2.87 1.028-.074.086-.347.056-.503.004-.506-.171-.741.456-1.246.373-.447-.093-.911-.071-1.348.062-.993.385-2.042.605-3.106.652-.22.304-.508.553-.841.726s-.702.265-1.077.27a1.88 1.88 0 0 0-1.313.563c-.799.556-1.654 1.026-2.551 1.404-.493.213-.97.461-1.427.741-.999.744-2.141 1.262-3.136 2.061a4.7 4.7 0 0 1-2.177 1.221c-.247.969-1.138 1.313-1.598 1.988h-.723c-.726.772-1.633 1.397-1.895 2.512-.678.215-.701 1.114-1.454 1.327a1.85 1.85 0 0 0-.99 1.062c-.414.76-.873 1.496-1.373 2.203-.118.182-.401.277-.331.554.165.649-.679.814-.663 1.271.025.711-.51.963-.829 1.405-.309.427-.461.963-.925 1.239l.457.584c-1.706 1.504-1.646 3.902-2.858 5.701l.304.335c-.146.175-.312.294-.347.563a6.9 6.9 0 0 0-.345 2.112c.123.751-.632 1.217-.722 1.957-.055.458-.246.925-.328 1.416a18.61 18.61 0 0 1-.883 3.785c-.271.684.174 1.028.13 1.51a16.81 16.81 0 0 0-.611 2.681c.017 1.328-.075 2.662.027 3.981a15.91 15.91 0 0 0 .243 3.867c.218 1.308.245 2.642.08 3.958 0 .115-.049.271.008.34a2 2 0 0 1 .293 1.925c-.251.728.767 1.201.207 1.874a9.83 9.83 0 0 1 .206 1.864 8.69 8.69 0 0 0 .834 3.282c.183.276.114.536.192.791.135 1.021.476 2.004 1.001 2.889l-.276.308c.409.714.411 1.601 1.013 2.16a2.6 2.6 0 0 0 .724 2.415v1.833l.658.537v1.667a9.66 9.66 0 0 1 1.381 4.051 2.81 2.81 0 0 0 .804 2.049c1.195.141 2.403-.099 3.454-.684.246.199.357.436.761.356.223-.797 1.103.026 1.511-.464.297-.614-.361-.941-.323-1.465a6.13 6.13 0 0 0-.017-1.725c-.129-.585.493-.912.36-1.418-.13-.495.592-.966.012-1.448.24-.41.386-.869.426-1.342.802-.494 1.569-1.043 2.295-1.643a3.46 3.46 0 0 1 1.24-.786 19 19 0 0 1 3.504-1.197c.731.016 1.451-.178 2.075-.56a1.04 1.04 0 0 1 .74-.122c.253.053.477.198.63.407.359-.345.657-.77 1.218-.842-.63-.489-1.674-.418-1.815-1.466-.739-.028-.775-.873-1.242-1.116-.441-.208-.791-.571-.984-1.019a2 2 0 0 1-.065-1.415 2.69 2.69 0 0 1 2.356.825 6.55 6.55 0 0 0 1.144.956c.31.184.597.739 1.014.84.544.132.781.606 1.26.855h.963l.928.954c1.167.068 2.025 1.142 3.149.723a3.73 3.73 0 0 0 1.343.745l.4-.358c.076.068.149.191.24.206 1.764.288 3.541.025 5.499.154l.471-.748h2.259a20.18 20.18 0 0 0 7.949-5.755l.075-.704.635-.223v-.716c1.138-.99 1.886-2.353 2.11-3.845.318-.474.852-.781 1.102-1.413.245-.621 1.103-.619 1.664-1.019-.171-.745.213-1.549-.252-2.305-.414-.674.209-1.563-.438-2.255-.071-.156-.105-.325-.099-.496a1.11 1.11 0 0 1 .135-.488c.15-.272.067-.375.023-.635a29.54 29.54 0 0 1-.781-6.441c.023-.461.002-.923.003-1.385.059-.317.053-.643-.016-.958s-.2-.613-.386-.877l.359-.417c-.528-.773-1.084-1.498-.195-2.37-.699-.256-.289-.875-.562-1.227-.281-.04-.614.008-.814-.133a2.47 2.47 0 0 0-1.034-.315c-.364-.027-.73.026-1.07.156a14.38 14.38 0 0 1-3.213.594c-1.153-.021-2.308-.038-3.459.007a4.87 4.87 0 0 1-2.437-.386c-.584-.277-1.236-.376-1.875-.285-.345.271-.741.469-1.165.582s-.867.137-1.301.072c-.472.797-1.323.65-1.91 1.039a2.83 2.83 0 0 1-1.168.365c-.411.035-.825-.02-1.213-.161-.765-.282-1.563-.467-2.374-.55a4.08 4.08 0 0 1-2.117-.715c-.811-.563-1.711-.987-2.661-1.255-.637.421-1.296.809-1.973 1.163-1.374.681-2.632 1.79-4.23 1.53-.293.292-.519.643-.663 1.03a2.88 2.88 0 0 0-.176 1.212 7.76 7.76 0 0 1-.652 4.23 6.93 6.93 0 0 0-.721 4.434c.025.287.118.655-.016.852-.571.841-.211 1.754-.34 2.583 1.09 1.033.553 2.454.998 3.631.126.747.324 1.48.593 2.188.368.632.58 1.361.963 2.028.258.448.788.52.912.966.287.768.775 1.445 1.414 1.958.001 1.318-1.011 1.306-1.77 1.581-.948-.746-2.081-1.202-2.448-2.466-.281 0-.502-.002-.723.001s-.455-.05-.62.173c-.09.113-.218.191-.36.218s-.289.004-.415-.068c-.777-.62-1.761.005-2.442-.373-.85-.472-1.667-.137-2.428-.408-1.087-.092-1.637-1.173-2.757-1.321a1.02 1.02 0 0 1-.656-.512 1.02 1.02 0 0 1-.116-.41c-.009-.143.012-.287.062-.421.154-.409-.383-.389-.276-.701.336-.419.585-.902.731-1.419.037-.137.104-.264.196-.371s.208-.193.337-.25c1.108-.217 1.764-1.229 2.841-1.516a7.98 7.98 0 0 1 3.232-.561c-.082-1.09.175-2.055-.392-2.929l.705-.746a4.67 4.67 0 0 1-.301-2.451l.612-.612c.526-.697-.328-1.349-.016-2.143a6.94 6.94 0 0 0 .058-2.395c1.023-1.013.6-2.321.715-3.468.217-.402.882-.509.589-1.168a2.89 2.89 0 0 1-2.328-.924v-1.085c.78-.434.809-1.392 1.308-1.989l2.437-1.243h-7.44l-.805-2.95c.635-.46.218-1.152.361-1.76a6.42 6.42 0 0 0 .585-.595c.266-.344.419-.841.758-1.045.363-.277.686-.604.958-.971 1.495-1.36 3.389-2.2 5.401-2.393a3.8 3.8 0 0 0 1.481-.064c.484-.119.94-.331 1.343-.626.062-.052.08-.156.117-.231l-.269-.269.314-.36c-.07-.076-.19-.146-.213-.24a7.61 7.61 0 0 1 .881-4.557c.589-.791 1.14-1.618 1.666-2.438a8.12 8.12 0 0 1 3.97-2.941c.366-.156.79-.332 1.189-.473.961-.401 1.99-.609 3.031-.614.382.593 1.061.19 1.46.387.444.481.774 1.056.964 1.683h1.403c.603.491.641 1.276 1.266 1.565v1.431l.463.433c1.83-1.38 3.775-2.598 5.816-3.642a3.21 3.21 0 0 1 1.311-.508c.469-.07.948-.036 1.402.101.58.259 1.21.104 1.394.211.84.671.589 1.414 1.106 1.883a4.68 4.68 0 0 0-1.49 2.018c.824 1.5.869 1.823.366 3.151 2.215-.3 4.257-1.019 6.398-1.394.046.093.117.172.205.228a.57.57 0 0 0 .591.011.57.57 0 0 0 .213-.22c.683.415 1.695.371 1.91 1.358-.514.646.345 1.327-.275 2.254l-2.787 2.783.651.651v1.052c.826.687 1.758.444 2.6.595 1.768.749 3.657 1.199 5.352 2.018 0 .646-.036 1.167.008 1.681.045.449-.034.901-.23 1.307s-.501.75-.88.993c-1.419.979-2.916 1.844-4.386 2.76v1.462l.646.58c.06 1.12.389 2.21.961 3.175l-.368.51a3.39 3.39 0 0 1 .677 1.211c.14.446.187.916.137 1.38.063 1.091.377 2.166.458 3.257.047.628-.111 1.265.508 1.792l4.819-.976c.631.573 1.713.515 2.502 1.109-.111.35.153.525.366.702a6.9 6.9 0 0 0 .602.43c.152 1.044-.171 1.819.442 2.483zm-94.714 38.119a27.05 27.05 0 0 1-5.604 1.504c-.312.471.462.629.214 1.243-.775.152-1.088.987-1.534 1.545.087.502.343.96.725 1.297a2.25 2.25 0 0 0 1.376.562c1.479.169 2.904.587 4.367.75 1.387.155 2.781.056 4.187.329 1.643.319 3.407-.292 5.028.414.496.216.764-.509 1.325-.097.34.249.999.038 1.511.082.936.082 1.906-.253 2.813.317a1.48 1.48 0 0 0 1.019.008c.499-.128.952-.69 1.485-.077.534-.26 1.135-.348 1.721-.249.844-.148 1.711-.109 2.539.112.986.526 1.704-.05 2.538-.112a1.58 1.58 0 0 1 .789.181 1.54 1.54 0 0 0 1.86-.174c.461.23.968.35 1.483.351a3.32 3.32 0 0 0 1.484-.347c1.458.868 3.18-.24 4.555.715.259-.197.418-.408.762-.397a12.8 12.8 0 0 1 3.266.079c.984.332 2.053.31 3.021-.064.055-.021.116-.021.17.001 1.344.733 2.793.183 4.184.331.51.063 1.026.043 1.529-.059a4.55 4.55 0 0 1 2.696.02c.832.214 1.707.183 2.522-.087.397-.172.803-.06 1.112-.232.172-.094.364-.144.56-.144s.388.047.561.139c.156.071.33.096.5.074s.331-.093.464-.202c.338-.316.667-.243 1.063-.022.329.17.691.268 1.061.287s.74-.04 1.085-.175c.63-.216 1.295-.308 1.96-.271 1.094-.033 2.191-.013 3.286-.007a3.8 3.8 0 0 0 2.107-.347c.654-.313 1.383-.436 2.104-.352 1.061.108 2.133-.003 3.15-.325.288-.12.63-.006.947-.259.116-.092.703.45.989.218.623-.502 1.358-.109 1.937-.357.62-.241 1.284-.348 1.947-.312.231.001.581.096.672-.017a1.29 1.29 0 0 1 .667-.37c.255-.054.52-.029.761.07.631.128.995-.501 1.594-.384 1.002.071 2.009-.048 2.966-.351.474-.085.885-.465 1.416-.333.53.044 1.059-.089 1.505-.377.281.12.343.427.63.377.481-.231.961-.655 1.444-.659 1.844-.09 3.678-.321 5.486-.691 1.128-.139 2.233-.426 3.285-.854a2.35 2.35 0 0 1 1.013-.15 2.33 2.33 0 0 1 .979.299c.251-.171.408-.382.747-.391.441.017.881-.037 1.305-.161.878-.396 1.809-.661 2.764-.786 1.209-.228 2.433-.37 3.662-.425.221.041.449.014.655-.076a5.26 5.26 0 0 1 3.116-.615c.815-.202 1.19-.76 1.883-.703.542.045 1.14.167 1.586-.331 2.101-.026 4.036-.963 6.139-1.097 1.026.001 2.023-.343 2.831-.976a10.53 10.53 0 0 0 2.67-.298c.735-.32 1.505-.553 2.294-.694 1.07-.044 2.068-.407 3.136-.475a19.98 19.98 0 0 0 2.992-.675c.995-.03 1.952-.386 2.725-1.013a10.38 10.38 0 0 0 3.573-.469c1.168-.192 2.301-.724 3.442-.818 1.148-.301 2.266-.703 3.343-1.202a7.27 7.27 0 0 0 3.238-1.144l-.419-.504c1.204-.864-.036-1.751.07-2.665a8.83 8.83 0 0 1-1.082-.451 6.68 6.68 0 0 1-.812-.639l-.184.171c-1.682-.494-3.06-1.917-4.946-.899-.135-.124-.258-.337-.385-.339-.664.016-1.325-.093-1.949-.322a1.23 1.23 0 0 0-.665-.124c-.229.022-.448.107-.631.247-.303.294-.644.174-.966.177-1.615.015-3.232-.048-4.842.038-.52.028-.8-.365-1.081-.378-1.589.829-3.301-.213-4.632.74-.584-.313-1.242-.46-1.903-.425-.71.074-1.414.194-2.108.361a26.36 26.36 0 0 0-5.742.345c-.457.067-.921.073-1.379.018h-1.384c-.403 0-.807-.012-1.211.003-.437.016-.931-.151-1.242.339-.368-.641-.733.023-1.095.031-2.035-.082-4.074.007-6.095.266-1.666.314-3.474-.222-5.065.747-1.516.006-3.029.124-4.527.354a11.86 11.86 0 0 0-5.098.635c-.362.151-.758.2-1.146.142s-.753-.22-1.055-.47c-.342.178-.548.459-.952.392-.391-.112-.806-.108-1.195.013a19.97 19.97 0 0 1-2.607.817 3.01 3.01 0 0 1-2.543-.153 3.94 3.94 0 0 1-2.141.634 22.21 22.21 0 0 1-4.696.434c-.887-.242-1.828-.197-2.688.13-.817.526-1.752.288-2.478.716-.598.352-1.265-.136-1.769.336-.578.541-1.007-.133-1.525-.178-.766.916-2.037-.198-2.816.702a13.74 13.74 0 0 0-3.156.295c-1.009.137-2.032.154-3.046.051-1.451.848-1.451.848-2.743.345-.407.713-1.373-.014-1.785.695h-3.104a2.51 2.51 0 0 1-.99.603 2.52 2.52 0 0 1-1.155.097c-.69-.03-1.384.011-2.075-.012-.54-.017-1.065.109-1.62.081a2.56 2.56 0 0 0-1.797.605c-.094.087-.336.028-.507.01-1.76-.183-3.455.591-5.22.353-.164-.022-.421-.05-.492.039-.409.511-.979.347-1.435.273-.575-.094-.889.455-1.419.383-1.358-.186-2.64.576-4.009.348-.164-.005-.327.025-.478.088a7.74 7.74 0 0 1-2.52.597c-.952-.042-1.805.524-2.801.373a17.6 17.6 0 0 0-2.598-.026c-1.039 1.314-2.712.197-3.895 1.028a.65.65 0 0 1-.253.051c-.087-.001-.173-.019-.253-.053-.153-.09-.291-.204-.407-.339a.65.65 0 0 1-.289.293.64.64 0 0 1-.406.06c-.882-.054-1.763.12-2.558.505-.151.053-.297.184-.442.177-2.049.127-4.09.36-6.114.701a1.42 1.42 0 0 0-.789.199 2.54 2.54 0 0 1-1.342.444c-1.66-.135-3.225.68-4.699.396zm53.971-17.958c-1.545-.399-3.055.504-4.641.289-1.614-.218-2.809 1.18-4.408 1.086-.359.7-1.331.796-1.616 1.399-.632 1.151-.983 2.435-1.024 3.747.005.171.252.403.078.584-.527.55-.133 1.174-.293 1.717.753.448 1.207-.294 1.828-.234a16.6 16.6 0 0 0 5.579-.709 11.32 11.32 0 0 1 2.803-.314c.512.082 1.035.073 1.544-.027 1.484-.596 3.126-.4 4.593-1.012.456-.191.65.417 1.067.349a1.25 1.25 0 0 1 .492-.299c.184-.06.381-.077.573-.048a4 4 0 0 0 2.264-.378 4.26 4.26 0 0 1 1.77-.318l1.903.001c.193-.201.361-.461.716-.319.16.136.272.371.675.294.172-.508.679-.326 1.114-.314.363.042.731.001 1.076-.12s.657-.32.913-.581a9.62 9.62 0 0 0 3.054-.08 4.91 4.91 0 0 1 1.957-.234c.756.039 1.349-.517 2.106-.389.936.093 1.878-.097 2.704-.547.687-.317 1.029.155 1.53.216.244-.114.376-.399.722-.363.456.047.923-.02 1.381.02.522.045.845-.601 1.415-.359.354.15.704-.519 1.08-.027.605-.662 1.494.002 2.077-.392.771-.52 1.555-.123 2.316-.264.274-.051.566-.015.832-.086a2.44 2.44 0 0 0 .565-.326l.155-.472-1.012-.281.318-.318a8.93 8.93 0 0 0-4.181-3.709c-.715-.125-1.451.009-2.076.378-.195-.167-.33-.378-.451-.37-.561.039-1.117.385-1.678-.007-.801.672-1.833.02-2.596.382a10 10 0 0 1-2.6.36 2.18 2.18 0 0 0-1.484 1.412 5.46 5.46 0 0 1-2.824 3.038c-.567.312-1.106.981-1.646.97-1.035-.021-1.93.567-2.971.432a14.35 14.35 0 0 0-2.589-.013 5.29 5.29 0 0 1-2.822-.707 4.25 4.25 0 0 0-3.003-.654 1.7 1.7 0 0 0-.534-.654c-.23-.17-.499-.279-.783-.318-.906-.188-1.783-.5-2.605-.927.026-.325-.049-.649-.214-.93s-.413-.504-.709-.638h-1.38l-1.061 1.064zm31.686-21.69c.602 1.213.198 2.526.904 3.637.818-.093 1.613-.592 2.443-.349l.649-.711h1.049a4.26 4.26 0 0 1 1.556-1.228c-.056-1.32-.123-1.46-1.24-2.585a12.57 12.57 0 0 0-4.957.487.81.81 0 0 1-.095.432.8.8 0 0 1-.309.317h0zm-48.78 8.342a3.54 3.54 0 0 0 1.089.281c1.461.401 2.861 1.498 4.503.557a.51.51 0 0 1 .625.121c.21.261.452.309.676.09a4.67 4.67 0 0 0-1.365-1.812v-1.49c-.582-.115-.572-.727-.764-.957-1.651-.54-2.642.816-3.626.961l-1.503 1.503c-.039.186.609.275.365.747z"/><path d="M241.025 199.475c-.268-.678-1.023-.989-1.253-1.731-.087-.28-.063-.544-.172-.856-1.171-.499-1.736-1.683-2.624-2.612h-.631a5.36 5.36 0 0 0-2.875-1.837c-.519-.471-.549-1.577-1.656-1.321-.644-.881-1.778-1.174-2.368-2.047-.999.151-1.603-.705-2.544-.743-.798-.032-1.337-1.12-2.338-.99-.159-1.06-1.161-1.357-1.869-1.65a13.77 13.77 0 0 1-1.934-1.16c-.5-.339-.974-.717-1.416-1.129-.809-.867-1.241-2.02-1.2-3.206l-.889-.816c-.047-.129-.081-.262-.102-.397-.029-.575-.026-1.152.007-1.728a4.31 4.31 0 0 0-.398-2.428 1.94 1.94 0 0 1 .099-2.118l-.735-.776.325-.372c-.263-.14-.333-.507-.685-.491a8.38 8.38 0 0 0-.779-2.966c-.246-.938-1.371-1.37-1.884-2.25h-.643l-1.361-1.362c-2.089-1.1-4.521-1.263-6.751-2.429h-2.076c-.22.056-.282-.221-.419-.233a28.67 28.67 0 0 1-3.14-.75 10.53 10.53 0 0 1-2.345-.63c-.262-.092-.539-.131-.816-.114-1.359-.049-2.689-.413-3.883-1.063-.63-.265-1.313-.38-1.995-.334-.454-.277-.49-.704-.71-1.024h-1.404l-.939-1.049c-.292 0-.57-.005-.847.001a2.22 2.22 0 0 1-1.146-.205c-.357-.169-.662-.43-.885-.756-.653-.813-1.53-1.417-2.522-1.738-.744-.225-1.088-.745-1.646-1.112-.882.325-1.189-1.059-2.072-.689l-1.351-1.39c-.133 0-.268.04-.36-.006-1.601-.794-3.463-.767-5.04-1.61-.201-.095-.424-.133-.646-.111-1.268-.011-2.536.006-3.804-.014-.29-.004-.338.272-.557.323-.445-.472-.96-.235-1.517-.204-.619.035-1.318.654-1.926-.091-.07-.086-.366-.081-.496-.009a7.14 7.14 0 0 1-3.667.307c-.962.01-1.811.525-2.8.4-.907-.183-1.843-.173-2.747.029-1.085.291-2.214.379-3.331.26a3.65 3.65 0 0 0-1.731.44c-1.063.378-2.151.679-3.256.9-1.129.303-2.291.467-3.46.488-1.504.152-2.983.497-4.4 1.024a4.12 4.12 0 0 1-1.256.298 7.02 7.02 0 0 0-2.397.064c-.656.26-1.436.047-2.007.608-.147.145-.555.028-.843.021a13.77 13.77 0 0 0-5.086.662c-.66.113-1.334.124-1.997.032l-.523.693c-2.603 0-5.084.069-7.558-.029-1.255-.05-2.398.695-3.711.281a38.41 38.41 0 0 0-4.642-1.527c-1.474-.623-2.883-1.401-4.472-2.187h-1.222c-.079-.075-.151-.156-.216-.243a5.01 5.01 0 0 0-1.519-1.244 4.99 4.99 0 0 0-1.88-.565c-2.69-.449-5.425-.564-8.143-.342l-4.895 1.123a17.86 17.86 0 0 0-3.298 1.628 2.21 2.21 0 0 0-.985 1.087 1.59 1.59 0 0 1-.477.674c-.216.179-.475.298-.751.345-.26.652-.126 1.541-1.077 1.782a.39.39 0 0 0-.239.239c-.229 1.009-1.163 1.554-1.575 2.436a1.39 1.39 0 0 0-.009.528c-1.086.881-1.871 2.077-2.247 3.423l-.855.716-.032.725c-.79.854-1.762 1.499-2.057 2.667a.36.36 0 0 1-.061.147c-.445.507-1.234.599-1.558 1.231a7.32 7.32 0 0 1-.972 1.681c-.44.49-1.088.378-1.598.801-1.367 1.136-3.137 1.674-4.526 2.836-.435.364-1.196.06-1.689.494-1.313-.192-2.4.655-3.661.801-.879.261-1.775.456-2.683.585-.594-.015-1.18.803-1.781.018-.499.591-1.183.345-1.764.299-.548.035-1.083.18-1.574.426a10.02 10.02 0 0 1-3.45.648 10.82 10.82 0 0 1-2.564 1.152c-.882.135-1.574 1.088-2.517 1.39-.459.147-.775.58-1.32.589a9.73 9.73 0 0 0-2.517 2.543c-.011.286-.117.559-.301.778a1.28 1.28 0 0 1-.715.429c-.597.157-.309.843-.788.965a1.59 1.59 0 0 0-.612.257 1.6 1.6 0 0 0-.453.485 14.09 14.09 0 0 1-2.338 2.68v.852h-.517c-.373.994-1.543 1.659-1.144 3.047l-1.149.976c-.304.501.283.714.265 1.068-.156.837-.935 1.579-.248 2.553.162.23.024.672.024 1.017l-.015 2.595c-.042.72.179 1.43.623 1.999-.202.415-.312.87-.321 1.332a3.2 3.2 0 0 0 .268 1.345c.177.41.024.79.148 1.151.129.377-.429.615-.236.838.321.37.216.752.212 1.129a1.46 1.46 0 0 0 .333.913.88.88 0 0 1 .005.829c-.607.697-.152 1.327.072 1.934-.277.472-.325.99-.719 1.327.671.715.209 1.48.131 2.244-.069.667.348 1.325.13 2.006-.911.537-1.314 1.679-1.339 3.759-.255.202-.405.578-.832.502-.416.563-.44 1.427-1.113 1.759-.637.4-1.159.959-1.516 1.621a17.33 17.33 0 0 1-1.376 1.66v1.12c-.728.158-.984.943-1.665 1.272-.663.321-.801 1.257-1.575 1.558-.402.157-.115.625-.261.949-.722.779-1.525 1.478-2.395 2.087a2.33 2.33 0 0 0-.706.592c-.194.243-.337.522-.422.82a3.68 3.68 0 0 1-1.206 1.562c-.287.652.283 1.19.241 1.744-.048.638-.435 1.26-.296 1.935.134.652-.411 1.141-.355 1.762.181.645-.368 1.136-.359 1.76a3.64 3.64 0 0 1-.226 1.958c.542.346.639 1.192 1.279 1.652l-.246.241a3.37 3.37 0 0 1 .201 1.992c-1.684.167-2.593-1.158-3.548-1.688-.508-1.221-.703-2.549-.567-3.864l.929-1.746a1.16 1.16 0 0 0 .154-.483c.015-.17-.007-.341-.066-.501-.213-.625-.654-1.197-.059-1.834a3.01 3.01 0 0 1-.266-1.715 3.27 3.27 0 0 0 .697-2.146c1.088-.678 1.41-1.987 2.368-2.817.922-.798 1.484-1.981 2.465-2.701.149-1.016.149-1.016 1.235-1.637.285-.759.734-1.446 1.316-2.011.137-.103.313-.221.358-.367.364-1.166 1.535-1.715 2.069-2.747.173-.334.517-.641.541-.977a2.72 2.72 0 0 1 .923-1.875c.259-.241.084-.541.164-.866l1.322-1.247.1-1.903c.858-.277-.364-.885.24-1.381.346-.284-.233-1.218.497-1.773-.546-.453-.416-1.083-.458-1.69a9.14 9.14 0 0 0-.153-2.876c-.168-.427.177-.758.21-1.16.032-.386-.736-.734-.054-1.103-.481-.312-.359-.803-.324-1.238.015-.191.214-.367.375-.623-.504-.533-.187-1.532-1.077-1.879l.655-1.136-.295-.333c-.171-.445.437-.552.321-.955-.023-.424-.509-.111-.784-.655-.423-.652.905-1.608.155-2.604l.591-.559v-1.152l-.626-.627.301-.363-.349-.391c1.136-.543 1.13-1.78 1.282-2.701a7.17 7.17 0 0 1 1.47-3.03 24.01 24.01 0 0 1 3.349-4.137c.637-.567.774-1.643 1.814-1.609l.11-1.011c.411-.173.933-.234.984-.778.052-.55.84-.641.721-1.263.707.155.501-.957 1.174-.849.151-.544.501-.655 1.055-.751.485-.083.749-.742 1.293-1.014a6.72 6.72 0 0 1 2.87-.995c.711-.011.941-.787 1.764-.825 1.256-.058 2.401-.941 3.74-.919.115.002.269.049.34-.007a10.71 10.71 0 0 1 3.654-1.199c.151-.051.305-.187.443-.169 1.401-.04 2.797-.177 4.179-.409 1.575.006 3.114-.478 4.402-1.385l2.402-1.681c.365.061.607-.144.905-.318.309-.18.776.112 1.098-.13.372-1.351 2.003-1.427 2.534-2.763a7.53 7.53 0 0 1 1.372-2.174c.393-.296.721-.67.963-1.099a3.59 3.59 0 0 0 .445-1.392c.725-.206 1.003-.773 1.423-1.275.335-.4-.199-1.321.758-1.242.128-.558.601-.889.926-1.3v-1.027l.614-.213c.107-.309-.097-.615.123-.848.193-.133.474-.008.601-.262v-.507c.611-.241.904-.84 1.39-1.199v-.732c.66-.591 1.65-.913 1.724-2.013a38.04 38.04 0 0 1 3.428-2.103 9.94 9.94 0 0 1 4.506-1.229c.115.007.275.051.339-.007.969-.872 2.29-.522 3.394-1a8.55 8.55 0 0 1 5.077-.076c.22.057.448.07.673.038 1.539-.254 3.001.487 4.525.344.479-.045.748.525 1.241.356.04.097.079.28.12.281 1.278.146 2.51.56 3.618 1.214a5.9 5.9 0 0 0 1.134.562 4.1 4.1 0 0 1 1.711.864c.544.41 1.373.29 1.864.864.236.276.499.485.874.366.452-.142.688.293 1.059.352.635-.178 1.119.404 1.73.347.005.477.37.339.62.341l4.838.033c1.603.127 3.12-.439 4.7-.38a2.35 2.35 0 0 0 1.477-.693 7.14 7.14 0 0 0 2.365-.05 15 15 0 0 1 3.198-.593 8.35 8.35 0 0 0 3.71-.684 1.3 1.3 0 0 1 .837-.044c1.315.239 2.53-.525 3.835-.362a.68.68 0 0 0 .302-.099 10.33 10.33 0 0 1 5.074-.924c.802-.797 1.862-.702 2.767-1.009.441-.15.814-.523 1.404-.41 1.52.29 2.986-.539 4.521-.327.162-.001.322-.043.465-.121.674-.25 2.727-.121 3.41-.288.615-.149 1.224.35 1.6.029.544-.464 1.081-.238 1.618-.301.397.024.796.004 1.19-.058.293-.107.529-.532.833-.123.281.379.451-.379.767.014a1.11 1.11 0 0 0 .622.267c.231.021.462-.03.661-.147a6.72 6.72 0 0 1 2.816-.307l3.613-.022c1.479-.13 2.866.552 4.335.374.093-.011.198.069.296.107a8.96 8.96 0 0 0 1.486.559 6.14 6.14 0 0 0 1.314.021c1.425.582 2.548 1.284 3.797 1.783a9.59 9.59 0 0 1 3.179 2.228c.517.655 1.263 1.091 2.087 1.222.585.082 1.131.341 1.564.742a13.35 13.35 0 0 0 3.443 1.682c1.079.333 2.085.869 2.963 1.579.194.217.43.072.642.117a4.76 4.76 0 0 1 .981.097c2.544 1.048 5.264 1.603 8.015 1.636a2.6 2.6 0 0 0 1.022.596c.382.117.786.145 1.181.08a2.35 2.35 0 0 1 1.729.397c.615.534 1.48.024 1.99.659 1.812.295 3.523 1.029 4.985 2.138a3.47 3.47 0 0 0 .982.525c1.107.216 2.088.852 2.736 1.775a3.89 3.89 0 0 0 1.826 1.139c.621.698.33 1.755.914 2.474l-.409.44.938.932a7.28 7.28 0 0 0 .459 3.044c.262 1.033.643 2.036 1.001 3.14-.895 1.023.237 1.916.367 2.919l-.332.364c.387.348.521.9 1.079 1.105.568.208.03 1.034.635 1.287l-.351.387c.789.671 1.736 1.125 2.49 1.87.737.729 1.965.615 2.731 1.29a11.41 11.41 0 0 0 2.872 1.437c.909.44 1.866.781 2.86 1.19.27.58.555 1.292 1.438 1.287.584-.004.736.589 1.245.773.586.267 1.139.605 1.644 1.005.484.336.807.877 1.46 1.028.223.052.404.364.563.587.881 1.032 1.919 1.92 3.076 2.63l.092.848.495.102a3.06 3.06 0 0 1 .464.981c.034.368.636.448.305.917 1.237.18 1.344 1.446 2.136 2.04l-.296.326a7.03 7.03 0 0 1 1.019 3.065 21.4 21.4 0 0 0 .409 2.592 5.46 5.46 0 0 1-.432 2.032 4.53 4.53 0 0 1 .394 1.898c-.007.653-.156 1.297-.436 1.888l.622.435c.27.8-.184 1.504.456 1.976l-.33.362 1.388 1.39c-.344 1.321 1.117 1.903 1.192 3.264l-.139.175.297.352-.322.355c.87.581.623 1.966 1.716 2.339v1.242l1.049.96c-.1.783.681 1.256.465 2.06.007.204-.277.482-.11.81.336.796.553 1.636.647 2.494a11.26 11.26 0 0 1 .034 2.263c-.399 1.052-1.127 1.947-2.076 2.551-.512.181-.979.471-1.369.849.639.747.18 1.643.364 2.472.35.228.504.741 1.005.836.276.823 1.361.765 1.676 1.518a4.91 4.91 0 0 0 1.251 1.876c.862.725.635 1.835 1.188 2.633-.189.194-.296.454-.299.725a1.05 1.05 0 0 0 .286.731c.198.544.206 1.138.024 1.686-.093.455.442.528.338 1.088-.551.585-1.416 1.208-1.363 2.308l-4.397 4.402c-.746-.108-1.381.8-2.298.432l-.84-.998c.417-.212.223-.672.33-1.057.83-.021.917-.814 1.301-1.329-.053-.169-.369-.222-.311-.503.694-.196 1.303-.618 1.73-1.2.101-.16.234-.296.391-.401a1.33 1.33 0 0 1 .521-.205l.805-1.635c-.226-1.223.64-2.542.316-4.016a4.7 4.7 0 0 1-1.06-2.105 2.99 2.99 0 0 0-.599-1.335c-.307-.389-.706-.695-1.161-.892a2.46 2.46 0 0 1-.563-.442l-.061-1.137c-.538-.403-.936.019-1.369.21-.346-.108-.696-.354-.654-.668.095-.709-.447-1.247-.385-1.94.06-.687.013-1.384.013-2.077a15.83 15.83 0 0 1 2.65-2.652c.462-.803-.089-1.533-.298-2.208-.528-1.405-.978-2.839-1.349-4.294-.218-.555-.533-1.067-.931-1.511a6.02 6.02 0 0 1-.711-1.09c-.131-.35-.204-.81.266-.998a4.3 4.3 0 0 0-1.323-1.738c-.086-.44.137-.56.284-.723-.625-.671-1.066-1.492-1.282-2.383a6.17 6.17 0 0 0-1.445-2.154c.7-.676.24-1.329-.027-2.007l.334-.41a14.36 14.36 0 0 1-.666-4.679 1.66 1.66 0 0 1 .026-.712c.06-.233.169-.449.32-.636.017-.396-.434-.496-.372-.937a5.74 5.74 0 0 0-.281-2.433c-.165-.561-.159-1.212-.708-1.495-.619-.32-.218-1.19-.891-1.407a.57.57 0 0 0-.17-.002zm-4.332-155.434c-1.211-.493-2.368-1.11-3.451-1.842l-.355.33c-.286.07-.419-.146-.612-.242-.975-.484-1.717-1.321-2.74-1.736a6.58 6.58 0 0 1-2.513-1.831l-.702.703c-.261 0-.672-.126-.918.023a21.89 21.89 0 0 1-2.747.891c-.289.129-.668.129-.83.45a9.81 9.81 0 0 0-3.296.317c-.482-.461-1.24-.258-1.901-.299l-.447-.448c-.271-1.105.199-2.328-.305-3.582.077-.431.511-.844.618-1.44a7.72 7.72 0 0 1 .776-1.748c.962.018.315-1.054.89-1.3a23.36 23.36 0 0 0-3.052-1.014c-.511-.164-1.003-.382-1.468-.649a23.09 23.09 0 0 1-3.349-1.926c-.129-.109-.429-.015-.589-.015-.325-.375.057-.903-.428-1.131-.082-.082-.03-.139.078-.249.819-.833 1.651-1.462 2.9-.726.383.143.804.147 1.191.012a12.49 12.49 0 0 1 5.429-.019 14.93 14.93 0 0 0 3.278.016 2.25 2.25 0 0 1 1.341.439c1.131-1.26 1.219-3.079 2.289-4.392v-1.666c.278-.301.414-.758.981-.558a4.38 4.38 0 0 1 1.114-2.318c.375-.247.724-.125 1.056-.144.343-.019.472-.557.873-.359 1.152.233 1.764 1.16 2.536 1.872.069.697.109 1.406.951 1.665.064.02.124.192.113.286-.024.221.269.333.239.41-.241.613.288 1.162.083 1.817l1.107.926c-.188.753.279 1.163.454 1.675l.319-.256c.294.006.546.36.947.292.458-.062.921-.064 1.379-.008.443.04.906-.169 1.33.126.413.288.718-.229 1.154-.154l4.888.754a7.17 7.17 0 0 1 1.942 1.191v1.008c-.597.829-1.685 1.087-2.17 1.839a4.75 4.75 0 0 0-2.478 1.45c-1.806-.001-3.251 1.151-4.939 1.476-.435.771.32 1.087.57 1.472.131.538-.16.838-.319 1.18.831 1.368-.095 3.013.678 4.548-.531.462-.266 1.231-.346 1.914-.404.541-1.056.571-1.549.971zm-1.204-3.272a13.03 13.03 0 0 1 .032-2.378c.134-.684-.802-1.289-.071-1.953-.23-.275-.38-.607-.434-.961s-.01-.716.127-1.047c-.764-.695-.111-1.285.081-1.759.713-.627 1.734-.373 2.157-1.231h1.36c.463-.31.968-.553 1.499-.721.894-.34 1.976-.199 2.699-.999.1-.111.158-.167.084-.249l-.441-.442a22.12 22.12 0 0 0-2.657.023c-.929.111-1.7-.458-2.626-.397a7.87 7.87 0 0 1-4.253-.512c-1.205-1.207-1.781-2.578-1.449-3.35-.286-1.153-1.332-1.817-1.359-2.514l-.914-.917c-.025.649-1.385 1.269-.404 2.321-.661.44-.814 1.283-1.389 1.811.246.781-.342 1.246-.7 1.784a2.27 2.27 0 0 0-.329 1.566c-.845.85-1.604 1.811-2.923 1.543-.652-.27-.46-.89-.683-1.387a2.71 2.71 0 0 1-1.735-.323c-.664-.22-1.101.577-1.762.36-.156-.051-.391.062-.508-.019-.826-.569-1.75-.262-2.63-.332-.285-.039-.575-.036-.86.01-.286.065-.331-.521-.665-.207v.391a43.83 43.83 0 0 0 4.175 1.499c1.017.293 1.902.928 2.505 1.799a17.02 17.02 0 0 0-2.468 3.949c-.21 1.014.179 1.98-.326 2.862 1.247.465 2.371-.522 3.425-.271a43.37 43.37 0 0 1 5.088-2.157c.949.608 1.929 1.167 2.936 1.674a13.71 13.71 0 0 0 2.934 1.652l2.484.882zM39.651 70.084a8.38 8.38 0 0 1-3.131 2.439l-3.878 1.198c-.314-.038-.799-.767-1.423-.078-.233.257-.807-.087-1.04.381-1.8-.303-3.587.998-5.391.042-1.286.163-2.168-.918-3.346-1.095a.37.37 0 0 1-.147-.091c-.042-.042-.072-.091-.091-.147-.173-.693-1.038-.74-1.264-1.347-.234-.629-.836-1.006-.967-1.722a2.9 2.9 0 0 0 .557-1.106 2.89 2.89 0 0 0 .044-1.238l.65-.651c-.116-1.926.338-3.843 1.303-5.513.507-1.081 1.291-2.008 2.272-2.688l2.223-1.725 1.381-.001a11.33 11.33 0 0 0 2.286-.286c1.264-.048 2.527.109 3.74.465l4.304.85c.662.011 1.296.273 1.772.733l.835.779v2.84a2.16 2.16 0 0 0-.679 1.965c.089.772-.318 1.512-.029 2.314.259.718-.331 1.597.348 2.276-.503.376-.283.92-.327 1.407zm-3.501-.659c.247-1.442.381-2.902.399-4.366a13.2 13.2 0 0 1 .659-4.36c-.209-.262-.475-.473-.778-.616a2.2 2.2 0 0 0-.97-.211 4.05 4.05 0 0 1-1.929-.364 12.79 12.79 0 0 0-5.076-.71c-.363.006-.725.663-1.093.032-.252.592-.98.121-1.312.606-.421.614-1.253.835-1.559 1.576-.134.324-.525.147-.601.23-.953 1.774-1.466 3.75-1.497 5.764a2.92 2.92 0 0 1 .589 1.122c.112.413.132.845.059 1.266a6.98 6.98 0 0 0 2.299 1.85l.317-.28c.856.117 1.597 1.067 2.444.556.413-.249.93.015 1.214-.436.329-.522.738.52 1.076-.043 1.276.266 2.423-.495 3.682-.469a1.9 1.9 0 0 0 1.125-.568 6.64 6.64 0 0 1 .953-.577z"/></g><path d="M164.904 145.778a6.72 6.72 0 0 0-2.816.307c-.199.117-.43.168-.661.147a1.11 1.11 0 0 1-.622-.267c-.316-.393-.486.365-.767-.014-.304-.409-.54.016-.833.123-.394.062-.793.082-1.19.058-.537.063-1.075-.163-1.618.301-.376.321-.985-.178-1.6-.028-.683.166-2.736.037-3.41.287-.143.078-.303.12-.465.121-1.535-.212-3.001.617-4.521.327-.59-.113-.963.26-1.404.41-.905.307-1.965.212-2.767 1.009-1.743-.126-3.488.192-5.075.924a.67.67 0 0 1-.301.1c-1.305-.164-2.52.6-3.835.361-.277-.078-.571-.062-.837.044a8.35 8.35 0 0 1-3.71.684 15 15 0 0 0-3.198.593 7.14 7.14 0 0 1-2.365.05 2.35 2.35 0 0 1-1.477.693c-1.58-.058-3.097.507-4.7.38s-3.225-.023-4.838-.033c-.25-.002-.615.136-.62-.341h1.56c.215-.31.746-.421.431-1.067 1.947.181 3.651-.516 5.587-.452l.356-.429c.127-.061.263-.103.402-.125.622.05 1.218-.312 1.759-.3 1.535.033 3.022-.399 4.527-.37a28.67 28.67 0 0 0 6.287-.719c.111-.022.303.042.334-.009.447-.731 1.284-.546 1.906-.847.72-.349 1.456-.063 2.36-.253l.628-.934c1.487-.052 2.595-.675 3.87-.318l.561-.736a1.38 1.38 0 0 1 .626.024 1.39 1.39 0 0 1 .553.295c.284.057.388-.248.575-.294.828-.326 1.719-.459 2.606-.391.754.156 1.348-.466 2.108-.369a16.48 16.48 0 0 0 2.073.019c.343 0 .723-.098.806.35 1.807-.49 3.708-.525 5.531-.099.356-.2.756-.307 1.164-.311a2.42 2.42 0 0 1 1.169.288 1.48 1.48 0 0 0 .818.109c.596.01 1.098-.673 1.829-.037.369.321 1.163-.077 1.744.36.258.194.783.019 1.186.039.043-.003.086.004.125.021s.074.044.101.077.045.073.053.115a.26.26 0 0 1-.005.127z" fill="#ee9ed5"/><path d="M236.921 132.959l1.949-1.004c.627-.223 1.298-.292 1.957-.201s1.286.337 1.83.72a4.16 4.16 0 0 1 1.294 1.482 4.15 4.15 0 0 1 .469 1.91c-.466 1.209-1.251 2.269-2.271 3.067-1.029.518-2.185.729-3.331.606-.562-.03-.977.529-1.581.353-1.701-.494-3.589-.568-4.787-2.176a5.04 5.04 0 0 0-.436-.441c.251-.679-.354-1.279-.34-1.93l2.041-2.044c1.073.302 2.15-.59 3.206-.342zm-3.14 3.701l3.321 1.419c.08-.1.184-.179.301-.232a.8.8 0 0 1 .374-.07c.128.006.253.043.365.107a.81.81 0 0 1 .276.261c.481-.289 1.044-.408 1.6-.34a4.84 4.84 0 0 0 2.028-1.581v-.95l-.822-.921h-5.446a4.82 4.82 0 0 0-1.997 1.58v.727z" fill="#1a202c"/><path d="M72.867 154.785v.507c-.128.254-.408.129-.601.262-.22.233-.015.539-.123.848l-.614.213v1.027c-.326.411-.798.742-.926 1.3-.957-.08-.423.842-.758 1.242-.42.502-.698 1.069-1.423 1.275a3.59 3.59 0 0 1-.445 1.392c-.242.429-.57.803-.963 1.099a7.53 7.53 0 0 0-1.372 2.174c-.531 1.336-2.162 1.411-2.535 2.763-.322.241-.789-.05-1.098.13-.298.173-.54.379-.905.318-.019-.434.139-.915-.329-1.221.525-.476.296-1.258.909-1.872.246-.097.861.066 1.105-.505.592-1.371 1.296-2.692 2.107-3.947.101-.156.014-.434.014-.611.42-.313.837-.039 1.316-.254.483-.441.707-1.314 1.572-1.601.521-.174.49-.835.845-1.192.236-.237-.11-.863.251-.879.528-.024.437-.372.595-.624.145-.232.675-.004.648-.581-.011-.235.39-.443.711-.602a5.94 5.94 0 0 0 1.178-.968c.466-.133.511.383.842.307z" fill="#ee9ed5"/><path d="M155.582 8.783l.481-.535c.806-.106 1.371.409 1.989.706a9.93 9.93 0 0 1 3.656 2.474 10.31 10.31 0 0 1 1.485 2.16 3.9 3.9 0 0 0 1.34 1.69v1.134l.694.433c.08 1.263-.194 2.353.603 3.279.092.142.148.303.163.472a1.03 1.03 0 0 1-.078.493c-.455.684-.271 1.412-.33 2.283l-.877.627c-.163.249-.438.184-.706.144l-.74-.741a1.45 1.45 0 0 1-.085-.31 30.96 30.96 0 0 0-1.388-7.911 12.62 12.62 0 0 0-2.247-3.214c-.443-.604-.987-1.127-1.609-1.545-.289-.179-.563.012-.932-.218l-1.419-1.42zM35.5 114.421c.288-.229.485-.488.377-.819a1.11 1.11 0 0 1 .772.005c.248.094.455.274.581.508v1.807c.055 1.973.771 3.87 2.033 5.387.196.193.34.433.415.698.163.654.242 1.403 1.132 1.621.367.09.308.639.615.919a12.91 12.91 0 0 0 2.356 1.965c.09.483-.241.595-.437.858h-2.528l-2.436-2.439c-.253-.58-.102-1.37-.923-1.698-.132-.089-.245-.204-.33-.339s-.141-.285-.164-.443c-.247-.878-.612-1.718-1.085-2.498a3.23 3.23 0 0 1-.4-1.573l.022-3.959zm153.527 26.688l.714 1.399c-.234.915-1.326.152-1.768.79l-.901-1.126c.119-.865-.325-2.159.315-3.391.173-.334-.317-.602-.255-.856a16.87 16.87 0 0 1 1.347-3.957l-.366-.518c.529-.662 1.212-1.185 1.989-1.523.441.229 1.025.278 1.353.788.423.636-.43 1.092-.255 1.705-.929 1.232-.686 2.926-1.631 4.148-.166.215-.099.437-.092.65.087.664-.074 1.337-.45 1.891zM260.617 4.42l.703.038a2.75 2.75 0 0 1 .105 1.302c-2.023 1.655-4.137 3.195-6.334 4.611a27.32 27.32 0 0 0-3.727 2.652l-3.077 2.166c-1.251 1.051-2.801 1.631-3.958 2.689l-.567-.447a51.03 51.03 0 0 1 5.7-4.3l5.669-4.215 5.486-4.496zM30.491 123.279c.153.341.578.252.84.482v.981a5.25 5.25 0 0 1 .766 1.278c.174.552.462 1.061.846 1.494s.855.779 1.382 1.017c1.129.655 2.179 1.437 3.131 2.33l-1.262.855.186.195h-1.648l-3.57-2.383c-.342-.266-.034-.678-.243-.989-.108-.224-.462.075-.579-.307-.174-1.478-.487-2.936-.935-4.356.131-.252.736-.247 1.084-.597zM173.869 20.108c-.683 1.163-.768 2.776-2.527 3.032l-.386-.343c-.707-.88.527-1.721-.101-2.532.22-.343.33-.745.317-1.152a2.01 2.01 0 0 0-.391-1.129c.158-.44.631-.83.24-1.363-.596-.812-.438-1.866-.89-2.747a1.03 1.03 0 0 1 .384-1.365c.967.022 1.328.914 1.593 1.513a10.35 10.35 0 0 1 1.394 2.779c-.072.862.73 2.073.367 3.307zm37.024 122.349a1.91 1.91 0 0 1 .015.914 1.9 1.9 0 0 1-.415.816c-1.794 1.181-3.264 2.882-5.081 4.048-.738-.283-.722-.995-1.153-1.532.597-.419 1.004-.962 1.654-1.366.866-.668 1.656-1.429 2.355-2.27.356-.343.752-.642 1.18-.891a.98.98 0 0 1 .372-.178.99.99 0 0 1 .413-.009c.137.027.267.082.38.163s.209.184.28.305zm-15.49.389c-.11-.331.051-.841-.484-1.175a25.74 25.74 0 0 0 1.632-3.118 32.16 32.16 0 0 1 1.879-2.998c1.119-.161 1.119-.161 1.834.477-.838 1.23-1.101 2.808-2.307 3.851-.391.337.005 1.006-.599 1.324-.217.132-.394.32-.513.545s-.176.476-.163.73c-.021.34-.541.757-1.279.364z" fill="#1a202c"/><path d="M109.544 151.667c-.371-.059-.607-.494-1.059-.352-.375.119-.638-.09-.874-.366-.491-.574-1.32-.454-1.864-.864a4.1 4.1 0 0 0-1.711-.864c-.397-.146-.778-.335-1.135-.562-1.107-.654-2.339-1.068-3.617-1.214-.041-.001-.08-.184-.12-.282.556-.745 1.366-.425 1.941-.244.879.276 1.78.382 2.664.567a9.04 9.04 0 0 1 3.721 1.377c.391.288.286.845.751.974.385.107.853.258.911.614.072.44.556.726.392 1.216zm93.074 6.236c-2.75-.032-5.47-.587-8.014-1.635-.323-.067-.652-.099-.982-.097-.039-.218.107-.364.27-.336 1.025.18 1.925-.576 2.959-.378.145.027.344-.23.5-.343a2.21 2.21 0 0 0 1.616.349c.704-.111 1.426-.013 2.075.282a3.64 3.64 0 0 1 1.576 1.379v.779zm50.171 80.373c-.501-.096-.655-.608-1.005-.837-.184-.828.276-1.724-.363-2.471a3.75 3.75 0 0 1 1.368-.849c-.163.534.459.851.362 1.397-.078.442.105.956-.048 1.353-.216.437-.324.919-.314 1.407z" fill="#ee9ed5"/><path d="M202.169 215.134l.612.613.33-.301c.294.512.887.354 1.361.521.555.196.754.879 1.39.83.135.588.738.688 1.092 1.048l1.2 1.203a2.37 2.37 0 0 1-1.179 2.326c-1.161.829-2.542 1.294-3.967 1.335-.756.015-1.476.481-2.277.324-.367.538-.925.3-1.412.346-1.006-.115-2.024-.006-2.983.319a1.27 1.27 0 0 1-.582.122c-.201-.005-.398-.058-.575-.154-.531-.437-1.086-.205-1.623-.288-.935-.143-1.881.212-2.834-.258-.776-.382-1.796.212-2.583-.434-1.198.246-2.308-.43-3.486-.341-1.017.076-1.916-.775-2.87-.271-.434-.362-.645-.825-1.177-.816-.202-.268-.325-.589-.354-.924s.037-.671.191-.971c-.687-.422-1.447-.713-2.241-.856-.051-.562-.534-.823-.847-1.213v-1.739c-.506-.339-1.114.016-1.639-.227-.155-.216-.48-.329-.432-.682.017-.05.019-.128.053-.148a2.92 2.92 0 0 1 1.503-.114c.511-.006.855-.397 1.412-.399a8.36 8.36 0 0 0 4.005-.306c.481.545.95-.096 1.445-.02a6.46 6.46 0 0 0 1.724.009c1.279-.15 2.614.405 3.845-.309 1.107.671 2.317.225 3.476.303 1.15-.053 2.301-.033 3.447.06a19.15 19.15 0 0 1 4.679 1.198c.42.202.79-.023 1.296.214zm-89.319-42.046a1.96 1.96 0 0 1 .901-.304l5.354.037a20.68 20.68 0 0 0 2.796.338c.929-.022 1.848.198 2.667.637a1.68 1.68 0 0 0 .673.041c.549-.082 1.109-.039 1.64.124a3.72 3.72 0 0 1 1.425.822 2.01 2.01 0 0 1 .931.274c.284.165.522.398.695.678.262 1.141-.617 1.841-.902 2.872-1.208-.179-1.608 1.051-2.566 1.33-.899.434-1.769.925-2.606 1.47a18.75 18.75 0 0 0-4.907 1.259 8.89 8.89 0 0 1-2.887.535l-7.76-.008-.325-.92-.308.313a7.7 7.7 0 0 1-3.498-1.132c-1.057-.655-1.939-1.556-2.572-2.627-.215-.6.327-1.414-.336-2.025.746-.731.458-2.077 1.618-2.605.885.131 1.729-.625 2.67-.328.789-.959 2.045-.446 2.898-1.068.279-.052.388.186.556.326 1.237-.462 2.596-.476 3.843-.039zm-6.94-4.786l.353.33a.56.56 0 0 0 .631-.302l.478.307c.36.121.438-.333.758-.345.288-.165.352.452.647.242a1.97 1.97 0 0 1 .948-.342c.34-.03.682.029.993.172.564.248 1.184.339 1.796.265l5.013.026c.65.014 1.354-.235 1.947.317.124.115.446.013.676.017.891.018 1.659-.67 2.708-.115.723.382 1.828-.048 2.704.146 1.738.383 3.528.048 5.211.381a39.37 39.37 0 0 1 5.889 1.184 8.72 8.72 0 0 0 3.956.501c.324-.039.421-.369.638-.368l1.387 1.544.223-.222c.107.016.213.039.318.068l4.097 1.378c.788.44 1.478 1.035 2.03 1.75a6.67 6.67 0 0 1 1.178 2.407l.4-.315c.943.674.89 2.256 2.256 2.567-.231.306-.544.129-.808.181a3.35 3.35 0 0 1-1.196-1.546v2.958l-.674.825c-1.086-.743-1.99-1.723-2.644-2.865-.671-1.099-1.221-2.267-1.64-3.484-1.119.085-2.06-.756-3.073-.328-.569-.467-1.266-.753-1.999-.818l-.133-.513c-.099-.04-.2-.119-.296-.114a5.42 5.42 0 0 1-3.209-.612c-.149-.072-.316-.101-.481-.082-1.045.029-2.083-.178-3.036-.605-.772-.156-1.565-.174-2.342-.053a3.27 3.27 0 0 0-2.549-1.063c-1.993.162-3.921-.591-5.909-.355-.346.041-.464-.274-.741-.365-.323.204-.69.326-1.071.358a2.38 2.38 0 0 1-1.115-.178 2.13 2.13 0 0 0-1.175-.243c-.406.034-.795.183-1.119.431-.467-.058-.604-.423-.897-.641-.258-.04-.349.307-.66.3l-5.014-.02c-.276.029-.556-.026-.801-.157-.288-.179-.619-.279-.958-.29s-.676.067-.975.228c-.896.587-1.743.144-2.502.019-1.348-.149-2.707-.171-4.059-.065-.206.004-.337.156-.63.001-.179-.089-.375-.139-.575-.148a1.44 1.44 0 0 0-.585.096 7.84 7.84 0 0 1-3.155.322 16.53 16.53 0 0 0-4.234 1.051 20.8 20.8 0 0 0-2.764 2.128c-.722.487-.831 1.178-1.27 1.73a4.55 4.55 0 0 0-.74 1.947c-.107.46-.492.604-.704.93.094 1.292-.506 2.509-.382 3.83a9.47 9.47 0 0 1 .269 3.898h-1.492c-.34-.366-.322-1.048-.777-1.436-.264-.693.309-1.513-.38-2.118-.03-.026-.013-.108-.017-.163-.058-.674.741-1.334.305-1.905-.587-.767-.028-1.332-.005-1.994a6.89 6.89 0 0 1 .51-1.889 7.18 7.18 0 0 1 1.305-2.046 2.19 2.19 0 0 0 .514-.801 2.2 2.2 0 0 0 .128-.943c.295-.202.594-.14.801-.398 1.137-1.664 2.887-2.811 4.867-3.19a8.85 8.85 0 0 1 2.82-.745c.927.008 1.844-.519 2.791-.294.632.15 1.029-.595 1.583-.35.684.303 1.317-.074 1.968-.01.551-.002 1.099.082 1.623.249a1.79 1.79 0 0 0 1.074.207c.371-.044.718-.203.994-.455zm117.426 63.959c-.417.306-.465.835-.194 1.041.448.34-.262.545.018.768.394.315.222.75.201 1.121 0 .338.133.661.37.902l-.766 2.082c-.656.425-1.453.575-2.218.417-.587-.74-.337-1.725-.921-2.56l.833-.49c-.83-.953.065-2.125-.724-2.989l.334-.37c-.315-1.118-.786-2.185-1.399-3.171.286-1.226-.607-2.182-1.04-3.313l.304-.379c-.888-1.199-1.595-2.521-2.1-3.925l-1.219-.519c-.245-.318.142-.93-.432-1.162.192-.79-.438-1.122-.888-1.523-.729-.689-1.374-1.461-1.922-2.301a13.92 13.92 0 0 1-2.533-1.444c-.649-.472-1.365-.845-2.124-1.105l-4.59-1.869c-.145-.059-.21-.29-.651-.11l-.223.159c-.386-.116-.744-.313-1.047-.579-.151.154-.345.258-.557.298a1.05 1.05 0 0 1-.627-.077c-1.148-.639-2.444-.966-3.759-.948-.512-.547-1.305-.137-1.848-.543-.062-.056-.135-.097-.214-.123s-.163-.034-.246-.025c-1.478.214-2.877-.519-4.355-.359-.221.039-.447.033-.665-.018a1.65 1.65 0 0 1-.605-.276c-.332-.241-.983.089-1.372-.362-.317.5-.82.311-1.252.313-2.768.013-5.536.041-8.303-.013-.831-.033-1.66.105-2.436.404-.765.254-1.542.466-2.33.635a4.54 4.54 0 0 0-2.093 1.196c-.233.209-.55.497-.806.477-.905-.073-1.218.739-1.748 1.144-1.335 1.395-2.768 2.693-4.287 3.885-.15.896-.987 1.099-1.56 1.581-.559.47-1.046 1.025-1.737 1.716l-.368-1.02c.256-.371.435-.788.528-1.229.165-.2.499-.068.709-.326.399-.488 1.094-.846 1.257-1.383.176-.581.758-.581.986-1.126.296-.766.866-1.393 1.599-1.762.759-.36 1.165-1.225 1.799-1.815.95-.916 2.057-1.653 3.269-2.177.601-.228 1.172-.526 1.704-.888a7.43 7.43 0 0 1 2.91-.908c1.587-.439 3.216-.708 4.86-.802.667-.114 1.352-.003 1.949.316.16.07.342.075.506.014a.67.67 0 0 0 .373-.341c.252.439.68.308 1.065.363.374.053.657-.563 1.132-.042.238.261.701-.134 1.048-.326.525.245 1.062.705 1.601.012.865.431.865.431 1.813-.013.978.489 2.059.734 3.152.716.655-.046 1.358-.175 1.846.413l.456-.417c.615.674 1.467.082 2.096.37.709.246 1.435.444 2.171.592a7.81 7.81 0 0 1 2.032.755c1.834-.021 3.647.404 5.28 1.24.439.19.896.336 1.363.438 1.528.25 2.932.997 3.992 2.126h1.033c.793.695 1.316 1.639 2.36 2.138.897.43 1.039 1.843 2.224 2.094.268.847.783 1.596 1.479 2.15v1.17l.475.371c1.128 1.047 1.918 2.407 2.268 3.906a16.65 16.65 0 0 1 .945 2.043 3.2 3.2 0 0 0 .839 1.917c-.125 1.356.221 2.714.98 3.845zM55.414 220.569c-.747.166-1.447-.098-2.179.337-.562.334-1.409-.148-2.098.363a1.25 1.25 0 0 1-.583.144 1.26 1.26 0 0 1-.583-.143c-.8-.559-1.655-.301-2.47-.294a8.96 8.96 0 0 1-4.826-1.311c-.916-.552-.969-.556-1.296-1.872a1 1 0 0 1 .326-.467c.152-.121.335-.195.528-.214a1.45 1.45 0 0 0 .691-.354c1.433-1.184 3.203-1.886 5.058-2.007.725-.19 1.412-.81 2.31-.178-.049-1.218 1.095-1.125 1.545-1.974-.864.191-1.555-.058-2.374.312-.621.281-1.506.157-2.166.464-.607-.278-.87-.656-.685-1.253.545-1.015 1.814-.559 2.567-1.215 1.137.2 2.166-.583 3.314-.352 1.017.205 1.928-.453 2.969-.376.958.071 1.921.044 2.873-.079a12.12 12.12 0 0 1 3.367.22 17.27 17.27 0 0 1 2.463.718c.097.03.165.156.377.368.198.387-.285 1.144.404 1.467-.277.791-.633 1.552-1.064 2.271a14.48 14.48 0 0 1-3.117 3.052c-1.036.687-2.386.746-3.275 1.699a2.77 2.77 0 0 0-1.108.124 2.76 2.76 0 0 0-.969.55zm141.034-34.858c-.629-.485-1.204-.648-1.779-.258-.085.075-.184.131-.292.165s-.222.043-.334.029a.79.79 0 0 1-.56-.342c-.508.277-1.035.518-1.578.72-.374.122-1.251.015-1.059.939h-1.25c-.107-.131-.165-.294-.166-.463a.73.73 0 0 1 .163-.464 6.62 6.62 0 0 1 2.705-1.785 10.86 10.86 0 0 1 4.368-.73c.414.039.944.258 1.219-.307.279.084.374.505.888.184l.286-.265c.323.21.685.352 1.064.42a2.88 2.88 0 0 0 1.144-.028 7.85 7.85 0 0 1 2.033.524 32.42 32.42 0 0 1 4.705 1.559c1.288.546 2.402 1.433 3.223 2.566-.627 1.1-.627 1.1-2.441 1.632-2.958-2.215-6.424-3.655-10.08-4.189-.247-.532-.802.178-1.165-.316-.172-.235-.743-.03-1.094.409zM41.074 226.373v-1.542c.475-.019.181.448.404.549a4.31 4.31 0 0 0 .719.327 12.93 12.93 0 0 0 1.726.407c1.891.062 3.68.848 5.582.723.515-.033.925.705 1.385.315.52-.442.847.161 1.299.062a7.42 7.42 0 0 1 1.548-.024c.336.001.674-.057.929.283.07.046.149.075.232.084a.54.54 0 0 0 .245-.03 12.98 12.98 0 0 1 5.041-.297c.754-.009 1.322-.748 2.055-.33l.777-.741h1.734c.312.451 1.016.649.852 1.385-.167.411-.459.76-.836.995a2.11 2.11 0 0 1-1.262.314 15.69 15.69 0 0 1-3.825.423c-.34-.064-.699-.048-.823.473-.998-.944-2.305-.022-3.246-.848-.353.22-.752.355-1.165.397a2.73 2.73 0 0 1-1.221-.156c-.186-.049-.346-.267-.596-.22-1.195.226-2.296-.497-3.482-.344-.257.033-.405-.192-.589-.241a6.79 6.79 0 0 0-2.579-.468 2.66 2.66 0 0 1-1.429-.288 13.12 13.12 0 0 0-2.804-.723c-.335-.067-.431-.347-.67-.485zm106.395-25.791c-1.542-.217-2.796.234-4.117-.46-.229-.068-.313.43-.734.418a20.93 20.93 0 0 0-6.522 1.293c-.692.206-1.48-.244-2.095.349-.439-.497-.794.199-1.244.087a5.3 5.3 0 0 0-1.29-.022c-.147-.322-.174-.685-.077-1.025 1.281.2 2.307-.847 3.605-.728.493-.762 1.478.093 1.99-.606a5.19 5.19 0 0 0 2.057-.454 7.06 7.06 0 0 1 2.797-.277c.563.053.917-.36 1.41-.374.796-.059 1.595.073 2.329.386s1.382.798 1.891 1.413zm79.741 9.757c-.066-.281-.023-.576.121-.826a10.71 10.71 0 0 1 1.958.902c.644.267 1.379.135 2.009.588.596.43 1.383.594 1.981 1.022.579.414 1.352.479 1.832 1.11v1.277c-1.119-.328-2.012.458-3.417.283a3.51 3.51 0 0 1 1.706 1.32 6.37 6.37 0 0 1-4.435-1.087c-.352-1.091.649-1.141 1.268-1.64h2.179c-1.809-.845-3.548-1.831-5.202-2.949zM91.802 151.398c.58.387.474.959.389 1.613a37.64 37.64 0 0 1-8.744 1.471c-.305-.355-.154-.649-.188-.911.222-.454.701-.543 1.086-.725a6.59 6.59 0 0 1 1.526-.478 14.25 14.25 0 0 1 5.931-.97zm63.875 17.244c.543-.05 1.089-.04 1.63.031.342.03.681.087 1.014.172a3.16 3.16 0 0 0 1.492.127c.471-.01.854.295 1.239.325 1.314.1 2.64.052 3.961.033.33-.024.662.026.971.144a2.26 2.26 0 0 1 .818.542c.176.186.236.364.058.707-.844.036-1.685.132-2.516.286a6.24 6.24 0 0 1-3.311-.253 29.37 29.37 0 0 0-4.016-.693 3.26 3.26 0 0 1-1.739-.843c-.023-.254.26-.298.399-.578zM36.864 234l.425-.473c.336-.129.703-.158 1.055-.082a1.85 1.85 0 0 1 .929.508 12.34 12.34 0 0 0 2.42 1.237 18.18 18.18 0 0 1 3.487 1.92c.05.043-.008.214-.016.324-.385.401-.593.035-.864-.218a15.95 15.95 0 0 1-5.541-1.085c-.9-.159-1.183-.668-1.895-2.131zm117.127-66.397c-.194-.309-.665-.406-.417-.981 1.172.02 2.356-.453 3.653-.444a15.79 15.79 0 0 1 3.772-.231c.157.136.093.305.076.469-.222.282-.537.067-.965.251l-.455.562c-.544.115-.998-.126-1.408.256-.159.121-.35.193-.549.206a1.03 1.03 0 0 1-.572-.131c-.317-.221-.695-.337-1.081-.333a1.87 1.87 0 0 0-1.075.353c-.261.142-.664.023-.979.023zm-27.321 50.339l.71-.882c1.492.643 2.47 1.889 3.862 2.499a2.47 2.47 0 0 1 .031 1.359h-1.524a7.83 7.83 0 0 0-1.594-1.534c-.686-.364-.739-1.137-1.485-1.442zm101.814-14.569c-2.423-.29-4.293-1.803-6.5-2.21.019-.434.016-.634.356-.656 1.253.066 2.487.33 3.657.783.593.149 1.197.441 1.813.599.718.183.846.634.674 1.484zM52.453 188.916l-2.375 1.175H47.73l-.319-.669c.947-.604 1.983-1.056 3.07-1.337.677-.28 1.383.195 1.971.831zm-14.128 50.252c-1.258.109-2.108-.335-3.511-1.775v-.681c.263-.325.831-.028.894-.798 1.101 1.123 2.206 1.872 2.616 3.254zm189.741-33.894c-2.079 1.158-2.517 1.143-4.693-.536-.013-.404.339-.538.636-.832 1.095.969 2.63.66 4.057 1.368zM111.336 63.673h2.408c.826.261.424 1.154.955 1.524-.081.244-.445.361-.303.72l.333.356c-.535.356-.282.917-.352 1.395l-.609.61c-.077.208.155.235.266.481l-.615.164.197.248h-2.492c-.558-.176-1.031-.555-1.324-1.062a2.35 2.35 0 0 1-.261-1.677c.116-1.158.251-2.287 1.797-2.759zm4.628 15.638l-.526-.591c-.07-.439.269-.541.492-.861.904.315 1.726-.386 2.68-.339l2.749.035c.51.05.74-.453 1.237-.394a3.84 3.84 0 0 0 1.268-.203 12.66 12.66 0 0 1 2.851-.066c.201.114.355.295.437.51a1 1 0 0 1 .015.672 2.68 2.68 0 0 1-1.013.69 2.67 2.67 0 0 1-1.215.165 8.45 8.45 0 0 0-2.74.028c-2.066.284-4.151.403-6.235.355zm14.377-16.72c-.116.53.255.701.28.914.048.651.058 1.305.029 1.957-.263.663-.7 1.244-1.265 1.68a7.36 7.36 0 0 1-2.796-.764c-.298-.352.245-1.056-.617-1.193a1.83 1.83 0 0 0 .469-.768c.09-.291.105-.6.045-.899l.882-.892c.56.273.885-.396 1.405-.346.492.047.85.549 1.568.311zm-19.549 50.291l-.901-.901c.074-.419-.195-.914.357-1.357a2.42 2.42 0 0 1-.93-1.494l.209-.242-.359-.397c1.037-.51 1.787-1.4 2.86-1.893 1.171-.538 2.442-.741 3.61-1.302.636-.306 1.549.092 2.25-.398 1.085.24 2.056-.483 3.139-.359.598.068 1.081-.5 1.76-.36.27.079.555.092.832.039a1.77 1.77 0 0 0 .757-.345c.352-.296.703.444 1.137.112.351-.267.771-.114 1.156-.118l4.834-.022c.59-.014 1.212.228 1.786-.3.181-.089.38-.136.582-.137a1.32 1.32 0 0 1 .583.133c.57.273 1.06.531 1.607.02.508.626.958.12 1.467-.024.456-.041.915-.054 1.373-.036.641-.088 1.096.491 1.761.381a2.26 2.26 0 0 1 .915-.032 2.27 2.27 0 0 1 .853.334c.191.136.56.022.865.022a3.98 3.98 0 0 0 1.7 1.285 2.05 2.05 0 0 1 1.227 2.194 19.49 19.49 0 0 1-6.739 3.077 5.34 5.34 0 0 0-2.622.564c-.096.047-.201.163-.28.146-1.145-.246-2.173.506-3.313.367-.718-.13-1.458-.012-2.1.336a4.05 4.05 0 0 1-2.101.353c-.59.016-1.23-.19-1.741.301a1.11 1.11 0 0 0-1.522-.125c-.596.34-1.224.101-1.834.152-.572-.053-1.147-.04-1.716.039a15.59 15.59 0 0 1-4.529.314c-.525.085-1.064.002-1.539-.237-.42.477-.973.143-1.455.24-1.366.275-2.63-.599-3.939-.33zm13.509-2.746c.125.09.214.324.5.311.717-.031 1.432-.226 2.109-.283a24.08 24.08 0 0 1 4.578-.419c.228.024.577.101.672-.012.661-.795 1.612-.048 2.395-.53.707-.436 1.67-.073 2.491-.163.122-.125.26-.234.409-.325.955-.415 2.029-.36 2.989-.715.884-.326 1.928-.207 2.662-.924.035-.448-.342-.565-.594-.816a3.01 3.01 0 0 1-1.284-.069c-.418-.116-.806-.32-1.138-.6-2.225 0-4.415.029-6.604-.019a3.68 3.68 0 0 0-1.657.465c-.004-.092-.032-.182-.082-.259a.53.53 0 0 0-.2-.184c-.082-.042-.173-.063-.266-.06a.53.53 0 0 0-.259.081c-.794.5-1.641.26-2.465.322-1.918-.158-3.848-.041-5.733.347-1.362-.188-2.638.592-4.006.353-.166-.036-.339-.019-.494.049a17.59 17.59 0 0 1-3.753.947c-1.136.326-2.212.829-3.19 1.492-.175.119-.095.304-.091.467.242.393.819-.114 1.023.381-.016.109.004.221.057.317s.134.175.234.221c.821-.557 1.561.447 2.485.286.934-.163 1.926.249 2.834-.257a2.34 2.34 0 0 0 2.385-.123c.8.366.902.48 1.286.352.919-.132 1.825-.343 2.707-.633z" fill="#1a202c"/></svg>