<svg width="79" height="11" viewBox="0 0 79 11" fill="none" xmlns="http://www.w3.org/2000/svg">
<path d="M2 4.32783C8.66651 4.32783 15.3454 3.70856 21.9993 3.31046C27.0166 3.01029 32.0453 2.76162 37.0725 2.76162C40.65 2.76162 44.1304 3.11282 47.6946 3.42425C50.3006 3.65196 54.0597 4.39137 55.278 7.09883C56.1761 9.09444 50.4589 8.70168 49.4416 8.30361C48.1839 7.81149 46.6451 6.98712 47.6076 5.41214C47.9147 4.90961 48.5886 4.54283 49.1069 4.31445C50.4523 3.72155 51.8987 3.22136 53.3236 2.85533C56.382 2.06968 59.6393 2.11937 62.7811 2.04545C64.0856 2.01475 65.4674 1.9329 66.7636 2.11238C67.6409 2.23385 68.4734 2.68771 69.3472 2.75493C70.8896 2.87357 72.5032 2.84041 74.0458 2.8821C75.1267 2.91131 75.9044 3.07697 76.6964 3.60497" stroke="#6D57CB" stroke-width="3" stroke-linecap="round"/>
</svg>
