<svg xmlns="http://www.w3.org/2000/svg" width="358" height="358" fill="none" xmlns:v="https://vecta.io/nano"><path d="M222.319 102.988c-1.109-.583-.209-1.167.028-1.831-1.366-1.378.865-2.825-.14-4.102.928-1.265 2.41-1.55 2.973-2.561.516-.564.084-1.161.609-1.585.419-.339.808-.284 1.458-.325l1.153-1.436a48.5 48.5 0 0 1 5.558-1.433 1.79 1.79 0 0 0 .751-.312c.435-.367.944-.634 1.493-.784s1.124-.177 1.685-.08c.936-1.065 2.368-.649 3.356-1.362 1.854.296 3.59-.66 5.454-.477 1.513.289 3.079.059 4.445-.652.587-.37.838.695 1.259.13.339-.456.781-.351 1.212-.353 1.501-.092 3.006-.078 4.504.042 1.443.2 2.945.171 4.306.504a15.38 15.38 0 0 0 3.895.324 7.92 7.92 0 0 1 2.297.472c.685.195 1.404-.217 2.143.311.458.328 1.273.157 1.931.21a3.05 3.05 0 0 0 1.155.933c.456.211.957.307 1.458.278 1.177-.051 1.614 1.411 2.668 1.011.925 1.461 2.081 2.762 3.424 3.852a14.26 14.26 0 0 1-2.171 9.398c.057.531.69.074.834.524v.799c.346.787 1.435.653 1.678 1.348a1.99 1.99 0 0 0 1.512 1.402 3.67 3.67 0 0 0 .096 1.817 3.68 3.68 0 0 0 .955 1.548c.564.498.116 1.139.336 1.718l2.21 2.197c0 .302-.128.75.02.879.955.828 1.328 2.069 2.113 2.948.554.62.274 1.452.896 1.916.078 1.202.447 2.367 1.074 3.395a37.6 37.6 0 0 0 2.206 4.309c-.537 1.495-.837 3.064-.891 4.651l-.843.675v1.985a14.21 14.21 0 0 1-5.734.684c-.866 1.264 1.174 2.463-.29 3.559.951 1.795 1.302 3.848 1 5.857-1.287-.241-1.154 1.419-2.196 1.597.034 1.066-.965.93-1.514 1.153-.844.342-1.859.921-2.697.442-.913-.521-2.022-.127-2.725-.924-1.001.811.143 1.662-.244 2.549a7.75 7.75 0 0 0-.068 2.787l.59.451c.774 1.43-.434 2.423-.206 3.611a6.71 6.71 0 0 1 .447 3.337c.451 1.14 1.567 2.006.552 3.406-.357.492-.057 1.461-.057 2.44l1.381 1.149c-.505 1.238-.505 1.238-.035 2.889.006.664-.895.762-.911 1.677l.865.268v1.962l1.053.718-.547.612.514.557c-.427.854-.969 1.783-.064 2.698-.093.621-.848 1.098-.307 1.893l1.19.097c-.371.98 1.222 1.859-.081 2.998.271.378.456.812.541 1.269s.068.929-.05 1.38c-.665.646-1.1 1.493-1.24 2.41a4.26 4.26 0 0 0 .467 2.669l-1.406 1.178c-.039.152-.029.313.03.459a.74.74 0 0 0 .294.353 15.52 15.52 0 0 1-2.677 5.384 32.01 32.01 0 0 0-2.89 3.082c-.585-.186-.786.689-1.382.495a12.5 12.5 0 0 1-1.795 3.061c-.926.882-1.043 2.004-1.74 3.132a5.13 5.13 0 0 1-3.135.553c-1 .033-2.069-.296-2.97.438-.389.089-.428-.377-.558-.393-.624-.227-.775.262-1.118.402-1.199-.778-2.557-.342-3.882-.481a14.81 14.81 0 0 0-5.126-2.292c-.123-.957-1.055-1.338-1.503-2.048v-.86c-1.193-.184-1.432-1.251-1.984-2.355l-1.626-.74c-.121-.7-.102-1.416.056-2.108.215-.306.334-.669.341-1.042s-.097-.74-.3-1.054c.835-.482-.575-.848-.086-1.232.59-.463.397-1.06.446-1.632.042-.493.188-1.002.256-1.453a28.92 28.92 0 0 0 .075-4.245c-.479-.203-.188-.975-.886-1.289l.936-.578c.029-.848.338-1.573-.464-2.212.81-1.004.436-2.215.558-3.405.336-.476.361-1.179 1.067-1.584-.816-.789-.629-1.69-.646-2.578l.896-.942c.283-.57-.596-.677-.385-1.378.776-.382.78-1.42 1.201-2.235-.451-.286-.203-1.076-.918-1.326 1.459-.435 1.176-2.167 2.352-2.617v-1.445c-.228-.427-.841-.595-.897-1.155.12-.502.562-.703.843-1.059-.618-.546-.179-1.522-.835-2.062-.15-.459.578-.495.395-1.153-.968-.735-.598-2.221-1.349-3.456-.099-.294.502-.392.506-.793.148-.443-.522-.508-.458-.918 1.149-2.237.021-4.342-.233-6.835.634-1.257.753-2.711.331-4.054a12.42 12.42 0 0 1-.094-4.239c.338-.747 1.162-.832 1.728-1.269 1.882-1.457 3.399-.996 4.625 1.256.045.061.098.115.157.161.918-.559-.348-1.239.141-2.003a3.4 3.4 0 0 0 .067-2.406l-.68-2.3c.066-.035.125-.084.171-.143s.08-.127.099-.2a.54.54 0 0 0 .008-.223c-.012-.074-.04-.145-.082-.207-.078-.04-.201-.154-.327-.158a4.55 4.55 0 0 1-3.306-.757c-.613-.551-1.494-.125-2.299-.405-1.333-.464-2.537-1.158-3.796-1.735a4.58 4.58 0 0 0-1.47-.273c.3-.919 1.496-1.202 1.508-2.26 1.256.121 2-.841 2.97-1.064.098-1.17.972-1.167 1.704-1.284l1.625-1.627c1.862-.398 2.07-.539 2.66-1.647 1.285-.686 2.614-1.288 3.978-1.802-.13-.782.693-.929.903-1.483-.088-.631.168-1.315-.226-1.777-1.266-.595-2.678-.808-4.064-.615-1.199 1.324-3.021 1.78-4.045 3.173a1.7 1.7 0 0 0-.688.035 1.68 1.68 0 0 0-.616.308 41.64 41.64 0 0 1-4.776 3.194 28.64 28.64 0 0 0-5.055 3.532c-.263.276-.563.094-.84.155.068-.464-.742-.586-.425-1.165.034-.198.576-.221.22-.645a33.6 33.6 0 0 0-4.039 1.391c-1.326.759-2.805 1.211-4.329 1.322h-1.836l-1.023-1.298c-.673.024-1.345-.086-1.974-.326s-1.205-.603-1.692-1.069c-1.278.186-2.115-1.277-3.438-.921-.924-.928-2.339-.933-3.403-1.807-.652 0-1.396.009-2.14-.012-.083-.002-.163-.167-.192-.2l.935-1.823c-.134-.024-.26-.081-.367-.166s-.19-.196-.243-.321-.074-.263-.061-.398a.83.83 0 0 1 .137-.379c.533-.682.265-1.409.427-2.093.271-1.148-.65-2.082-.471-3.191.696-1.229 1.996-1.397 3.159-1.807-.792 1.057-.319 2.272-.463 3.319.346.412.774.709.88 1.096a1.24 1.24 0 0 0 .363.693c.193.185.441.303.707.335 1.127-.826 2.123-1.818 2.953-2.942.069-2.579 1.077-5.043 2.835-6.931v-1.748l.849-.819v-1.274a11.59 11.59 0 0 0 1.768-3.491c-.136-.6-.457-1.143-.916-1.552s-1.037-.665-1.649-.73c-.422-.307-.589.39-.996.525-.73.186-1.385.59-1.88 1.157a3.7 3.7 0 0 0-.889 2.02c-.06.426-.206 1.117-.855 1.307zm33.294 3.091c-1.136 1.178-3.147.473-4.3 1.879-1.267.126-2.467.631-3.444 1.449a14.52 14.52 0 0 0-2.965 2.113 17.98 17.98 0 0 0-4.599 5.129c-.648 1.387-1.647 2.58-2.9 3.46l-.467-.388c-.345.517-.113 1.052-.184 1.567l1.132 1.108c1.246.231 2.534.048 3.666-.52.494-.994 1.121-1.916 1.863-2.741.848-.98 1.642-2.006 2.379-3.072a11.91 11.91 0 0 1 4.082-3.92c1.614-.603 3.067-1.571 4.248-2.827h.895c.268-.995 1.414-1.092 1.905-1.874a1.16 1.16 0 0 0 .129-.622l-1.44-.741zm-17.649-5.267c-1.943 1.134-2.519 3.245-3.846 4.784-.607.703-1.055 1.649-1.659 2.448-.297.392-.767.882-.661 1.51.016.716-.216 1.415-.656 1.981a12.34 12.34 0 0 0-1.395 3.244c-.258 1.365-.773 2.668-1.517 3.841.518.407.433 1.256 1.121 1.523h2.3c1.206-1.384 2.048-3.045 2.452-4.836.131-1.2.635-2.329 1.44-3.229a3.42 3.42 0 0 0 .752-1.254 15.1 15.1 0 0 1 2.584-4.518c.544-.929.736-2.022.541-3.08-.634-.76-.681-1.801-1.456-2.414h0z" fill="#ee9ed5"/><g fill="#1a202c"><path d="M266.295 290.504c-.279-.635-1.051-.344-1.321-.968-2.191.401-4.307-.7-6.527-.424-1.209-.564-2.572-.707-3.871-.404-1.079.083-1.916-.643-2.977-.525a6.72 6.72 0 0 1-3.124-.053 17.58 17.58 0 0 0-2.947-.47c-.774-.292-1.449-.799-1.944-1.462a1.77 1.77 0 0 1-.031-1.101c.107-.361.326-.678.625-.906a19.27 19.27 0 0 0 3.714-.592c1.271-.127 2.467 1.337 3.696.091.708.374 1.449.771 2.225.29a1.24 1.24 0 0 1 .787-.271c.286.003.562.105.781.289.566.381 1.304.126 1.963.129.477.003.946.779 1.445.025.046-.07.287-.009.438-.009.075 0 .197-.03.218.004.327.531.882-.04 1.126.174.212.149.455.25.71.294s.518.033.768-.035c3.192-.221 6.322.776 9.514.465.742-.073 1.268.634 2.075.482.728-.2 1.499-.188 2.221.035.572.154 1.158.254 1.749.297a2.97 2.97 0 0 0 2.869-.4c.548.551 1.526.335 2.254 1.006 1.386-1.397 2.813.206 4.303-.01a6.17 6.17 0 0 1 4.347.53c.661-.446.238-.992.556-1.412l.591-.124c.328-.328.259-.894-.263-1.973.822-.628.249-1.535.461-2.215a19.69 19.69 0 0 0 1.95-6.529l.726-.769a.97.97 0 0 1-.473-.607.98.98 0 0 1 .11-.762 1.9 1.9 0 0 0 .021-2.196c-.131-.269-.204-.563-.214-.863a2.13 2.13 0 0 1 .158-.874c.62-1.14.45-2.485 1.146-3.603.402-.646.24-.882-.305-2.035.282-.532.354-1.199.869-1.642-1.049-1.337.036-2.365.581-3.464l-.529-.735c.019-.143-.011-.37.065-.414.436-.252.263-.845.634-1.099.461-.316-.626-.682.051-.964.238-1.983 1.415-3.795 1.059-5.888-.048-.281.073-.6-.225-.812a2.38 2.38 0 0 1-.214-.212c1.465-1.726 2.34-3.875 2.494-6.133.292-2.969 1.05-5.873 2.244-8.606.276-.638.499-1.298.668-1.973l-.448-.481c-.28-.571.431-.694.466-1.186.18-2.566 1.053-5.014 1.361-7.568a7.08 7.08 0 0 1 .903-1.938l-.508-.698a4.6 4.6 0 0 1 .952-1.718v-3.272l.751-.155c.03-.462-.555-.818-.319-1.3.214-.437.087-.989.26-1.32.227-.467.279-1.001.147-1.503-.123-.628.615-.847.479-1.438l-.376-.425a10.89 10.89 0 0 0 1.242-4.209c-.033-.735.47-1.182.541-1.843.062-.581-.654-1.011-.106-1.706.341-.432-.196-1.322.5-1.798l-.426-.47c.579-.243.289-1.015.869-1.28l-.462-.564c.953-1.9.45-4.276 1.755-6.275l-.396-.508c-.308-.472.709-.674.462-1.269l-.537-.584c.29-.286.515-.63.66-1.009s.207-.786.182-1.191a6.76 6.76 0 0 1 .458-2.443c.419-.801-.339-1.84.6-2.462l-.449-.482a14.77 14.77 0 0 0 .032-2.66c-.052-.5.084-1.002.383-1.406a3.53 3.53 0 0 0 .536-1.736 3.52 3.52 0 0 0-.402-1.771c.445-.744.236-1.852 1.305-2.279-.24-1.099.354-2.26-.477-3.243l.833-.834v-3.443c.705-1.185 1.519-2.267.489-3.603.411-1.119 1.613-2.152.469-3.48-.08-.361.264-.509.362-.758.403-1.016-.381-2.198.483-3.194.667-.769.374-1.889.894-2.795.325-.567-.159-1.579.137-2.188.328-.674.613-1.138.01-1.732a2.12 2.12 0 0 0 .381-.864c.06-.313.049-.636-.032-.944-.098-.972.707-1.741.488-2.755-.078-.465-.054-.941.069-1.396a3.3 3.3 0 0 1 .642-1.241c.135-.358.169-.746.1-1.122-.179-2.09.739-4.068.525-6.144a3.1 3.1 0 0 1 .099-1.508c.157-.486.433-.927.801-1.281l-.36-.352c.072-.43.538-.802.352-1.303-.222-.601.683-.962.417-1.37-.331-.51-.076-.81.017-1.238.044-.569.182-1.127.407-1.652a1.79 1.79 0 0 0 .085-1.166c-.103-.387-.333-.728-.654-.969l1.074-2.041a1.39 1.39 0 0 1-.218-.71c-.007-.252.056-.501.18-.72.257-.457-.041-1.195.078-1.773.112-.542.552-.977.445-1.629-.097-.586.023-1.205-.033-1.802-.057-.618.785-.984.451-1.614-.286-.539.696-.865.109-1.494-.486-.522.666-.948.348-1.562-.286-.552.516-.875.215-1.526-.159-.343.35-.959.251-1.532-.102-.594.914-1.088.408-1.582-.643-.627.081-.988.048-1.47-.039-.573-.188-1.212.539-1.467-.56-.848-.854-1.594-.366-2.37.86-1.37.447-3.03 1.068-4.446-.788-.615.558-1.017.158-1.732a1.58 1.58 0 0 1-.126-.866 1.59 1.59 0 0 1 .353-.801c.431-.535.219-1.314.132-1.948-.093-.672.325-1.088.487-1.624.155-.513-.247-.801-.454-1.165l1.392-4.397c.217-.549-.876-.689-.183-1.309.274-.245.168-.985.133-1.493-.057-.984.271-1.952.915-2.699l.005-1.897a5.65 5.65 0 0 1 .403-2.773c.396-.716-.354-1.762.473-2.523a.92.92 0 0 0 .106-.433.92.92 0 0 0-.108-.433c-.263-.504-.406-1.062-.418-1.631a3.7 3.7 0 0 1 .351-1.647c.374-.856.446-1.814.203-2.717.61-.812.902-1.82.821-2.833a11.35 11.35 0 0 0 .419-2.977c-.063-.339.202-.515.337-.766.326-.606.109-1.13-.615-1.668-.465 0-1.127-.032-1.785.006a10.32 10.32 0 0 1-4.851-.825c-.13-.059-.272-.087-.415-.08-2.293.188-4.504-.717-6.809-.476-.939.12-1.893-.015-2.762-.392-.826-.367-1.9.37-2.755-.464-.192-.188-.739-.095-1.098-.016a8.67 8.67 0 0 1-4.08-.551 13.01 13.01 0 0 0-2.768-.36c-.601-.027-1.349.218-1.771-.057a3.2 3.2 0 0 0-1.877-.396c-.601-.014-1.404.236-1.757-.06-.501-.422-.925-.07-1.369-.19-1.233-.334-2.556-.264-3.798-.65-.149-.026-.301-.027-.45-.005-.629.022-1.202.856-1.79.357-.513-.434-1.018.139-1.576-.289-.392-.301-1.187-.238-1.806-.481-.312-.179-.661-.282-1.02-.3a2.28 2.28 0 0 0-1.045.195c-.593-.706-1.407-.412-2.094-.357a19.66 19.66 0 0 1-4.276-.613c-.119-.016-.214-.201-.222-.208a5.97 5.97 0 0 1-3.891.151 10.01 10.01 0 0 0-4.21-.689c-1.224.201-2.262-.468-3.427-.492-1.089.19-2.21.049-3.218-.404-.428-.159-.897-.165-1.329-.016-1.287.296-2.41-.515-3.652-.47-1.14.011-2.264-.276-3.258-.834-.598-.314-.768.3-1.284.231-.728-.202-1.479-.31-2.235-.321-.891.1-1.803-.005-2.704.032-.811.033-1.443-.603-2.299-.488-.352.114-.728.135-1.092.063s-.702-.237-.984-.477c-.071-.075-.293-.029-.44-.007-2.003.303-3.914-.67-5.903-.441-.839.096-1.43-.622-2.301-.505a2.2 2.2 0 0 1-1.098.093c-.368-.063-.714-.218-1.005-.451-.19-.191-.717-.051-1.089-.053l-2.481-.001a15.16 15.16 0 0 0-2.925.042c-.892.179-1.699-.721-2.555-.071-.811-.852-1.845-.246-2.758-.425-.608-.119-1.185-.717-1.836-.109-.693-.714-1.562-.23-2.343-.322a19.37 19.37 0 0 0-2.254-.019c-.676 0-1.358.05-2.028-.015-.563-.055-1.138.224-1.704-.258-.535-.455-1.592.137-1.876-.236-.473-.619-.91-.018-1.381-.246a4.52 4.52 0 0 0-2.411-.117c-.647.086-1.259-.791-1.886-.031-2.326.136-4.659-.128-6.896-.782-.129-.054-.263-.093-.401-.117-.802-.053-1.517.905-2.27.41-.305-.2-.647-.337-1.005-.404s-.727-.062-1.084.014c-1.506.257-2.84-.621-4.331-.503-1.501.106-3.007.105-4.508-.002-.764-.048-1.457-.607-2.298-.43-.89.188-1.599-.6-2.522-.47a8.8 8.8 0 0 1-2.474-.003 8.71 8.71 0 0 0-2.302-.454c-.426.045-.612.355-.914.477-4.111-1.256-8.411-.552-12.596-1.503a29.32 29.32 0 0 1-2.322 5.272c.528 1.21-.564 2.399-.033 3.657l-1.022.816c.413 2.186-.891 4.25-.396 6.207l-1.304 2.535.36.409-.434.479c-.185.519.48.709.523 1.232a2.56 2.56 0 0 0-.757.904 2.57 2.57 0 0 0-.274 1.147c.051.627-.504 1.281-.665 1.952a23.56 23.56 0 0 0-1.015 2.722c-.094 1.022-.475 1.946-.596 2.937l-3.112 1.75c-1.192.627-2.189-.165-3.201-.574-.802-.324.088-1.534-.879-1.731.449-1.017.777-2.084.977-3.178.052-1.05.847-1.866.984-3.002.291-.995.528-2.006.709-3.027 0-1.157.757-2.036.539-3.088l.84-.221c-1.14-1.323.479-2.513.045-3.705l.918-.919a12.83 12.83 0 0 0-.022-2.009c-.125-.785.695-1.255.518-2.085-.093-.516-.008-1.048.242-1.509.397-.517.63-1.131 1.021-1.655l-.323-.344c.111-.408.781-.905-.009-1.343.281-.468.341-1.05.812-1.425v-2.707l1.75-1.634.127-1.168.792-.304.129-1.085c1.152-.127 2.167-.955 3.379-.506l.833.834h4.457c.601 0 1.462-.246 1.746.055.486.513.928-.156 1.388.236.315.268.983.14 1.494.156.601.02 1.203.005 1.804.005.595-.095 1.201-.084 1.792.032 1.786.445 3.634.584 5.466.411 1.163-.062 2.328.075 3.445.405a14.63 14.63 0 0 1 1.602.494c.63.333 1.004-.433 1.61-.462a18.44 18.44 0 0 1 4.243.703c.319.059.795.361 1 .195.279-.242.618-.403.982-.466a2.02 2.02 0 0 1 1.08.109c.592.279 1.274-.221 1.74.373.058.074.289.026.437.011 3.269-.325 6.472.659 9.741.474 1.371-.078 2.675.7 4.101.448.68-.12 1.429.144 2.033-.389.597.712 1.428.426 2.096.331 1.082-.154 1.924.625 2.98.517a7.18 7.18 0 0 1 3.13.044 22.98 22.98 0 0 0 3.894.411c3.754.493 7.547.621 11.325.381.842.02 1.417.699 2.3.528.792-.254 1.646-.24 2.43.039.85.537 1.813-.789 2.426.358.856-.669 1.694.093 2.551.084 1.94-.049 3.874.233 5.719.832.535.183.949-.222 1.389-.444.504-.145.612.733 1.299.386.593-1.703 1.546-3.259 2.795-4.56.425-.538.374-1.067.578-1.576a4.3 4.3 0 0 0 1.935-1.062c.542-.517.939-1.166 1.152-1.883a12.69 12.69 0 0 1 1.495-2.991 3.04 3.04 0 0 0 .628-1.177c.119-.434.141-.889.063-1.332.428-.383.651-.835 1.197-.735.067-.123.204-.254.191-.368a4.91 4.91 0 0 1 1.271-3.311 3.78 3.78 0 0 0 .992-2.079c.003-.344.199-.407.475-.576a2 2 0 0 0 .739-.87 2.01 2.01 0 0 0 .142-1.132l1.75-1.717.148-1.253c.871.226 1.696-.48 2.438-.302 1.989.323 4.007.433 6.019.327.215-.027.433-.001.635.077a1.31 1.31 0 0 1 .521.37l.556-.506c1.396 1.19 3.307-.145 4.685 1.008.647-.298.874-1.055 1.735-.986.495.04 1.221-.799 1.553-.348.596.81 1.111-.578 1.659.146.295.39 1.134-.749 1.531.242.569-.21 1.039.361 1.535.253.709-.155 1.102.269 1.593.587.739-.592 1.585-.386 2.585-.31-.641 2.23-1.124 4.414-1.912 6.482-.621 1.628-1.308 3.215-1.818 4.898-.502 1.653-1.198 3.304-1.639 4.945-.685 1.623-1.183 3.319-1.484 5.055-.006.167-.285.324-.468.518.064.688 1.004 1.282.164 2.161a2.06 2.06 0 0 0-.228.848 2.07 2.07 0 0 0 .144.866c.193.561-.747.787-.231 1.3l.157.157c-.125.357-.483.196-.735.335a3.95 3.95 0 0 1-.958 2.166c2.231.06 4.457.242 6.668.544a24.66 24.66 0 0 1 8.465 1.278c1.635-.304 3.131.664 4.78.482 1.337-.148 2.705.005 4.056-.041a3.44 3.44 0 0 1 1.516.146 3.43 3.43 0 0 1 1.303.787 43.7 43.7 0 0 1 7.221.536c2.111.077 4.212.88 6.397.801 1.23.986 2.841.021 4.177.84.328.192.715.259 1.088.188s.709-.275.944-.574c.627.754 1.254.563 1.895-.016.644.003 1.017.969 2.08.124-.481 1.916.609 2.91 1.253 4.646a6.43 6.43 0 0 1-.877 3.65l.409.45-1.802 6.012a2.69 2.69 0 0 0 .018 1.779c.384 1.095.527 2.261.421 3.416-.178.35-.54.201-.772.34l-1.662 5.206a5.52 5.52 0 0 0-.275 1.457c-.031 1.053.321 2.273-.1 3.116-.434.868-.008 1.882-.77 2.65-.263.265-.094 1.019-.026 1.537a1.61 1.61 0 0 1-.417 1.143l.642.643c-.374 2.239-.61 4.499-.704 6.767.018.356.358.429.428.707l-.882.883c-.017 2.062-.23 4.117-.635 6.138a24.05 24.05 0 0 0 .2 2.668c.042 1.013-.096 2.025-.408 2.99-.172.52-.971 1.062-.461 1.57.623.622-.136.997-.028 1.466.21.914-.941 1.788-.397 2.477.58.733-.672 1.512.299 2.009-.394.465-.26 1.051-.384 1.576-.38 1.596-.615 3.223-.964 4.808-.356 1.623-.05 3.256-.421 4.787a32.73 32.73 0 0 1-1.18 6.054 2.92 2.92 0 0 0-.23 1.507 2.91 2.91 0 0 0 .564 1.417 9.82 9.82 0 0 0-.85 3.249c-.029.857-.209 1.703-.531 2.499a3.58 3.58 0 0 0-.381 2.53c.128.664-.419 1.095-.271 1.754.002.595-.09 1.186-.273 1.753-.07.564-.756 1.071-.005 1.642-.698.502-.416 1.251-.368 1.866a5.06 5.06 0 0 1-.915 2.738 3.2 3.2 0 0 0 .447 2.365c-.327.474-.305 1.178-.561 1.546-.289.509-.41 1.097-.347 1.679a14.36 14.36 0 0 0 0 1.58c.023.479-.816.956-.005 1.433-.348 1.143-1.709 2.155-.413 3.547-.493.758-.375 1.76-1.056 2.425l.532.633-.398.457.48.53c-.582.827.069 2.009-.541 2.739-.793.949-.211 2.074-.756 3.103-.467.881-.039 2.21-.124 3.332.138 1.098.05 2.213-.257 3.277-.488 1.017-.049 2.203-.265 3.583l-.86.862c-.104.308.472.418.506.841-.335.505-.314 1.224-.63 1.715-.349.541.292 1.042-.225 1.603-.3.325-.055 1.154-.055 1.757v2.029l-.813.3c-.387.544.312.735.37 1.14-.016.618-.628.787-.91 1.21 0 .897-.297 1.956.075 2.664.457.87-.409 1.418-.096 2.159.276.654-.258 1.227-.425 1.838-.148.545.416.962.097 1.702a14.74 14.74 0 0 1-.978 1.609c1.007.715.072 1.404-.015 2.117-.084.682.122 1.408-.348 2.024l.318.318c-.438.554-.744 1.202-.892 1.892a4.62 4.62 0 0 0 .034 2.092c.173 1.224-.596 2.269-.459 3.428.136 1.165-.7 1.981-.991 2.926l.403.404c.13.106.04.169-.072.327-.287.371-.497.795-.619 1.248s-.152.925-.09 1.389c-.031 1.253-.275 2.492-.72 3.664l.377.414c-1.161.838-.356 2.214-.912 3.393-.443.939-.357 2.188-.939 3.223a.87.87 0 0 0-.147.354c-.021.127-.014.258.022.382a.85.85 0 0 0 .184.336c.085.097.191.173.31.224-.455.951-.818 1.944-1.082 2.966l-.766.158c.476 1.525-.47 2.85-.432 4.326.013.493-.447 1.002-.704 1.497-.089.115-.153.248-.186.389s-.034.289-.004.432.09.277.177.393a1.01 1.01 0 0 0 .326.283l-.856.857.398.694-1.234 2.513c.196.226.326.502.376.797a1.64 1.64 0 0 1-.095.877c-.212.677-.831 1.261-.007 1.915-.544.518-.415 1.193-.399 1.827.015.719-.124 1.432-.41 2.092a5.62 5.62 0 0 0-.048 1.999l-.84.841c-.017.602-.312 1.275.384 1.854-.735.859-1.273 1.867-1.577 2.955s-.367 2.23-.183 3.345l-.894.895a8.44 8.44 0 0 1-.439 2.515c-.414.784.236 1.903-.348 2.784-.499.752.289 1.794-.595 2.483-.145.113-.019.576-.02.877-.048 1.571-.345 3.124-.881 4.602a.94.94 0 0 0 .442 1.221c-.935.762-.833 2.002-1.47 2.968-.625 1.024-.901 2.222-.786 3.416l-1.366.993c0 .402-.008.478.001.552.141 1.074-1.388 1.604-.903 2.789-.604.785-.706 1.865-1.61 2.646-1.191-.145-2.486-.047-3.816-.183-2.445-.566-4.926-.968-7.425-1.205a1.36 1.36 0 0 0-.929.46c-.395-.511-.804-.673-1.254-.063-.453-.299-1.07-.298-1.396-.83-1.209 0-2.412-.062-3.606.016-1.332.087-2.509-.69-3.88-.504a32.66 32.66 0 0 1-3.832.045c-.288-.015-.563-.123-.783-.308a1.03 1.03 0 0 0-.818-.156c-.14.032-.271.092-.387.176a1.06 1.06 0 0 0-.284.316z"/><path d="M130.577 284.038l.479-.421a3.3 3.3 0 0 0 1.249.533 3.29 3.29 0 0 0 1.358-.016 10.95 10.95 0 0 1 4.863.795c.661.285.885.18 2.122-.381 1.264 1.178 3.112-.142 4.486.95.075 0 .194.031.219-.004.358-.502.871-.472 1.399-.452.6.022 1.318-.204 1.779.051 1.267.7 2.858.248 4.047 1.272.141-.119.301-.364.435-.351 1.997.196 3.898-.626 5.887-.53.632.031 1.36.262 1.849-.433.025-.035.144-.004.219-.004.226 0 .507-.089.668.014 1.273.812 2.854.033 4.147.804.296-.289.056-.689.14-1.048l1.818-1.806a2.08 2.08 0 0 1 .079-1.271 2.09 2.09 0 0 1 .807-.985c-.035-1.984 1.634-2.832 2.721-4.061.318-.277.662-.522 1.026-.733 1.175-.899 2.701-1.471 3.234-3.075a1.23 1.23 0 0 1 .626-.631c1.622-.869 3.178-1.856 4.657-2.952.733-.458 1.268-1.113 2.003-1.552a2.71 2.71 0 0 1 1.38-.332 18.37 18.37 0 0 1 2.24-4.607c.856-1.433.7-3.319 1.984-4.641-.073-2.277.479-4.53 1.597-6.516.491-1.113.652-2.283 1.067-3.397.403-1.346 1.206-2.538 2.302-3.418.913.134.758 1.165 1.328 1.585-.944.624-.14 1.679-.614 2.46-.238.301-.399.656-.468 1.034a2.35 2.35 0 0 0 .071 1.133c-.863.687.217 1.964-.79 2.608.322.926-.51 1.641-.455 2.523.056.898-.861 1.467-.601 2.449.948 1.308-.837 2.649-.239 3.978a7.21 7.21 0 0 0-1.964 3.115c-.553 1.453-1.37 2.79-2.409 3.946a4.01 4.01 0 0 1-2.635 1.826l-.477-.424c-1.359.966-2.949 1.579-3.826 3.246a6.08 6.08 0 0 1-3.08 2.264 5.71 5.71 0 0 1-1.746 2.669 6.27 6.27 0 0 0-2.431 3.733c-.014.119-.191.217-.288.329a16.82 16.82 0 0 0-3.021 6.198c-.703 2.148-.928 4.423-.66 6.666.023.179.262.33.465.57-.257.289-.436.64-.519 1.018s-.067.771.045 1.141l1.704 1.499 4.052.03c1.352.126 2.521-.878 3.802-.41l.89-.892c1.351-.111 2.706-.261 3.229-1.866.062-.14.174-.253.314-.316 1.593-.733 2.235-2.42 3.49-3.478 1.086-.918 1.582-2.303 2.681-3.203.157-.13.065-.565.097-.973a19.32 19.32 0 0 0 3.158-3.752c.503-.562 1.076-1.057 1.704-1.475a2.29 2.29 0 0 0 .902.474c.333.088.681.101 1.019.037 1.395.622 1.235 1.981 1.967 3.074.671.414 1.451.615 2.239.578a6.13 6.13 0 0 1 3.557.667c1.213.443 2.488.693 3.779.742l.798.798h1.669a20.24 20.24 0 0 0 4.791 2.286c.194.077.445.11.567.251.911.791 2.023 1.314 3.213 1.511a3.91 3.91 0 0 1 2.191 1.212c.608.897 2.137.554 2.361 1.872 1.132-.042 1.77 1.21 2.921 1.118.274.721 1.374-.006 1.44.665.087.868.841.736 1.229 1.001a11.74 11.74 0 0 0 3.952 1.87c.191.044.338.275.648.542-.084-1.532.237-3.059.932-4.426l-.388-.429c.509-.436.553-1.131.901-1.654.344-.516-.829-.947-.052-1.456-.193-.706.491-1.176.494-1.826.003-.585-.141-1.204.57-1.465-.913-1.212-.521-2.435-.544-3.582s-.324-2.363.466-3.377l-.52-.814c.293-.481.455-1.031.471-1.595s-.116-1.121-.382-1.618c-.38-.962.247-2.196-.518-3.188.25-.555.759-1.044.276-1.763-.36-.535.606-1.16.072-1.673-.547-.526-.249-1.118-.34-1.677-.041-.185-.016-.378.07-.547a.81.81 0 0 1 .402-.376c-.778-.585-.432-1.391-.454-2.091.062-.794-.1-1.59-.469-2.296.493-.475.198-1.145.383-1.719a1.71 1.71 0 0 0-.375-2.053l.427-.476-.811-.812c.736-.503-.729-1.437.372-1.878.129-.722-.033-1.465-.45-2.068-.43-.582-.266-1.299-.393-1.936-.153-.764-.767-1.192-.844-1.953.771-.544.094-1.458.384-2.138a2.83 2.83 0 0 1-.674-1.211 2.84 2.84 0 0 1-.018-1.386c.01-.741-.151-1.473-.471-2.141a13.86 13.86 0 0 1-1.154-4.27c-.142-1.259-.808-2.399-.93-3.686-.027-.289-.496-.535-.762-.802-.012-.053-.053-.134-.032-.155.206-.21.516-.425.375-.741-.996-2.226-1.556-4.616-2.592-6.832a5.88 5.88 0 0 0-.995-1.393l.304-.33c.193-.423-.67-.598-.302-1.044.346-.481.913.023 1.25-.35-.202-1.055-1.055-1.638-1.703-2.35.174-.188.309-.409.396-.65a1.93 1.93 0 0 0 .115-.753c-.012-.256-.076-.508-.186-.739s-.266-.439-.457-.609c-.722-1.06-1.165-2.284-1.289-3.56a9.44 9.44 0 0 1-.375-2.75l.647-.647h2.714c.226.712.945 1.253.635 2.131l.813.177c-.067 1.021.946 1.821.827 3.121l.608.609c-.047.768.093 1.536.408 2.239a4.76 4.76 0 0 0 1.398 1.794v1.842l.944.945c-.352 1.92 1.801 3.16 1.384 5.106l.834.218v3.303c.774.375.858 1.204 1.4 1.821l-.018 3.499c-.078 1.118 1.043 2.033.341 3.124.583.372 1.007.948 1.189 1.616a2.79 2.79 0 0 1-.207 1.995c1.264 1.116.898 2.714.956 4.177l.855.856c.058 1.203.384 2.377.955 3.437-1.005 1.295-.26 2.386.449 3.494-.048.559-.803.98-.444 1.6.429.74.049 1.415-.015 2.118-.073.81.598 1.446.49 2.303-.047.372.382.722-.007 1.225-.31.401.862.834.295 1.3-.654.538.211.674.146 1.054-.073.523-.077 1.053-.012 1.577.076.776-.356 1.659.442 2.298-.746 1.703 1.118 3.163.405 4.862-.223.575-.809.716-1.319.978.307.244.336.659.506.912.454.677-.758 1.009-.177 1.763.332.43.161 1.293.123 1.957-.092 1.621.655 3.132.496 4.785-.157 1.641-.031 3.309-.037 4.965.012.285.097.562.246.805.199.425.281.895.239 1.363a2.66 2.66 0 0 1-.482 1.297c-.061.459.757.596.387 1.213l-.755.269c-.119.449-.145.918-.075 1.377s.234.899.482 1.292c-.55.448-1.304.641-1.124 1.642.364.241.206.875.166 1.439-.028.408-.544.805.011 1.202.184.522-.609.663-.393 1.332a5.02 5.02 0 0 1 1.845 3.138c.084.922 1.012 1.558 1.703 2.208l-.423.478.477.53a2.66 2.66 0 0 0-.483 1.793c.06.636.347 1.23.81 1.672-.977 1.573.306 3.525-1.023 5.12-1.735.668-2.274 2.635-3.818 4.132-1.681-.081-2.483 2.281-4.447 2.45-.717.435-.567 1.584-1.711 1.812-.549.11-1.67.354-1.583 1.487a27.09 27.09 0 0 0-4.053 1.687c-1.656 1.206-3.609 1.94-5.649 2.123-.741.666-1.858.126-2.609.802-.045.041-.315-.169-.6-.329l-.389.607c-.399.168-.527.268-.655.268-.798-.001-1.606.383-2.294.375-1.854-.02-3.597.613-5.452.615a11.22 11.22 0 0 0-4.173.739 6.59 6.59 0 0 1-1.768.095c-.422.038-.659-.23-.976-.387-.152-.075-.466.431-.908.39-3.865-.362-7.683.515-11.541.463-.759-.01-1.537-.413-2.189-.206-.716.138-1.445.197-2.175.176-.372.038-.868-.149-1.108.032-1.507 1.141-2.66-.258-4.232-.424-.218.046-.553.556-1.131.404-.618-.162-1.285.228-1.927-.302-.201-.166-.917.663-1.378-.098-.046-.076-.276-.035-.418-.058-.706-.119-1.247.996-2.005.307-.663-.604-1.425-.192-2.133-.302-.772-.12-1.55.177-2.329-.409-.515-.386-1.289.305-2.098.028a2.07 2.07 0 0 0-1.2-.194c-.41.056-.794.234-1.103.511-.109.117-.423.057-.642.058a24.9 24.9 0 0 0-5.171.08 31.8 31.8 0 0 1-5.036.386l-.99.943c-1.764-.487-3.418.687-5.158.377a8.47 8.47 0 0 1-4.667 1.378l-.989.939a15.58 15.58 0 0 0-5.894.961l-.279.769c-1.859.043-1.859.043-2.779-.399a3.85 3.85 0 0 1-1.466 1.08c-.569.237-1.185.334-1.799.283-.58-.118-1.183-.005-1.68.316-.3.181-.657.243-1 .176a1.41 1.41 0 0 1-.859-.542l-.592.787c-.513.035-.908-.305-1.257.075-.326-.382-.663-.592-1.094-.125-.096.105-.226.172-.367.189-.666.118-1.349.104-2.009-.04-.716-.302-1.259.938-1.894.07-.483.721-1.223.34-1.852.428a7.36 7.36 0 0 0-2.786.375c-.371.175-.781.252-1.191.224s-.805-.16-1.149-.383c-.199-.162-.448-.247-.704-.241s-.5.102-.691.273c-.445.303-.765-.426-1.31-.274-.489.136-1.245-.191-1.532.071-.751.685-1.56.331-2.335.396-.746.062-1.504-.018-2.254.02-1.085.038-2.168-.108-3.205-.43-1.026-.294-2.217.368-3.197-.471-.087-.074-.293-.016-.443-.009a17.23 17.23 0 0 1-5.055-.839 65.79 65.79 0 0 1-6.807-2.11 12.16 12.16 0 0 1-3.003-1.508 7.18 7.18 0 0 0-3.175-1.595 2.75 2.75 0 0 1-1.452-.859c-.658-.988-1.571-1.779-2.642-2.29-.13-.067-.243-.161-.334-.275s-.155-.248-.189-.389c-.102-.485-.323-.938-.642-1.317s-.728-.673-1.189-.856c-.386-.18-.664-.711-.947-1.143-.547-1.051-1.454-1.87-2.555-2.307.026-.595-.493-.971-.612-1.561-.112-.553-.092-1.428-1.103-1.58-.27-.041-.608-.822-.601-1.258.02-.367-.042-.733-.182-1.072a2.45 2.45 0 0 0-.628-.887c-.241-.237-.124-.84-.19-1.471-1.857-1.02-1.628-3.177-2.171-4.98-.064-.638-.202-1.266-.411-1.872-.108-.312-.152-.643-.129-.972s.111-.651.261-.945c.417-.978.338-1.011-.198-2.191.017-.508.598-.796.474-1.398-.072-.523-.076-1.053-.015-1.576.023-.423-.108-.837.273-1.252a.92.92 0 0 0 .193-.345c.039-.127.049-.261.031-.393a.92.92 0 0 0-.137-.37c-.072-.112-.167-.207-.28-.278a20.85 20.85 0 0 0 2.683-5.335 4.5 4.5 0 0 1 .789-1.671c.376-.496.851-.909 1.395-1.212l-.434-.48a3.44 3.44 0 0 0 2.166-2.292l-.371-.41a6.04 6.04 0 0 0 2.141-1.197c.624-.54 1.131-1.203 1.49-1.948.131-.276.353-.499.629-.631.858-.423 1.971-.503 2.172-1.743 1.106-.246 1.537-1.326 2.453-1.896.705.169 1.265-.378 1.901-.665.954-.429 1.827-1.011 2.769-1.476a32.17 32.17 0 0 1 6.168-2.028 58.39 58.39 0 0 1 6.223-1.297c.246-.037.349-.491.835-.413l.598.432c2.067-.888 4.304-.009 6.335-.53 1.585-.257 3.189-.383 4.795-.375 1.315-.122 2.634-.039 3.959-.161 1.12-.104 2.367.149 3.562.161 1.352.013 2.705.045 4.055-.008a11.69 11.69 0 0 1 4.64.787 8.31 8.31 0 0 0 1.526.135l4.512.791zm64.442 6.412c-.618 1.171-.977 2.565-2.284 2.889-1.035 1.741-1.515 3.601-3.154 4.78l-1.02.076-.135 1.141c-.794.364-1.72.54-2.023 1.546h-.966l-1.947 2.026-3.018.989c-.348-.478-.845-.399-1.35-.218a11.63 11.63 0 0 1-3.958.822c-.908 0-1.926-.424-2.733.392-.783-.898-1.855-.139-2.25-.293-1.517-.616-2.963-1.393-4.313-2.32-1.02-1.102-1.914-2.315-2.663-3.616.157-.529.633-.941.471-1.612a6.3 6.3 0 0 1-.023-4.595c.061-.244.055-.5-.017-.742a1.41 1.41 0 0 0-.39-.631c.398-.194.328-.633.518-.914.208-.307.522-.53.116-1.131-2.302.235-4.586.616-6.84 1.14-.471.149-.958.242-1.451.279-.977.032-1.955.009-3.096.009l-1.132 1.365a16.36 16.36 0 0 1-4.295-.387 5.69 5.69 0 0 0-1.596-.527c-1.126-.066-2.255-.055-3.379.035-1.224.174-2.235-.572-3.429-.519-1.154.276-2.368.128-3.421-.418-2.079.344-4.044-.773-6.074-.428-.365-.37-.813-.648-1.307-.81s-1.02-.203-1.533-.121c-.375.022-.756-.033-1.127.011-.681.081-1.098-.676-1.851-.487-.567.141-1.4.272-1.755-.024-.699-.583-1.138.315-1.704.061-.253-.114-.563.094-.839-.163a1.41 1.41 0 0 0-.888-.368c-.33-.015-.655.087-.918.288-.313.185-.676.265-1.038.23-2.782.006-5.57.115-8.345-.027-2.825-.145-5.587.41-8.387.485a12.32 12.32 0 0 0-2.542.359c-1.148.473-2.393.664-3.63.558-.141-.04-.29-.051-.436-.032s-.286.067-.413.142c-1.383.852-3.183.606-4.491 1.681-.842-.179-1.408.736-2.303.418l-1.404 1.544c-1.957.701-2.983 2.126-4.48 2.788a6.13 6.13 0 0 0-1.419 1.195v1.62c-1.218.669-2.283 1.585-3.127 2.689-.063.348.158.758-.219 1.035-.355.088-.753-.153-1.133.224.19.786-.658 1.233-.801 1.821a3.41 3.41 0 0 1-1.008 1.806 1.04 1.04 0 0 1 .319.306 1.05 1.05 0 0 1 .143.853 1.04 1.04 0 0 1-.202.393c-.242.066-.499-.082-.685.261l-.06 1.377-.915.917c.244.588-.18 1.268.192 1.912.23.368.352.794.35 1.229a2.3 2.3 0 0 1-.36 1.225 1.31 1.31 0 0 0-.109 1.057c.696 1.314.294 2.734.507 4.372l.986.542c-.579.889-.859 1.496-.212 2.331.375.585.686 1.208.928 1.858.445.921 1.192 1.66 2.117 2.096a4.69 4.69 0 0 1 .686 1.893 17.97 17.97 0 0 1 2.088 2.52 6.69 6.69 0 0 0 1.576 2.176 6.7 6.7 0 0 0 2.304 1.381c.141.052.271.131.381.233s.198.226.259.363c.766 1.872 2.477 2.324 4.123 3.055a13.34 13.34 0 0 1 4.769 2.655c.67-.099 1.352-.088 2.018.033 2.309.846 4.785.651 7.134 1.275 1.118.156 2.25.172 3.371.047 1.128 0 2.265.086 3.382-.025 1.015-.101 1.964.266 3.023.09a17.95 17.95 0 0 1 4.723-.03 40.77 40.77 0 0 0 4.78-.492c.654.107 1.324-.039 1.874-.409.341-.278.932.034 1.265.309 1.527-.73 3.232-1.004 4.91-.789a3.5 3.5 0 0 0 1.493-.152c.48-.157.921-.417 1.293-.76a10.02 10.02 0 0 0 4.101-.447c1.492-.734 3.156-1.046 4.812-.903.573-.003 1.124-.225 1.539-.621a8.15 8.15 0 0 1 3.593-1.116c1.181-.199 2.336-.534 3.441-.997 1.948-.82 1.929-.861 3.734-.44a4.31 4.31 0 0 0 .77-.031l.55-.973c1.682.523 3.118-.442 4.66-.346 3.781-.109 7.565.022 11.329.392a58.76 58.76 0 0 1 8.374.512c1.091-.595 2.256-.2 3.364-.305 1.256-.12 2.501-.054 3.747-.12.317-.017.642.655.988-.003 1.572-.155 3.159-.068 4.704.258l.302-.246.511.443c.54.045.796-.537 1.397-.512 2.102.086 4.219-.09 6.313.067 2.163.163 4.219-.606 6.358-.491.669-.082 1.347-.064 2.011.053.708.282 1.268-.903 1.897-.055.477-.727 1.22-.34 1.846-.448a12.25 12.25 0 0 0 2.038-.536c.747-.262 1.536-.383 2.327-.356 1.426-.033 2.837-.31 4.17-.819a4.19 4.19 0 0 0 1.821-1.016h1.888c.297-.945 1.364-.659 1.93-1.158 1.105-.878 2.357-1.552 3.698-1.989a4.34 4.34 0 0 0 1.121-.555c3.205-1.892 6.117-4.241 8.645-6.973v-6.818l-.831-.754c-.085-.556.176-1.097-.317-1.746l-3.802-1.377v-2.296c-1.082.171-1.458-.888-2.395-1.206a5.76 5.76 0 0 1-2.255-1.672 1.89 1.89 0 0 0-.887-.454c-1.104.348-1.402-1.061-2.326-1.007-.432-1.047-1.632-.784-2.377-1.39-.785-.638-1.563-1.508-2.746-1.398a7.4 7.4 0 0 0-2.121-2.024c-.835-.526-1.768-.879-2.742-1.039-.219-.033-.543.008-.57-.22-.114-.954-.981-.826-1.536-1.142a15.05 15.05 0 0 0-2.081-.976c-.638-.243-1.422-.159-1.957-.723a4.99 4.99 0 0 0-2.512-1.008c-.757-.145-1.501-.352-2.225-.618-1.717-.797-3.539-1.346-5.411-1.629-1.149.056-2.29-.209-3.297-.765-.38-.209-.72-.069-1.093-.171v.001z"/><path d="M216.453 113.831c-.179 1.109.741 2.042.47 3.191-.161.684.106 1.411-.426 2.092-.077.113-.124.244-.137.379s.007.273.06.399a.82.82 0 0 0 .244.321c.106.085.233.142.367.165l-.935 1.824c.029.033.108.198.192.2l2.139.012c1.064.873 2.48.879 3.404 1.807 1.323-.356 2.16 1.107 3.438.921a5.05 5.05 0 0 0 1.691 1.069c.63.239 1.302.35 1.975.325l1.023 1.299h1.835a9.74 9.74 0 0 0 5.616 2.266c.689-.834 1.534-1.528 2.486-2.043.468-.171.538-.655.471-1.127.277-.06.578.122.841-.154 1.552-1.357 3.247-2.541 5.055-3.532 1.663-.953 3.259-2.021 4.775-3.195.182-.143.392-.248.617-.307a1.68 1.68 0 0 1 .688-.035c1.024-1.394 2.846-1.849 4.045-3.173 1.386-.194 2.798.02 4.064.615.394.462.138 1.146.225 1.777-.209.554-1.032.701-.903 1.483a33.84 33.84 0 0 0-3.977 1.801c-.59 1.109-.798 1.249-2.66 1.647l-1.626 1.628c-.731.117-1.605.113-1.704 1.284-.97.222-1.714 1.184-2.969 1.064-.012 1.058-1.208 1.341-1.508 2.26-.761.088-1.486.221-1.815 1.07-.075.212-.231.386-.434.484-1.237.36-1.688 1.478-2.363 2.467l-.987.071c-1.852 3.099-4.654 5.395-6.607 8.762.042.154.034.318-.023.467a.75.75 0 0 1-.295.362c-.262.179-.072.567-.52.819-1.33.75-1.528 2.659-3.147 3.334.06 1.073-1.087 1.489-1.553 2.364a25.13 25.13 0 0 1-1.499 2.562c-.576.829-1.459 1.592-1.499 2.749l.425.479c-.395.301-.965.325-1.329.934v1.785c-.434.274-.553.903-1.122.624-.464.49.04 1.301-.685 1.603.246.601-.716.784-.478 1.382-1.088 1.315-1.319 3.117-2.52 4.393-.281.298-.161.976-.231 1.523l-1.325 1.328.852.81c1.255-1.34 2.57-.311 3.86-.143a3.57 3.57 0 0 1 1.858.793 3.58 3.58 0 0 1 1.132 1.673v2.014c-.502 1.635-2.36 1.85-2.792 3.433-.899.607-2.159.792-3.126 1.843a45.03 45.03 0 0 0 5.386.161 8.83 8.83 0 0 1 3.289 2.512c-.595.693.504 1.311.035 2.254-.207.894-.231 1.82-.072 2.723l-1.762.801c.127 1.308-1.5 1.228-1.883 2.267-.375 1.018-1.956.738-2.328 1.986-.27.37-.839-.144-1.185.255.053.102.114.203.16.31a1.5 1.5 0 0 0 .532.527 1.51 1.51 0 0 0 .72.204c2.096.055 1.735 1.801 2.077 2.962a2.3 2.3 0 0 1 .077.979c-.044.329-.159.644-.337.924-.342.553-.139 1.444-.182 2.253-.342.769-.846 1.456-1.476 2.013-.275.199-.214.522-.333.767a5.65 5.65 0 0 1-1.142 2.034c-.517.592-1.152 1.07-1.864 1.403-1.071.69-1.852 1.673-2.849 2.391-.943.678-1.418 1.747-2.341 2.402-.264.187-.23.55-.364.743-.461.665-.694 1.458-1.651 1.837a3.15 3.15 0 0 0-1.546 1.777 5.04 5.04 0 0 1-1.856 1.919c-.636.451-.543 1.557-1.547 1.599-1.054 1.027-2.038 2.123-2.946 3.282-.552.946-1.523 1.691-2.227 2.64a6.61 6.61 0 0 1-2.875 2.152c-.106.042-.202.106-.283.187a.81.81 0 0 0-.184.284c-.383 1.708-1.857 2.432-3.001 3.475a9.38 9.38 0 0 0-1.595 2.04c-.411.669-1.468.585-1.621 1.553-.042.26-.57.406-.835.6-1.381 1.007-3.022 1.767-3.713 3.525-.171.436-.679.491-1.101.648l-.116 1.06c-2.272.576-4.26 1.953-5.597 3.878-.468.576-1.081 1.018-1.776 1.28a3.73 3.73 0 0 1-1.191 1.584c-1.658.648-3.551.476-3.628 2.894-.496-.067-1.001-.019-1.476.142a3.24 3.24 0 0 0-1.258.782c-.129.195-.22 1.024-.707 1.473-.596.594-1.27.09-1.858.458l-.088 1.04c-.459.367-1.003.083-1.496.175-.341.142-.239.484-.318.741l-2.474.719c-.13.702-.769 1.12-1.241 1.629-.302.095-.275-.479-.662-.253-1.714 1.09-3.485 2.088-5.305 2.991a10.47 10.47 0 0 0-4.025 2.773 6.47 6.47 0 0 0-3.885.992 13.38 13.38 0 0 0-3.367 1.692c-.404-.891-.778.119-1.205.027-.454-.054-.912-.061-1.367-.02a5.88 5.88 0 0 1-3.707 1.356c-.913.165-1.828-.244-2.786.388-.708.468-1.902-.33-2.71.509-.036.038-.146.004-.221.005a64.22 64.22 0 0 1-10.631.387 34.24 34.24 0 0 0-6.137-.349c-.605.017-.821-.61-1.395-.499-.959.185-1.738-.703-2.748-.459-.946.229-1.832-.339-2.725-.517-2.211-.363-4.371-.983-6.438-1.847a29.48 29.48 0 0 0-3.106-1.209c-.263-.099-.514-.228-.747-.385-.942-.605-1.983-1.038-3.075-1.281a6.19 6.19 0 0 1-2.062-1.033 51.79 51.79 0 0 0-5.904-3.162 34.53 34.53 0 0 1-4.906-2.853c-1.549-1.011-3.122-1.978-4.58-3.146-1.526-1.222-3.103-2.368-4.579-3.667a17.68 17.68 0 0 0-3.623-2.103c-.821-.28-1.545-.786-2.09-1.46a12.65 12.65 0 0 0-4.356-3.557 5.73 5.73 0 0 1-1.986-1.776c-.479-.732-1.183-1.288-2.006-1.584-1.29-.471-1.73-1.696-2.606-2.516a12.99 12.99 0 0 0-1.361-1.334c-1.051-.561-1.967-1.343-2.686-2.293-.597-.959-2.015-1.366-2.823-2.245-.719-.781-1.902-1.388-1.725-2.851a6.17 6.17 0 0 1 2.451-1.995c1.237-.429 2.352.552 3.784.337l1.11 1.384h.986a3.64 3.64 0 0 0 1.933 1.995c.478.184 1.289.644 1.352.927.267 1.202 1.579 1.49 1.959 2.593a2.2 2.2 0 0 0 1.836 1.34 2.1 2.1 0 0 1 1.169.477c.331.276.57.647.682 1.063.144.341.386.631.695.834a1.86 1.86 0 0 0 1.042.307c.934.072 1.028 1.321 1.897 1.798.798.438 1.1 1.87 1.973 2.135a9.54 9.54 0 0 1 2.526 1.508c1.014.677 2.265 1.176 2.802 2.566a2.95 2.95 0 0 0 .966 1.023c.4.258.856.416 1.33.459.303.428.322 1.075.972 1.31a36.84 36.84 0 0 1 6.839 4.203c1.079.681 2.127 1.401 3.195 2.091.998.645 2.119 1.073 3.084 1.815a79.94 79.94 0 0 0 8.024 4.052 29.16 29.16 0 0 1 2.95 1.612c.641.495 1.664.191 2.416.673a10.02 10.02 0 0 0 3.48.809 12.61 12.61 0 0 0 3.103.789c1.084.032 2.151.27 3.145.7.751.289 1.497-.052 2.124.156a2.67 2.67 0 0 0 2.644-.176.69.69 0 0 1 .327-.081c.114 0 .226.028.326.082a3.28 3.28 0 0 0 2.308.432c.901.051 1.804.044 2.704-.022a6.13 6.13 0 0 0 1.94-.387 2.72 2.72 0 0 1 1.111-.037c1.441.077 2.881-.17 4.214-.723a11.6 11.6 0 0 1 3.799-.608 3.72 3.72 0 0 0 2.651-.955c1.34.375 2.586-.745 4.005-.426.312-.554 1.035-.436 1.433-.931.253-.307.577-.548.943-.701a2.46 2.46 0 0 1 1.162-.182c.211.01.508.02.624-.103a15.79 15.79 0 0 1 4.568-2.628c2.296-1.615 4.727-3.028 7.268-4.221.936-.305 1.388-1.402 2.272-1.561.721-.13.172-1.023.93-1.008.486-.071.939-.286 1.3-.619.395-.296.827-.538 1.285-.72.833-.316 1.339-1.031 2.114-1.421.634-.32 1.559-.705 1.767-1.649 2.064-.949 3.985-2.182 5.708-3.663 1.152-.744 1.888-1.888 2.97-2.727h.807c.497-.705 1.046-1.372 1.643-1.994.543-.376 1.132-.682 1.752-.909l.076-.871c.95-.894 2.433-1.034 2.826-2.474 2.204-1.52 3.665-3.959 6.219-5.048.554-.236.486-1.191 1.302-1.125v-.899c1.123-.815 2.58-1.162 3.216-2.658.187-.441 1.042-.597 1.638-.909.321-1.155 1.689-1.611 2.155-2.638.491-1.083 2.165-1.03 2.022-2.437.773-.234 1.488-.627 2.1-1.155a81.31 81.31 0 0 0 7.356-7.529c.105-.154.013-.443.013-.695.625-.861 1.687-1.404 2.014-2.526 1.108-.101 1.416-1.455 2.498-1.597l1.354-2.11c.528-.584.979-1.234 1.342-1.933v-2.275c-.313-.455-.816-.248-1.212-.208-.532.053-.868-.911-1.326-.357-.536.648-.706-.306-1.045-.116-1.605.899-3.341.247-5.004.445-.073.002-.146-.004-.218-.016-.414-.522-1.253-.452-1.538-1.088-.316-.765.436-1.218.469-2.018.814-.036 1.847.117 2.394-.524.682-.798 1.679-.091 2.416-.858a5.55 5.55 0 0 1 2.094-1.394 10.96 10.96 0 0 0 3.534-1.797c.94-.605 1.714-1.436 2.25-2.418a6.68 6.68 0 0 0 .815-3.201c-.375-.515-1.077.056-1.413-.506-.091-.123-.224-.208-.373-.238a.61.61 0 0 0-.436.078c-1.09.71-2.314.217-3.431.455a50.39 50.39 0 0 0-6.683 1.274c-.87.311-1.414 1.125-2.477 1.159-1.099.035-2.131.746-3.194.722l-1.578-1.676c.507-.266-.173-1.261.856-1.836 1.941-.017 3.671-1.638 5.852-1.927.834-.887 1.929-1.484 3.127-1.705.844-.302 1.211-1.036 1.909-1.456.249.043.505.02.743-.066a1.47 1.47 0 0 0 .614-.425c1.127-1.089 2.468-1.933 3.937-2.479-.137.085-.225-.167-.153-.36.111-.193.253-.366.419-.513-.318-.254-.483-.687-1.041-.694a4.69 4.69 0 0 1-2.988-.41c-.129-.08-.282-.112-.432-.09a.65.65 0 0 0-.389.209c-.334.484-.821.342-1.229.294a67.92 67.92 0 0 0-7.936.513c-.985.144-1.945.426-2.853.837l-.452-.376a3.88 3.88 0 0 1-1.401.736c-.512.147-1.05.187-1.578.117-.366-.048-.687.193-1.004.275-1.169.304-2.297.988-3.429.562l-1.735.917c-.98.154-1.41-.75-2.162-.385l-1.113-1.176c-.172-1.405-.009-1.485 1.228-2.036 1.209-.54 2.601-.427 3.715-1.447 1.038-.696 2.155-1.267 3.328-1.701a3.81 3.81 0 0 0 .975-.912c.83-.959 2.13-1.079 3.107-1.773.101-.071.294-.009.444-.009.697-1.413 2.081-2.139 3.108-3.202.982-1.017 2.338-1.66 2.994-3.048-.255-.575.402-.973.49-1.523-.085-.126-.204-.354-.236-.342a1.92 1.92 0 0 1-.97-.044c-.314-.098-.598-.275-.824-.514a1.93 1.93 0 0 0-.897-.407 1.92 1.92 0 0 0-.982.093 12.78 12.78 0 0 1-5.021.383c-2.697.132-5.346.76-7.815 1.851-.521.201-1.053.373-1.594.515a22.14 22.14 0 0 0-7.969 4.745 29.71 29.71 0 0 1-3.741 2.389c-.404.166-.769.416-1.071.732s-.535.693-.683 1.105a3.71 3.71 0 0 0-2.402.561c-.174.229.001.602-.331.772h-.888a.54.54 0 0 0-.218.572c-.811.988-1.943.772-3.001.776l-.329.872h-1.25c-.146.076-.282.171-.403.283-.566.664-1.274 1.193-2.072 1.546-1.435.584-2.798 1.33-4.065 2.222-.229.239-.518.412-.837.5s-.655.09-.975.003c-.192 1.239-1.183 1.516-2.134 1.803-1.393.258-2.692.884-3.762 1.813-.895-.112-.458 1.002-1.435 1.253-1.782-.442-2.838 1.986-4.867 1.98-.182.465-.281 1.142-.794 1.218-1.385.204-2.211 1.24-3.295 1.894-1.253 1.028-2.696 1.799-4.247 2.268-1.229.204-2.041 1.294-2.975 2.006a13.72 13.72 0 0 1-3.643 2.151c-1.45.711-2.819 1.577-4.083 2.582h-1.154c-1.888 1.824-4.249 3.083-6.815 3.636-.383.204-.021 1.224-.945.836-.369-.466.739-.581.237-1.124-.613-.459-.847-.151-.878.52-.062.063-.115.162-.169.163l-2.277.007a4.09 4.09 0 0 1-1.109-1.283c-.276-.501-.443-1.054-.491-1.623 1.366-1.109 2.889-2.009 4.518-2.672l-.372-.414c.043-.411.524-.551.727-.881.245-.398.659-.231.992-.336 1.211-.379 2.134-1.304 3.33-1.764 1.684-.647 3.303-1.464 4.949-2.212.253-.115.632.001.764-.32.576-1.402 1.837-1.518 3.084-1.741a5.61 5.61 0 0 0 2.758-1.46 42 42 0 0 1 5.044-3.135c.741-.523 1.619-.818 2.364-1.407.229-.252.522-.436.848-.535s.673-.106 1.003-.023c.958-1.393 2.734-1.779 3.866-3.013.363-.396.823-.103 1.239-.287 1.151-.51 2.242-1.137 3.375-1.661 1.125-.406 2.183-.98 3.137-1.702.733-.649 1.921-.451 2.623-1.287a2.99 2.99 0 0 1 1.096-.857c.427-.196.895-.288 1.365-.269.538-1.112 1.869-.928 2.716-1.69 1.19-.851 2.542-1.449 3.972-1.756a37.91 37.91 0 0 0 8.312-4.433c1.202-.744 2.463-1.35 3.692-2.019.338-.184.56-.448.909-.663l-.406-.502c.081-.067.177-.216.271-.214.534-.025 1.058-.155 1.541-.383a4.04 4.04 0 0 0 1.275-.946c1.398-1.141 3.06-1.91 4.834-2.236.262.044.701.683 1.61.196a5.85 5.85 0 0 1 3.082-.71c.224.015.546.096.66-.017.713-.617 1.629-.947 2.572-.925.726-.083 1.447-.204 2.159-.364a14.89 14.89 0 0 1 2.917-.047c.614-.347.758-1.032 1.135-1.72.027-2.5 1.15-4.966 1.462-7.587.035-.294.501-.536.851-.887-.41-1.124.628-2.159.397-3.315s.65-2.092.476-3.205c.96-1.744 1.264-3.774.857-5.723-.02-.732.63-1.173.49-1.845-.161-.771.884-1.46.41-2.034-.648-.785.511-1.295.047-1.923.461-1.155.607-2.411.422-3.64l-.443-.443c-1.244-1.481 1.185-2.68-.696-3.768 1.227-.739.127-2.362 1.663-2.863-.431-1.776 1.243-3.489-.052-5.27.028-.601.648-.764.907-1.196a9.68 9.68 0 0 1-.409-4.538c.682-.359.001-.663-.026-.998a3.13 3.13 0 0 0-.343-1.795c.962-.707-.386-1.222-.16-1.946a7.03 7.03 0 0 0 .04-2.012 4.19 4.19 0 0 1 2.494.256c.195.61.574 1.144 1.086 1.53-.117 1.689.9 3.27.432 4.914.502.594.834 1.312.964 2.078a4.34 4.34 0 0 1-.229 2.279 6.02 6.02 0 0 0 .008 3.635c.007.02.136.002.208.002zm-11.21 56.764c1.11.656 2.034-.456 3.126-.324a29.44 29.44 0 0 0 3.426.029c.341-1.127.815-2.21 1.413-3.224.956-1.389 1.78-2.865 2.46-4.408a58 58 0 0 1 3.449-5.537c.463-.721.332-1.379.538-1.963 1.87-1.901 2.655-4.48 4.483-6.367-1.579-1.43-3.405-2.561-5.388-3.338-1.846-.827-3.785-1.429-5.776-1.79-.292.999.134 1.869-.302 2.607a7.55 7.55 0 0 0-.732 4.207c.005.22.001.439.001.613l-.938.939c.578 1.061-1.171 2.08-.326 2.909.237.542-.291.568.083.843a31.39 31.39 0 0 1 4.223.274c-1.042.418-1.891-.005-2.619.427.727.787 1.81.932 2.284 1.988-.035.777-.029 1.555.019 2.331.075.734-.528 1.148-.654 1.767-1.378.21-.873 1.574-1.25 2.088a89.68 89.68 0 0 0-7.52 5.929zm101.554 153.734h1.001l.747 1.477-.41.502a28.31 28.31 0 0 0 3.502 7.319l-.382.382c.616.717.485 2.009 1.149 2.462 1.007.688.893 1.82 1.535 2.538.544.82.95 1.724 1.201 2.676.392.875 1.172 1.646 1.009 2.858-.68.223-1.407.258-2.106.102-.646-.08-1.182.689-1.919.076-.312-.259-1.017-.059-1.542-.038-.511.019-1.356-.088-1.468.144-.38.79-.784-.576-1.233.149-.342.552-1.043.068-1.532-.318-.538.304-1.21.37-1.65.886l-.391-.298c-.553.243-1.186.704-1.786.001a2.46 2.46 0 0 1-.973.368c-.347.053-.701.03-1.039-.065-.88-.182-1.515.506-2.298.465-.65-.034-1.137-.892-1.983-.191a1.41 1.41 0 0 1-.484.249 1.4 1.4 0 0 1-.542.044c-.182-.021-.358-.078-.518-.167s-.301-.209-.414-.353c-.224.174-.355.501-.944.396l-1.05-1.347a5.75 5.75 0 0 0-.634-2.409c-.386-.747-.93-1.401-1.594-1.915.188-.918-.679-1.909-.503-3.101-2.192-.63-2.856-2.928-4.41-3.965a33.45 33.45 0 0 1-1.093-5.619c-.309-.186-.328.175-.579.251-.722-.538-1.397-1.137-2.018-1.789a20.99 20.99 0 0 1-1.765-1.911 13.12 13.12 0 0 0-2.152-6.693c-.385-.575-.632-1.241-.971-1.85-.243-.437.185-1.2-.479-1.357-.876-.208-.794-1.547-1.863-1.269v-1.545c-.719-.579-1.176-1.502-2.216-1.72a3.9 3.9 0 0 0-.59-2.24c-.248-.777-.374-1.589-.374-2.406a10.52 10.52 0 0 1-2.626-2.203l.234-.334c-.487-1.423-1.379-2.672-2.567-3.595a24.64 24.64 0 0 1-3.098-3.327c-.254-.304.047-1.021-.497-1.347.225-.456 1.021.072.983-.694 4.068.118 8.032-.142 11.99.156.113.009.213.201.32.308a1.35 1.35 0 0 1 1.787-.369 3.09 3.09 0 0 0 2.118.363c1.877.044 3.757.053 5.634.003a8.38 8.38 0 0 1 4.594.902.61.61 0 0 0 .428.013c1.687.418 1.535 2.492 3.257 2.856-.24.683.276 1.272.546 1.888.245.558.826 1.173.759 1.685-.131.989 1.121.684 1.152 1.579.018.481.945.904.698 1.691.388.349.988.326 1.358.979-.033 1.018.314 2.012.973 2.789.437.612 1.305.903 1.332 1.891.021.749.624 1.384.929 2.082.514 1.441 1.167 2.829 1.951 4.143.38.567.656 1.196.814 1.86.292.1.555-.075.742.329v1.994c.524 1.267 1.583 2.119 1.95 3.579z"/><path d="M304.006 143.399l.819-.819c.438-1.998.711-4.027.817-6.069-.01-.113-.203-.208-.307-.307.174-.242.523-.361.454-.731-.237-1.266.441-2.405.536-3.646a4.68 4.68 0 0 1 .781-2.902c.115-.212.149-.458.095-.692a.99.99 0 0 0-.386-.582 8.19 8.19 0 0 0 .777-2.65c-.047-.433.009-.87.163-1.277a2.78 2.78 0 0 1 .725-1.066 1.62 1.62 0 0 1-.475-.951c-.047-.361.028-.728.214-1.041.772-1.972.957-4.104 1.645-6.093a46.12 46.12 0 0 0 1.282-4.876c.129-.565.619-.969.527-1.609-.047-.569-.053-1.141-.018-1.711l.846-.847c.26-.762-.271-1.622.47-2.33.33-.316-.642-.9-.004-1.383-1.231-1.118.432-1.733.153-3.026.222.287.14.18-.017-.022.501-.511.185-1.371.763-1.925-.653-.65.105-1.273.132-1.899.176-.758.3-1.526.371-2.301-.048-.179-.049-.367-.001-.546a1.05 1.05 0 0 1 .272-.474c.446-.39-.151-1.233.603-1.532-.687-.788.208-1.519.08-2.354a32.89 32.89 0 0 1-.066-4.281 4.03 4.03 0 0 0-.41-2.546.86.86 0 0 1 .132-.961c.077-.086.169-.155.273-.204l-.428-.475c.15-.23.502-.34.421-.837l-.431-.59c.016-.144-.021-.342.059-.422.668-.669.264-1.99 1.526-2.273l1.134 1.423c-.101.537-.081 1.09.061 1.617a3.63 3.63 0 0 0 .759 1.43c.311 1.627-.369 3.303.508 4.791-.933 2.009-.124 4.125-.568 6.331a.6.6 0 0 0-.301.662l.436.604-.991 2.728c.031-.141.191.014.46.264-1.018 1.221.304 2.915-.827 4.196.21 1.553-.825 2.965-.428 4.448l-.926.927.003.612c.059 1.44-.202 2.875-.766 4.201-.317.878-.242 1.809-.486 2.718-.343 1.275-.516 2.661-.816 3.975a18.48 18.48 0 0 1-1.027 3.86c-.161.727-.178 1.479-.05 2.213l-.991 1.045c1.305 1.256-.405 2.556.06 3.871.094.266-.102.532-.211.806a5.45 5.45 0 0 0-.654 3.326c.206.828-.597 1.295-.505 2.081a2.83 2.83 0 0 1-.371 2.103c-.282.407-.066 1.169-.049 1.771a13.3 13.3 0 0 1-.832 4.849c-.197.559-.073 1.047.378 2.042 0 .075.031.172-.005.222-.129.178-.281.339-.425.509l.41.462-.43.478c-.005.248-.01.461.197.625.105.11.196.233.271.366-.305.535-.37 1.209-.975 1.726a42.45 42.45 0 0 1-.39 6.722 1.16 1.16 0 0 1-.301.786c-.419.557-.128 1.066.25 1.525-.268.505-.802.586-1.24.792-.235.455.081.69.457 1.041-.453.625-.305 1.542-.601 2.149-.527 1.081-.298 2.441-1.279 3.314.094.929-1.054 1.846-.015 2.803.055.099.084.21.084.322a.66.66 0 0 1-.084.322c-.748.676-.434 1.543-.408 2.313.028.83-.395 1.557-.407 2.299a12.04 12.04 0 0 0 .244 1.731c-.006.278-.079.552-.214.796a1.73 1.73 0 0 1-.56.606 1.27 1.27 0 0 1 .479.935 13.66 13.66 0 0 1-1.024 5.911c-.447 1.039-.707 2.148-.766 3.277.031.779-.712 1.252-.524 2.081.137.647.013 1.322-.346 1.878-.231.714-.23 1.483.003 2.197.056.291.429.542.389.963-.041.44-.009.887-.009 1.224-.203.364-.454.243-.842.321.196 1.257-.614 2.42-.499 3.724a23.86 23.86 0 0 1-.565 3.872c-.044 1.259-.414 2.485-1.074 3.559-.802 1.099-.355 2.623-1.522 3.444v2.261l-.885.947.428.501c.045.676-.592.837-.916 1.357a13.12 13.12 0 0 1-.833 4.717c-.149.542-.607.976-.525 1.605a4.9 4.9 0 0 1-.003 1.576 11.81 11.81 0 0 1-1.042 3.642 11.27 11.27 0 0 0-1.28 3.541c-.247 2.093-.927 4.112-1.995 5.929-.264.404-.64.903-.59 1.313.185 1.52-1.564 2.564-.809 4.258-1.155.356-.724 1.647-1.479 2.266.77.301-.268 1.15.48 1.479-.576 1.431-1.704 2.677-1.432 4.403.031.197-.35.553-.474.91-.11.316-.495.511-.016.814-.665.992-.23 2.112-.433 3.393l-1.317 1.059c0 .482.128.908-.021 1.057-.874 1.112-1.473 2.415-1.749 3.802a11.24 11.24 0 0 1-1.516 2.443c.961.256 1.052 1.307 1.806 1.637.917.401 1.026 1.502 1.856 1.957.815.447.931 1.466 1.649 2.086l.48-.38c1.398.023 2.026.997 2.488 2.18l-1.086 2.248c-.611-.618-1.472.073-1.493.229-.161 1.208-1.529 1.252-1.914 2.123-.428.969-1.487 1.123-2.067 1.821-.733.882-1.869 1.188-2.563 2.255a19.33 19.33 0 0 1-2.501 2.336c-.908.855-2.032 1.448-3.25 1.716-3.722-3.65-7.09-7.643-10.061-11.925-.829.352-1.546.939-2.197.559-.721-.342-1.521-.484-2.317-.412-.717-.023-1.484.181-2.069-.452-.512.002-.811.494-1.39.505-.523.009-.951-.63-1.297-.309-.56.518-.647-.342-1.084-.225-.461.074-.93.084-1.394.029l-1.531-.934c-.255-.695-.263-1.248.194-1.474.733-.576 1.516.021 2.045-.611.116-.086.251-.142.394-.163a.88.88 0 0 1 .423.044c.485.313 1.055.467 1.631.442.594-.065 1.222.082 1.797-.041s.949.389 1.526.255c.649-.15 1.422.719 2.013-.217.793.937 1.845.115 2.575.495.108-.074.195-.174.256-.29a.81.81 0 0 0 .093-.376c1.395-.151 1.202-2.157 2.65-2.25-.066-1.315.801-1.901 1.858-2.335l-.464-.464c1.527-1.466 2.798-3.176 3.763-5.06 1.085-.325 2.004-1.239 3.356-1.053 1.239.17 1.454 1.627 2.82 1.721.437-.202.369-1.039.897-1.459v-2.272l1.279-1.203c.045-1.428.844-2.7.495-4.083.445-.427.796-.943 1.031-1.513s.349-1.184.334-1.801a8.83 8.83 0 0 1 .679-3.344c.354-1.002.611-2.037.769-3.088-.048-1.222.351-2.419 1.123-3.368.507-.483.032-1.334.55-2.036.495-.672 1.35-1.419.965-2.515a3.64 3.64 0 0 0 1.191-2.213 52.56 52.56 0 0 0 1.626-6.593l.609-.132c.751-1.241.352-2.801 1.087-4.056.296-.506-.595-.847-.224-1.292.347-.416.19-.846.217-1.27a17.39 17.39 0 0 1 1.103-4.967c.225-.603.092-1.15.263-1.565.906-1.457 1.657-3.007 2.238-4.622.181-.396-.153-.684-.434-.923.326-.472.86-.709.944-1.44.091-.906.398-1.777.895-2.54.289-.383.44-.854.426-1.334s-.189-.942-.499-1.309c.234-.228.401-.514.485-.829a1.8 1.8 0 0 0-.012-.96c-.281-2.38.641-4.662.518-7.044a7.61 7.61 0 0 1 .861-2.568l-.378-.424a23.72 23.72 0 0 0 1.248-3.562c.016-.166-.219-.356-.346-.546.393-.614.544-1.434 1.298-1.83-.18-.736.305-1.536-.356-2.167.162-.746.586-1.41 1.195-1.872-1.049-1.052.206-2.631-.812-3.682a3.75 3.75 0 0 0 .795-2.337c.029-2.293.488-4.56 1.352-6.685.175-.303.223-.663.133-1.002a1.32 1.32 0 0 0-.613-.804c1.235-.734 1.271-2.082 1.796-3.188-.609-.715-.464-1.404.038-2.283.361-.631 1.056-1.529.011-2.307 1.126-2.675 1.607-5.578 1.403-8.474-.046-.506.076-1.035-.44-1.377zm-28.48 135.184a5.75 5.75 0 0 1 1.963-1.562c.715-.456.687-1.635 1.443-1.836 1.04-.275 1.146-.942 1.213-1.742.72-.323 1.732-.437 1.971-1.142.303-.894 1.087-1.17 1.66-1.638-1.366-1.986-2.814-3.684-4.122-5.48-1.338-1.836-3.346-3.025-4.455-5.03-1.013.744-.994.759-1.446 2.028-.374.744-.942 1.374-1.644 1.823-.98 1.806-2.253 3.438-3.766 4.83-.02.679.67.188.899.721-.112.654-.045 1.327.193 1.947a3.68 3.68 0 0 0 1.162 1.573c-.283.876.748.486.902.939.693 2.036 2.783 2.747 4.027 4.569zM185.321 54.442c.584.24.299 1.009.812 1.254a3.56 3.56 0 0 0-.412 1.734 3.55 3.55 0 0 0 .48 1.717c.074.133.103.285.082.436a.7.7 0 0 1-.199.396c-.582.477-.149 1.132-.404 1.758a8.16 8.16 0 0 1-3.035 2.184c-.319.178-.675.279-1.04.295a2.34 2.34 0 0 1-1.061-.203 13.01 13.01 0 0 0-3.8-1.202c-.41-.136-.599-.744-1.148-.501a2.66 2.66 0 0 0-.688-1.201 2.65 2.65 0 0 0-1.199-.692c-.337-1.106-1.004-2.082-1.913-2.797a5.86 5.86 0 0 0-1.32-4.062v-2.162a9.66 9.66 0 0 1-1.383-3.97c-.1-.336.03-.704-.318-1.006a3.44 3.44 0 0 1-.804-1.132 3.45 3.45 0 0 1-.289-1.358 2.52 2.52 0 0 0-.845-1.686v-1.802c.517-.699 1.206-1.252 2.001-1.604l2.024-.008c1.237.163 2.495.019 3.663-.418.62-.358 1.262.81 1.795.384.691-.553 1.139.163 1.69.041.711-.157 1.158.499 1.793.575a14.1 14.1 0 0 0 1.424 2.573c.382.807 1.132 1.509.968 2.533 1.112.439.542 1.988 1.615 2.452a15.43 15.43 0 0 1 8.237.451c.38.076.473-.307.849-.481a23.86 23.86 0 0 0 3.985 1.037c1.39.259 2.756.184 4.115.373 1.177.361 2.413.492 3.64.385a5.67 5.67 0 0 1 2.304-.397c.989.161 1.984-.314 3.013.381.704.476 1.874-.325 2.732.483.199.188.725.028 1.101.028l4.286-.013c3.374.327 6.764.455 10.153.383a.68.68 0 0 1 .336.299c.074.135.101.291.075.444.266.389.672.243 1.018.234 3.333-.088 6.621.782 9.964.459a19.91 19.91 0 0 0 4.536.519 9.53 9.53 0 0 0 3.207.352 9.11 9.11 0 0 1 3.179.587 14.76 14.76 0 0 0 4.118.311c1.067-.075 1.914.639 2.977.516a5.43 5.43 0 0 1 3.096.069c.957.595 2.133-.194 2.864.779.056.075.283.025.431.029 1.234-.149 2.487.006 3.648.452 2.598-.347 5.116.652 7.708.462a3.47 3.47 0 0 1 1.875.378 3.14 3.14 0 0 0 2.206.012c.654-.229 1.114.846 1.692.096a6.52 6.52 0 0 0 4.079.358c1.427-.074 2.707.56 4.102.512a13.5 13.5 0 0 1 4.035.075c1.019.289 2.137.083 3.092.695a2.65 2.65 0 0 0 1.296.119l5.902.005c1.005.538.765 1.331.747 2.161-1.253.114-2.484.411-3.652.88a3.17 3.17 0 0 1-.852.117c-.625.073-1.164-.408-1.909-.055-.615.291-1.479.016-2.227.068-1.77.123-3.43-.678-5.232-.497a16.02 16.02 0 0 1-5.167-.034c-2.705-.415-5.448-.526-8.177-.33-1.124-.014-2.106-.518-3.196-.506-1.128.012-2.257-.032-3.383.019-.489.023-.726-1.023-1.316-.289-.494.617-.854-.685-1.237-.098-.525.803-.767-.241-1.26-.121-1.227.298-2.366-.715-3.638-.412-.477-.841-.934.142-1.435.016a21.96 21.96 0 0 0-3.609-.598c-.354-.028-.638-.496-1.105-.073-.401.364-.597-.355-1.081-.281-1.835.28-3.585-.6-5.45-.451-1.793.143-3.608-.008-5.411.045a6.41 6.41 0 0 1-3.04-.812 9.74 9.74 0 0 1-7.1-.558h-5.619l-.902-.904c-.481 0-1.073-.045-1.655.009a13.51 13.51 0 0 1-3.652-.447c-1.131-.201-2.304.226-3.447-.417-.514-.289-1.33-.003-2.002-.059-1.146-.095-2.359.346-3.434-.427-.148-.107-.445.014-.665-.02-.701-.108-1.219.98-2.003.295-.719-.629-1.705.06-2.326-.343-.632-.41-1.353-.32-1.984-.719-.487-.309-1.297-.129-1.963-.126-1.001.004-1.809-.263-2.054-1.433-2.219.492-4.26-.683-6.408-.376-.616.088-.951-.542-1.621-.507-.69.036-1.387-.3-2.11.042-.604.287-1.25-.749-1.877.01-1.972-.852-4.258-.193-6.058-1.505-.729 1.187.404 1.926.21 2.907a15.1 15.1 0 0 0-.04 2.907zm-3.002.605c-1.068-.923-.388-1.973-.766-3.236-.051-.411-.964-.8-.963-1.682a5.73 5.73 0 0 0-.582-2.126l.338-.366c-1.425-1.561-2.583-3.347-3.427-5.286-1.666.507-3.413.688-5.147.532.511 1.011.98 1.839 1.355 2.709a9.14 9.14 0 0 1 .877 2.55 14.5 14.5 0 0 0 1.426 4.81c-.178.341-.613.517-.472.978 1.252 1.266 1.762 3.103 3.119 4.087.075.644-.094 1.098.119 1.448.64.408 1.395.457 1.888 1.004h1.908c.821-.955-.411-1.697-.125-2.671.239-.813-.556-1.834.452-2.75h0zm123.023 6.602v-1.277l1.615-1.617.412.413a39.71 39.71 0 0 1 5.09-5.345c.49.172 1.013-.519 1.9-.57.557.511 1.686.398 1.863 1.646.087.612 1.071.494 1.264 1.006a1.39 1.39 0 0 0 .355.643c.174.178.392.308.632.374.607.173.388 1.087 1.011 1.264a7.24 7.24 0 0 0 1.069.143c.133.804.754 1.227 1.262 1.734a1.18 1.18 0 0 1 1.345-.416c.725.304.575 1.187 1.126 1.579a7.38 7.38 0 0 1-2.232 3.785 18.62 18.62 0 0 0-3.203 3.788c-.314.493-1.149.796-1.667 1.309-.776.767-1.749 1.493-1.867 2.595-.11 1.029-1.621.541-1.441 1.633-1.017.771-1.038 1.972-1.423 3.172-.769.168-1.261.92-1.939 1.536-.698 0-1.444.004-2.189-.001-.933.001-1.861-.134-2.755-.403a46.04 46.04 0 0 1-6.449-2.389c-1.182-.56-2.506-.804-3.68-1.445-.769-.419-1.546-.761-1.594-2.164a5.51 5.51 0 0 1 2.287-2.315 24.69 24.69 0 0 0 3.075-2.442 16.08 16.08 0 0 0 2.52-2.541 39.63 39.63 0 0 1 3.613-3.695zm-5.948 10.722c.933.647 2.026.864 2.594 1.765h2.349a7.98 7.98 0 0 0 4.493 1.743c-.005-1.145 1.152-1.437 1.526-2.355a11.16 11.16 0 0 1 1.851-2.818c.737-.936 1.563-1.798 2.468-2.573a38.73 38.73 0 0 0 5.82-5.378c.131-.157.205-.22-.3-.581.065.179-.033-.09-.094-.258-.357.114-.377.469-.534.379-.772-.498-.699-1.451-1.41-1.807a27.06 27.06 0 0 1-4.116-3.581c-.413.79-1.239 1.075-1.532 1.955-.261.785-1.147 1.231-1.551 2.06-.328.673-1.522.677-1.807 1.473-.316.884-1.092 1.342-1.548 2.027-.068.388.152.798-.088.968-2.002.649-2.896 2.407-4.322 3.5-.782.599-1.503 1.408-2.33 1.99-.624.345-1.134.864-1.469 1.493h0zm-77.076 30.617c.65-.19.796-.881.856-1.306.084-.748.394-1.453.889-2.021s1.15-.971 1.88-1.157c.407-.135.574-.832.996-.525.612.066 1.188.321 1.648.73a2.95 2.95 0 0 1 .917 1.552c-.387 1.255-.985 2.435-1.768 3.49v1.275l-.849.818v1.749c-1.759 1.887-2.767 4.352-2.835 6.931-.83 1.124-1.826 2.116-2.953 2.942-.266-.032-.514-.15-.707-.335a1.24 1.24 0 0 1-.363-.693c-.106-.387-.534-.685-.88-1.096.144-1.048-.329-2.262.462-3.32.841-1.918 1.301-3.981 1.356-6.075l1.438-1.178-.592-.823.505-.959z"/><path d="M62.149 159.68l.48-.48c-.159-.653-.475-1.257-.922-1.759l.544-.597c-.955-.701-.261-1.874-.753-2.77-.534-.974.135-2.158-.366-3.002-.615-1.036-.092-2.052-.354-3.026-.264-.982-.266-2.026-.518-2.957-.275-1.015-.134-2.056-.431-2.977-.327-1.01-.097-2.101-.463-2.963a12.87 12.87 0 0 1-.451-3.245l-1.061-.715c.86-.782.665-1.685.682-2.58l-.891-.946.347-.347-.402-1.306c-.232-.949.999-1.658.262-2.67-.559-.768-.19-1.739-.198-2.613-.089-1.07-.386-2.112-.872-3.069l.733-.257c.68-.809-.639-1.709.117-2.514-.55-.553-.033-1.105-.007-1.659a12.96 12.96 0 0 0-.005-1.805c-.071-.777.339-1.635-.419-2.323a.87.87 0 0 1-.101-.428c.003-.15.045-.295.12-.424.942-1.02-.133-2.513.862-3.493-.743-.703.206-1.374.04-2.119-.105-.821-.117-1.651-.036-2.475a5.72 5.72 0 0 1 .067-.609l.86-.225c-.366-1.545.489-2.984.733-4.92l.509-.298c.183-.91-.18-1.657.528-2.12l-.427-.472.889-.89v-1.444l1.613-1.029c.334-.559.121-1.092.195-1.594.146-.203.352-.249.677-.196.302-1.83 2.034-2.813 2.644-4.486 1.433-.87 2.153-2.45 3.51-3.466-.407-1 .456-1.784.423-2.74l1.734-.806.066-1.478c.542-.307 1.109-.128 1.647-.605.799-.804 1.772-1.414 2.844-1.782.144-.028.279-.089.396-.178s.211-.204.276-.336c.541-1.818 2.468-1.709 3.663-2.605.356-.266 1.138-.165 1.478-.721.243-.398 1.145-.021 1.004-.935-.024-.155.796-.622 1.235-.634 1.247-.034 2.121-1.327 3.453-.953.232-.555.926-.334 1.264-.787.485-.649 1.3-.813 2.174-1.205-1.61-1.246-3.675-1.737-4.831-3.438-1.975-.879-2.811-2.891-4.262-4.291a2.64 2.64 0 0 0-.297-1.238 3.37 3.37 0 0 1-.66-1.796c-.042-.65.104-1.298.422-1.866.07-.11.118-.233.139-.361a.99.99 0 0 0-.013-.387.97.97 0 0 0-.163-.351c-.077-.105-.175-.193-.287-.26a14.81 14.81 0 0 0 1.273-2.381 2.3 2.3 0 0 1 .465-.855c.214-.248.479-.448.777-.586.488-.202.891-.704 1.605-.567.393.075.363-1.01 1.119-.958.167.012.362-.338.525-.323 2.297.219 4.545-.949 6.797-.424 2.164.504 4.401.613 6.556 1.295.509-.376.131-.946.292-1.614l-.9-.566c-.098-1.355.037-2.583-1.41-3.011v-.899a25.99 25.99 0 0 0-4.286-3.829l-3.088-1.804c-1.841-.945-3.586-2.065-5.213-3.344v-1.391a3.56 3.56 0 0 1 1.51-1.268 3.55 3.55 0 0 1 1.953-.267 3.94 3.94 0 0 1 1.899.348c.595.272 1.112.687 1.506 1.208.375.593 1.459.724 2.206 1.094 2.001.986 3.823 2.3 5.391 3.887.242.257.399.583.45.932l1.635.721a5.86 5.86 0 0 0 1.836 2.527c.669.911 1.032 2.009 1.039 3.138a3.88 3.88 0 0 0 1.79-.008 3.87 3.87 0 0 0 1.595-.811 12.22 12.22 0 0 1 1.436.014c.409.046.707-.771 1.26-.055.196.255 1 .041 1.526.041a6.54 6.54 0 0 1 1.574.019c2.338.199 4.647.646 6.89 1.333 2.623 1.287 5.158 2.612 6.005 5.79a9.03 9.03 0 0 0 1.288 2.15l-.315.316c.416 1.869.416 1.869-.113 3.216l.406.462c-.235.621-1.099 1.069-.457 1.907-.903.75-.034 1.952-.796 2.853-.595.704-.655 1.836-1.153 2.656-.364.599-.15 1.135-.229 1.699.475.386 1.02.098 1.61.209l.67.826h1.891a13 13 0 0 0 5.298 2.255c1.064.366 2.067.886 2.979 1.545a17.99 17.99 0 0 1 2.485 1.732c.962.711 1.585 1.865 2.838 2.229.544.158.722.8.94 1.302l.45-.371c.982.724 1.539 1.875 2.831 2.328.322.352-.156 1.087.541 1.48a6.88 6.88 0 0 1 2.69 3.35c.327.712 1.056 1.022 1.374 1.688.34.713 1.217 1.013 1.368 1.881a8.97 8.97 0 0 0 .961 2.081c.316.693.531 1.743 1.749 1.683v1.554c.337.14.802.221.818.356.133 1.123 1.359 1.692 1.413 2.807.056 1.184 1.268 1.703 1.492 2.774.257 1.237 1.288 2.208 1.227 3.557 1.113 1.474.985 3.513 2.237 4.904l-.534.61c.979 1.202.574 3.04 1.84 3.892.142.53-.128.616-.288.837.076.411.443.769.373 1.291a4.31 4.31 0 0 0 .023 1.792c.091.18.145.378.157.579a1.49 1.49 0 0 1-.088.595c.694.314.186 1.059.594 1.577.563.714-.134 1.886.649 2.65-.333 1.713.522 3.32.447 5.008.04.564.178 1.117.408 1.634.464 1.561.44 3.233.922 4.814.135.441.235 1.079-.259 1.252l.711 3.828c.121 1.335.027 2.691.027 3.935.177.293.416.542.701.73a2.31 2.31 0 0 0 .946.359c1.57-.133 2.496 1.007 3.648 1.619l2.187 1.261a7.2 7.2 0 0 1 2.989 2.045c.309.469.906.449 1.242.807.302.321.796.213 1.033.886.295.839 1.377 1.174 2.4 1.166.359.267.106.681.254 1.106 1.098.361 1.669 1.622 3.04 1.952-.056.396 0 .799.161 1.165s.421.68.751.907c.248 1.174-.623 1.469-1.032 2.024-1.662.433-2.581-.999-3.862-1.514.007-1.054-1.322-.77-1.568-1.57-1.581-.963-3.107-2.014-4.57-3.148l-4.431-2.857c-1.469-.905-3.185-1.108-4.57-2.108-.295-.213-.875-.031-1.264-.031-1.166-.892-1.997-2.152-2.357-3.575-.152-.518-.353-1.134-.168-1.464.837-1.494.218-3.064.4-4.58-.006-.368-.087-.732-.238-1.068a2.69 2.69 0 0 0-.642-.885v-4.447l-.892-.938c-.152-.491.259-.68.5-1.056-.779-.837-.468-1.898-.543-3.078l-.84-.602c.045-1.087-.104-2.172-.44-3.206-.419-.864.289-2.03-.478-2.972-.184-.225-.062-.735-.013-1.105.085-.238.207-.461.361-.661-.376-.337-.679-.747-.89-1.205a3.7 3.7 0 0 1-.34-1.459c-.202-1.49-.78-2.869-1.027-4.349-.387-1.206-.949-2.347-1.668-3.389l.515-.581-1.423-1.166c-.206-.615.43-.696.408-.982l-1.975-1.782.669-1.106c-1.42-1.467-1.261-3.937-3.204-5.102v-1.856c-.513-.254-1.328-.453-1.307-.972.035-.856-.874-.427-.96-.944-.057-.34.112-.568.456-.767-.368-.529-1.023-.847-1.046-1.553-1.095-.748-1.958-1.787-2.494-3-.702-.932-1.453-1.826-2.249-2.68a16.38 16.38 0 0 1-3.793-5.666h-2.709c-3.6-2.242-7.487-3.919-11.012-6.401-1.064.394-2.072-.257-3.105-.481a14.65 14.65 0 0 1-2.506-.45c-.897-.385-1.584.35-2.571-.03l-.683-.899c-1.298.446-2.331-.445-3.511-.367a39.96 39.96 0 0 1-7.031.459c-1.31.476-2.716.63-4.099.451a25.44 25.44 0 0 0-5.959 1.961 22.89 22.89 0 0 1-2.614.765 3.66 3.66 0 0 1-2.436.362 10.77 10.77 0 0 1-3.51 2.089l-.143.697H87.56c-.234 1.087-1.133 1.546-1.621 2.141-.805-.204-1.377-.155-1.677.601-.174.392-.485.708-.875.887a11.48 11.48 0 0 0-5.132 4.411c-1.018.309-1.514 1.626-2.767 1.449-.66.458-1.046 1.178-1.89 1.478a2.63 2.63 0 0 0-1.402 1.404 4.32 4.32 0 0 1-1.344 1.693 6.58 6.58 0 0 0-1.472 2.112 13.55 13.55 0 0 0-.586 1.789c-.892-.06-.729.93-1.244 1.258a.95.95 0 0 0-.451.941 3.33 3.33 0 0 1-.371 1.508c-.241.467-.589.869-1.016 1.174v2.781l-.774.204v2.336l-.953.9v3.2l-.89.891c.703.423.148 1.37.831 1.878.404.3-.525.609-.243 1.062.343.552-.224.973-.24 1.506-.019.609.471.866.549 1.39.109.74-.327 1.255-.537 1.835-.14.387-.627.797-.381 1.169 1.062 1.6-.202 3.519.769 5.108.162.266-.22.304-.258.478-.254 1.176-.185 2.399.199 3.539a3.16 3.16 0 0 1 .213 1.562 3.17 3.17 0 0 1-.567 1.472l1.001 1.002c.043.21-.231.378-.52.677.179.603.665 1.213.496 1.963-.16.712.4 1.188.624 1.772.291.702.383 1.47.268 2.221-.091.561.243.951.46 1.394-.414.689-.561 1.505-.414 2.295a3.29 3.29 0 0 0 1.21 1.992c-.779.647.138 1.87-.856 2.448.26.79 1.011 1.103 1.265 1.723.146.992-.805 1.943-.019 2.955.397.511-.113 1.206.327 1.666.389.407-.365 1.009.287 1.319a13.02 13.02 0 0 0 .522 4.323c.233 2.089.901 4.134 1.308 6.217.143.735.947 1.127.977 2.112.024.794.564 1.54-.076 2.358a.68.68 0 0 0 .113.826c.568.479.198 1.121.263 1.429-.584 1.515-1.646 2.798-3.026 3.654-1.466.806-1.692 2.149-2.561 3.469a8.39 8.39 0 0 0-2.935 2.515c-.512.742-1.063 1.429-2.052 1.239-.106.123-.183.171-.198.234a4.18 4.18 0 0 1-1.131 2.019c-1.357 1.235-2.598 2.591-3.71 4.05-.056.08-.273.049-.572.093.205.725-.388 1.268-.515 2.022-.254.321-.662.079-1.013.156-.844.974-1.006 2.528-2.534 2.946-.566.155-.627.866-.745 1.254-.396 1.306-1.131 2.484-2.131 3.413a3.95 3.95 0 0 0-1.201 1.384 3.94 3.94 0 0 0-.446 1.777c.042.619-.66.762-.889 1.209-1.214 1.883-2.136 3.939-2.735 6.098a13.73 13.73 0 0 1-.978 2.303c-.268.706-.186 1.414-.449 2.072-.892-.062-.763.9-1.249 1.247l.464.51a4.16 4.16 0 0 1-1.321 2.154c.043.342.641.448.467.715-.208.55-.56.426-.807.529-.412 1.65-1.582 3.135-.932 5.091-1.251.521-.764 2.163-1.94 2.734v2.732c-1.662 1.991-1.492 4.832-3.189 6.947a2.11 2.11 0 0 1 .49 1.326c.006.485-.156.958-.458 1.337-.696.797-.158 2.002-.904 2.787-.063.373.303.476.45.722a11.6 11.6 0 0 0-.853 4.484 2.8 2.8 0 0 0-1.091 2.668c.184.378.256.8.208 1.218a2.2 2.2 0 0 1-.48 1.139c1.075.743-.134 1.81.34 2.777l-.769.574c-.099.187-.071.27.11.404a1.11 1.11 0 0 1 .229 1.428c-.427.62-.131 1.441-.456 1.835-.59.713.244 1.131.082 1.712a2.06 2.06 0 0 1-.47.713c.678.484.402 1.192.429 2.024l-1.004.722c.296.478.49 1.012.569 1.569a4.08 4.08 0 0 1-.106 1.665c-.867.22.543.764-.186 1.169-.386.215-.293.932.181 1.331a1.72 1.72 0 0 0-.396.848c-.051.314-.015.635.105.929.252.553.66 1.258.347 1.598-.511.556.253 1.151-.27 1.572.611.621-.188 1.397.288 2.117.499.756-.382 1.605-.042 2.566a2.69 2.69 0 0 1 .198 1.307 2.68 2.68 0 0 1-.448 1.242c.971 1.229-.978 2.69.304 3.926.122.118.027.603-.116.819-.166.251-.356.444-.321.779a8.51 8.51 0 0 1 .007.895c.342.446.809.782 1.342.965.3.81-.793 1.42-.395 2.068.359.584-.014 1.175.354 1.758a1.19 1.19 0 0 1-.395 1.582.95.95 0 0 1 .369.405c.08.169.109.357.082.542a17.15 17.15 0 0 0 1.081 5.891c.187.882.097 1.734.381 2.87l1.234.991a20.38 20.38 0 0 0 .521 6.435l-.855.687c-1.383-.576-2.986 1.15-4.593-.17l-.049-.993c-.944-.556-1.301-1.749-2.212-2.689v-1.54l-1.426-2.771c-.155-.462.237-1.24-.327-2.055a1.84 1.84 0 0 1-.208-1.173 1.85 1.85 0 0 1 .552-1.056l-.798-.799c-.247-.438.059-.679.332-.931-.11-.32-.585-.478-.403-.931l.426-.459c.17-.482-.396-.668-.401-.967-.014-.95-.774-1.766-.475-2.747.24-.786-.616-1.529-.033-2.357a.79.79 0 0 0-.245-1.001c-.362-.278-.226-.725-.159-1.047.454-1.5.447-3.102-.019-4.598.584-1.005-.221-2.004-.008-3.016.224-1.058-.337-2.175.377-3.244.129-.271.199-.566.205-.866a2.11 2.11 0 0 0-.172-.874c-.246-.546-.725-1.155-.218-1.533.596-.444-.668-.941.179-1.165-.079-.92.419-1.761.151-2.768a3.73 3.73 0 0 1 .252-2.818c-.422-.251-.422-.821-.289-1.301.16-.58-.623-.671-.49-1.131l.967-1.852c-.071-.661-.339-1.285-.771-1.79a8.67 8.67 0 0 0 .434-2.634c-.08-.523.547-.649.289-1.082-.178-.299-.444-.504-.479-.938a26.27 26.27 0 0 1 .955-5.036c.744-.343.098-1.339.81-1.709-.276-.409-.581-.897-.368-1.346.667-1.439.972-3.02.887-4.605a9.43 9.43 0 0 1 .913-3.059l-.422-.542.827-.93c.098-.549-.273-.647-.352-.795.547-1.275.393-2.828 1.749-3.64l-.488-.558a10.07 10.07 0 0 0 .946-3.585l.822-.823c.328-3.534 1.419-6.955 3.198-10.025l-.328-.328c.229-.845 1.003-1.516.808-2.51-.088-.451.401-.582.571-.889a5.62 5.62 0 0 0 1.234-3.331 3.02 3.02 0 0 1 .861-1.989l-.511-.512 1.403-1.245a11.32 11.32 0 0 1 2.751-5.526.59.59 0 0 0-.222-.586c-.2-.144-.252-.349-.209-.74a2.95 2.95 0 0 0 1.325-.765 2.96 2.96 0 0 0 .765-1.325c.353-.886 1.201-1.432 1.451-2.333.263-.945 1.427-1.571.969-2.762.751-.934 1.142-2.228 2.525-2.528a11.72 11.72 0 0 1 2.398-3.745c1.636-1.461 3.034-3.169 4.141-5.062.99-.26 1.265-1.649 2.453-1.526.851-2.1 3.367-2.912 3.857-5.238.793-.43 1.778-.615 2.316-1.437.822-1.069 1.777-2.028 2.841-2.855a9.76 9.76 0 0 0 2.781-3.467c-1.589-1.106-1.826-3.279-3.027-4.848.092-.561.059-1.135-.096-1.681a3.87 3.87 0 0 0-.803-1.481zm24.422-47.462c1.116-.671 2.283-.74 3.216-1.42.915-.241 1.872-.288 2.806-.135 1.059.196 2.236-.44 3.194.457 1.726-.14 2.994 1.171 4.567 1.387.35 1.308 1.552 1.823 2.239 2.766.435.533.141 1.214.404 1.86a3.85 3.85 0 0 1 .268 2.721c-.163.417-.212.869-.142 1.311a2.51 2.51 0 0 0 .541 1.202c-.205.517-.752 1.004-.44 1.6.341.653-1.133.933-.283 1.538.524.374-.635.911.2 1.137-.483.445-.309 1.045-.408 1.59s-.66.977-.367 1.777a7.23 7.23 0 0 1 2.886.905c1.06.551 2.225.872 3.419.941a10.06 10.06 0 0 1 2.511.506 4.57 4.57 0 0 0 2.298.447 4.33 4.33 0 0 1 2.222.624c.762.308 1.348.473 2.014-.028.409-.308.864-.126 1.293-.137 1.201-.085 2.406-.079 3.605.018 1.755-.011 3.506-.189 5.227-.531a12.39 12.39 0 0 0 4.636-1.293c.183-.088.545.086.655-.027 1.039-1.065 2.575-1.114 3.742-1.873 1.258-.818 1.715-2.376 2.857-3.337.139-.117-.019-.522.378-.661.42-.12.792-.368 1.063-.71a2.09 2.09 0 0 0 .45-1.196c.071-.545.823-1.002 1.287-1.521v-.421l2.974-2.977c.17.009.337.057.486.139a1.14 1.14 0 0 1 .376.338c.504.69-.175 1.521.609 1.963a1.26 1.26 0 0 1-.162.329c-.88 1.27-1.499 2.702-1.821 4.214-.346.864-.865 1.647-1.527 2.302l-.878.818c-.194 1.322-.449 2.385-1.798 2.791-.703.213-1.311.661-1.723 1.268-.329.48-.783.329-1.319.363-.929 1.692-3.008 1.617-4.57 2.709-1.579-.294-3.003.718-4.575 1.105-.249.061-.489.269-.795.246-3.639-.273-7.22.717-10.867.481-1.189-.325-2.416-.493-3.649-.5a5.25 5.25 0 0 1-3.294-.732c-.48-.194-1.007-.24-1.514-.133-1.361.018-2.705-.3-3.914-.925l-4.058-1.639c-.129-.053-.265-.175-.381-.157a4.79 4.79 0 0 1-3.528-1.326c-.715-.493-1.45-1.289-2.531-.943-.568-.578-1.727-.55-1.7-1.728a2.69 2.69 0 0 1-1.062-.121 2.71 2.71 0 0 1-.933-.521c-1.506-1.616-3.746-2.14-5.26-3.758-.542-.58-1.612-.65-2-1.552-1.078.375-1.351-1.067-2.343-.967v-3.962c.314-.823.834-1.553 1.509-2.119.667-.687 1.183-1.526 1.929-2.169s1.726-1.202 1.98-2.334zm5.866 2.155c-.153.078.018.449-.153.679-1.599.486-3.003 1.466-4.011 2.799v1.217l-.831.832c.502.736.828 1.533 1.816 1.927a5.85 5.85 0 0 1 2.172 1.012 5.86 5.86 0 0 1 1.585 1.797l1.495.084a12.77 12.77 0 0 0 3.211 2.663c.651-.021 1.38.194 1.845-.74.291-.722-.385-1.778.411-2.578-.708-2.117-.991-4.354-.833-6.581a.66.66 0 0 0-.004-.224.65.65 0 0 0-.127-.172c-.253-.503-.906-.398-1.09-.634-.252-.512.051-.925-.225-1.155-1.767-.333-3.291-1.418-5.261-.926zm20.8-6.781c-.722-.986-.581-2.195-1.403-2.965 1.118-1.684-.171-3.339-.044-5.213l.831-.775-.302-.302.465-1.087 1.32-.594c.741-.047 1.262.732 1.974.47.364.384.126.781.22 1.129l.844.846v2.492l1.402 2.693c-.346 2.315.962 4.61.925 6.966l.878 1.56a7.29 7.29 0 0 1-1.758 3.239h-3.42c-.465-.239-.73-.999-1.578-.936.077-.87-.122-1.742-.568-2.493-.323-.893.526-1.634-.133-2.513a1.86 1.86 0 0 1-.321-1.326c.064-.467.303-.892.668-1.19zm22.414.586c-1.13 1.349.457 3.267-1.052 4.54a3.02 3.02 0 0 1-2.077.692c-.755-.038-1.468-.357-1.998-.896-.572-.666.23-1.639-.739-2.031.157-.158.321-.247.358-.374.079-.272.04-.585.144-.843.229-.569-.736-1.046-.098-1.622-.536-.243-.23-1.023-.802-1.25.6-.461.569-.931.014-1.396.349-.37.609-.815.762-1.3a3.38 3.38 0 0 0 .121-1.502l-.017-2.703c-.048-.504.021-1.012.201-1.485a3.3 3.3 0 0 1 .837-1.243c.915-.436 1.645.176 2.437.434a3.78 3.78 0 0 1 .601 2.682l-.006 2.81c.84.585.579 1.657.869 2.536.31.939-.336 2.07.445 2.951zm119.962-2.099l1.441.742c.015.215-.03.43-.13.621-.491.782-1.637.879-1.905 1.875h-.895c-1.18 1.256-2.634 2.223-4.248 2.826a11.91 11.91 0 0 0-4.082 3.921 36.2 36.2 0 0 1-2.378 3.071 12.19 12.19 0 0 0-1.863 2.741c-1.133.568-2.42.751-3.667.52l-1.132-1.108c.071-.515-.16-1.05.184-1.567l.467.389c1.253-.88 2.253-2.073 2.9-3.46a17.97 17.97 0 0 1 4.599-5.13 14.5 14.5 0 0 1 2.966-2.113c.976-.818 2.176-1.323 3.443-1.449 1.154-1.406 3.164-.701 4.3-1.879zm-17.65-5.267c.775.613.823 1.654 1.457 2.414.194 1.058.002 2.151-.541 3.08-1.116 1.345-1.991 2.874-2.585 4.518-.156.467-.413.895-.751 1.254-.805.9-1.309 2.029-1.441 3.229-.403 1.791-1.246 3.452-2.451 4.836h-2.301c-.687-.267-.603-1.116-1.121-1.523a10.96 10.96 0 0 0 1.518-3.841c.307-1.143.776-2.235 1.394-3.244a3.12 3.12 0 0 0 .657-1.981c-.106-.628.363-1.118.66-1.51.605-.799 1.053-1.745 1.659-2.448 1.327-1.539 1.904-3.65 3.846-4.784z"/></g><path d="M208.485 325.331a5.63 5.63 0 0 1-2.242 1.188 5.65 5.65 0 0 1-2.537.084c-1.264.783-2.698 1.249-4.181 1.359-.557.106-1.121-.126-1.713.259-.22.143-.955-.313-1.522-.269a5.68 5.68 0 0 1-1.798-.011 14.54 14.54 0 0 1-6.257-1.776c-.091-.074-.36.048-.428-.028-.271-.243-.507-.522-.701-.83-.925-1.807-2.928-3.007-3.101-5.213-.074-.948-.712-1.734-.523-2.751.117-.636.802-1.1.503-1.78a31.47 31.47 0 0 1 5.863-4.473 6.91 6.91 0 0 1 2.606-.742c.353-.088.516.221.725.411.678-.343 1.254-.94 2.096-.864a14.8 14.8 0 0 1 5.005.39 2.69 2.69 0 0 1 1.3-.421 2.7 2.7 0 0 1 1.34.269c.684.427 1.626-.064 2.207.663a8.19 8.19 0 0 1 5.791 2.358l2.399 1.536c-.304.958.298 1.87.434 2.861s-.375 2.078.424 2.968c-1.332 2.218-2.518 4.62-5.69 4.812z" fill="#ee9ed5"/></svg>